G04 #@! TF.GenerationSoftware,KiCad,Pcbnew,(5.0.1)-3*
G04 #@! TF.CreationDate,2018-11-10T00:41:14-08:00*
G04 #@! TF.ProjectId,firefly,66697265666C792E6B696361645F7063,A*
G04 #@! TF.SameCoordinates,Original*
G04 #@! TF.FileFunction,Legend,Top*
G04 #@! TF.FilePolarity,Positive*
%FSLAX46Y46*%
G04 Gerber Fmt 4.6, Leading zero omitted, Abs format (unit mm)*
G04 Created by KiCad (PCBNEW (5.0.1)-3) date 11/10/2018 12:41:14 AM*
%MOMM*%
%LPD*%
G01*
G04 APERTURE LIST*
%ADD10C,0.254000*%
%ADD11C,0.187500*%
%ADD12C,0.150000*%
%ADD13C,0.180000*%
%ADD14C,0.125000*%
%ADD15C,0.120000*%
%ADD16C,0.100000*%
G04 APERTURE END LIST*
D10*
X148844000Y-127889000D02*
G75*
G03X148844000Y-127889000I-127000J0D01*
G01*
D11*
X157194428Y-131161285D02*
X156837285Y-131161285D01*
X156801571Y-131518428D01*
X156837285Y-131482714D01*
X156908714Y-131447000D01*
X157087285Y-131447000D01*
X157158714Y-131482714D01*
X157194428Y-131518428D01*
X157230142Y-131589857D01*
X157230142Y-131768428D01*
X157194428Y-131839857D01*
X157158714Y-131875571D01*
X157087285Y-131911285D01*
X156908714Y-131911285D01*
X156837285Y-131875571D01*
X156801571Y-131839857D01*
X157444428Y-131161285D02*
X157694428Y-131911285D01*
X157944428Y-131161285D01*
X158730142Y-131875571D02*
X158837285Y-131911285D01*
X159015857Y-131911285D01*
X159087285Y-131875571D01*
X159123000Y-131839857D01*
X159158714Y-131768428D01*
X159158714Y-131697000D01*
X159123000Y-131625571D01*
X159087285Y-131589857D01*
X159015857Y-131554142D01*
X158873000Y-131518428D01*
X158801571Y-131482714D01*
X158765857Y-131447000D01*
X158730142Y-131375571D01*
X158730142Y-131304142D01*
X158765857Y-131232714D01*
X158801571Y-131197000D01*
X158873000Y-131161285D01*
X159051571Y-131161285D01*
X159158714Y-131197000D01*
X159480142Y-131518428D02*
X159730142Y-131518428D01*
X159837285Y-131911285D02*
X159480142Y-131911285D01*
X159480142Y-131161285D01*
X159837285Y-131161285D01*
X160515857Y-131911285D02*
X160158714Y-131911285D01*
X160158714Y-131161285D01*
X142411571Y-142033857D02*
X142411571Y-141783857D01*
X142018714Y-141783857D02*
X142768714Y-141783857D01*
X142768714Y-142141000D01*
X142768714Y-142319571D02*
X142768714Y-142748142D01*
X142018714Y-142533857D02*
X142768714Y-142533857D01*
X142018714Y-142998142D02*
X142768714Y-142998142D01*
X142768714Y-143176714D01*
X142733000Y-143283857D01*
X142661571Y-143355285D01*
X142590142Y-143391000D01*
X142447285Y-143426714D01*
X142340142Y-143426714D01*
X142197285Y-143391000D01*
X142125857Y-143355285D01*
X142054428Y-143283857D01*
X142018714Y-143176714D01*
X142018714Y-142998142D01*
X142018714Y-143748142D02*
X142768714Y-143748142D01*
D12*
X151022142Y-79345285D02*
X151393571Y-79345285D01*
X151193571Y-79631000D01*
X151279285Y-79631000D01*
X151336428Y-79666714D01*
X151365000Y-79702428D01*
X151393571Y-79773857D01*
X151393571Y-79952428D01*
X151365000Y-80023857D01*
X151336428Y-80059571D01*
X151279285Y-80095285D01*
X151107857Y-80095285D01*
X151050714Y-80059571D01*
X151022142Y-80023857D01*
X151565000Y-79345285D02*
X151765000Y-80095285D01*
X151965000Y-79345285D01*
X152107857Y-79345285D02*
X152479285Y-79345285D01*
X152279285Y-79631000D01*
X152365000Y-79631000D01*
X152422142Y-79666714D01*
X152450714Y-79702428D01*
X152479285Y-79773857D01*
X152479285Y-79952428D01*
X152450714Y-80023857D01*
X152422142Y-80059571D01*
X152365000Y-80095285D01*
X152193571Y-80095285D01*
X152136428Y-80059571D01*
X152107857Y-80023857D01*
X153555714Y-79345285D02*
X153270000Y-79345285D01*
X153241428Y-79702428D01*
X153270000Y-79666714D01*
X153327142Y-79631000D01*
X153470000Y-79631000D01*
X153527142Y-79666714D01*
X153555714Y-79702428D01*
X153584285Y-79773857D01*
X153584285Y-79952428D01*
X153555714Y-80023857D01*
X153527142Y-80059571D01*
X153470000Y-80095285D01*
X153327142Y-80095285D01*
X153270000Y-80059571D01*
X153241428Y-80023857D01*
X153755714Y-79345285D02*
X153955714Y-80095285D01*
X154155714Y-79345285D01*
X159308857Y-79381000D02*
X159251714Y-79345285D01*
X159166000Y-79345285D01*
X159080285Y-79381000D01*
X159023142Y-79452428D01*
X158994571Y-79523857D01*
X158966000Y-79666714D01*
X158966000Y-79773857D01*
X158994571Y-79916714D01*
X159023142Y-79988142D01*
X159080285Y-80059571D01*
X159166000Y-80095285D01*
X159223142Y-80095285D01*
X159308857Y-80059571D01*
X159337428Y-80023857D01*
X159337428Y-79773857D01*
X159223142Y-79773857D01*
X159594571Y-80095285D02*
X159594571Y-79345285D01*
X159937428Y-80095285D01*
X159937428Y-79345285D01*
X160223142Y-80095285D02*
X160223142Y-79345285D01*
X160366000Y-79345285D01*
X160451714Y-79381000D01*
X160508857Y-79452428D01*
X160537428Y-79523857D01*
X160566000Y-79666714D01*
X160566000Y-79773857D01*
X160537428Y-79916714D01*
X160508857Y-79988142D01*
X160451714Y-80059571D01*
X160366000Y-80095285D01*
X160223142Y-80095285D01*
D11*
X148784571Y-67661285D02*
X149034571Y-68411285D01*
X149284571Y-67661285D01*
X149534571Y-68411285D02*
X149534571Y-67661285D01*
X149891714Y-68411285D02*
X149891714Y-67661285D01*
X150320285Y-68411285D01*
X150320285Y-67661285D01*
X146494571Y-67697000D02*
X146423142Y-67661285D01*
X146316000Y-67661285D01*
X146208857Y-67697000D01*
X146137428Y-67768428D01*
X146101714Y-67839857D01*
X146066000Y-67982714D01*
X146066000Y-68089857D01*
X146101714Y-68232714D01*
X146137428Y-68304142D01*
X146208857Y-68375571D01*
X146316000Y-68411285D01*
X146387428Y-68411285D01*
X146494571Y-68375571D01*
X146530285Y-68339857D01*
X146530285Y-68089857D01*
X146387428Y-68089857D01*
X146851714Y-68411285D02*
X146851714Y-67661285D01*
X147280285Y-68411285D01*
X147280285Y-67661285D01*
X147637428Y-68411285D02*
X147637428Y-67661285D01*
X147816000Y-67661285D01*
X147923142Y-67697000D01*
X147994571Y-67768428D01*
X148030285Y-67839857D01*
X148066000Y-67982714D01*
X148066000Y-68089857D01*
X148030285Y-68232714D01*
X147994571Y-68304142D01*
X147923142Y-68375571D01*
X147816000Y-68411285D01*
X147637428Y-68411285D01*
D13*
X156287428Y-93069285D02*
X156251714Y-93176428D01*
X156251714Y-93355000D01*
X156287428Y-93426428D01*
X156323142Y-93462142D01*
X156394571Y-93497857D01*
X156466000Y-93497857D01*
X156537428Y-93462142D01*
X156573142Y-93426428D01*
X156608857Y-93355000D01*
X156644571Y-93212142D01*
X156680285Y-93140714D01*
X156716000Y-93105000D01*
X156787428Y-93069285D01*
X156858857Y-93069285D01*
X156930285Y-93105000D01*
X156966000Y-93140714D01*
X157001714Y-93212142D01*
X157001714Y-93390714D01*
X156966000Y-93497857D01*
X156251714Y-93819285D02*
X157001714Y-93819285D01*
X157001714Y-93997857D01*
X156966000Y-94105000D01*
X156894571Y-94176428D01*
X156823142Y-94212142D01*
X156680285Y-94247857D01*
X156573142Y-94247857D01*
X156430285Y-94212142D01*
X156358857Y-94176428D01*
X156287428Y-94105000D01*
X156251714Y-93997857D01*
X156251714Y-93819285D01*
X156466000Y-94533571D02*
X156466000Y-94890714D01*
X156251714Y-94462142D02*
X157001714Y-94712142D01*
X156251714Y-94962142D01*
X156287428Y-90547142D02*
X156251714Y-90654285D01*
X156251714Y-90832857D01*
X156287428Y-90904285D01*
X156323142Y-90940000D01*
X156394571Y-90975714D01*
X156466000Y-90975714D01*
X156537428Y-90940000D01*
X156573142Y-90904285D01*
X156608857Y-90832857D01*
X156644571Y-90690000D01*
X156680285Y-90618571D01*
X156716000Y-90582857D01*
X156787428Y-90547142D01*
X156858857Y-90547142D01*
X156930285Y-90582857D01*
X156966000Y-90618571D01*
X157001714Y-90690000D01*
X157001714Y-90868571D01*
X156966000Y-90975714D01*
X156323142Y-91725714D02*
X156287428Y-91690000D01*
X156251714Y-91582857D01*
X156251714Y-91511428D01*
X156287428Y-91404285D01*
X156358857Y-91332857D01*
X156430285Y-91297142D01*
X156573142Y-91261428D01*
X156680285Y-91261428D01*
X156823142Y-91297142D01*
X156894571Y-91332857D01*
X156966000Y-91404285D01*
X157001714Y-91511428D01*
X157001714Y-91582857D01*
X156966000Y-91690000D01*
X156930285Y-91725714D01*
X156251714Y-92404285D02*
X156251714Y-92047142D01*
X157001714Y-92047142D01*
X157394714Y-90511428D02*
X158144714Y-90511428D01*
X158144714Y-90797142D01*
X158109000Y-90868571D01*
X158073285Y-90904285D01*
X158001857Y-90940000D01*
X157894714Y-90940000D01*
X157823285Y-90904285D01*
X157787571Y-90868571D01*
X157751857Y-90797142D01*
X157751857Y-90511428D01*
X157466142Y-91690000D02*
X157430428Y-91654285D01*
X157394714Y-91547142D01*
X157394714Y-91475714D01*
X157430428Y-91368571D01*
X157501857Y-91297142D01*
X157573285Y-91261428D01*
X157716142Y-91225714D01*
X157823285Y-91225714D01*
X157966142Y-91261428D01*
X158037571Y-91297142D01*
X158109000Y-91368571D01*
X158144714Y-91475714D01*
X158144714Y-91547142D01*
X158109000Y-91654285D01*
X158073285Y-91690000D01*
X158144714Y-92368571D02*
X158144714Y-92011428D01*
X157787571Y-91975714D01*
X157823285Y-92011428D01*
X157859000Y-92082857D01*
X157859000Y-92261428D01*
X157823285Y-92332857D01*
X157787571Y-92368571D01*
X157716142Y-92404285D01*
X157537571Y-92404285D01*
X157466142Y-92368571D01*
X157430428Y-92332857D01*
X157394714Y-92261428D01*
X157394714Y-92082857D01*
X157430428Y-92011428D01*
X157466142Y-91975714D01*
X157394714Y-93051428D02*
X158144714Y-93051428D01*
X158144714Y-93337142D01*
X158109000Y-93408571D01*
X158073285Y-93444285D01*
X158001857Y-93480000D01*
X157894714Y-93480000D01*
X157823285Y-93444285D01*
X157787571Y-93408571D01*
X157751857Y-93337142D01*
X157751857Y-93051428D01*
X157466142Y-94230000D02*
X157430428Y-94194285D01*
X157394714Y-94087142D01*
X157394714Y-94015714D01*
X157430428Y-93908571D01*
X157501857Y-93837142D01*
X157573285Y-93801428D01*
X157716142Y-93765714D01*
X157823285Y-93765714D01*
X157966142Y-93801428D01*
X158037571Y-93837142D01*
X158109000Y-93908571D01*
X158144714Y-94015714D01*
X158144714Y-94087142D01*
X158109000Y-94194285D01*
X158073285Y-94230000D01*
X157894714Y-94872857D02*
X157394714Y-94872857D01*
X158180428Y-94694285D02*
X157644714Y-94515714D01*
X157644714Y-94980000D01*
X157394714Y-95591428D02*
X158144714Y-95591428D01*
X158144714Y-95877142D01*
X158109000Y-95948571D01*
X158073285Y-95984285D01*
X158001857Y-96020000D01*
X157894714Y-96020000D01*
X157823285Y-95984285D01*
X157787571Y-95948571D01*
X157751857Y-95877142D01*
X157751857Y-95591428D01*
X157466142Y-96770000D02*
X157430428Y-96734285D01*
X157394714Y-96627142D01*
X157394714Y-96555714D01*
X157430428Y-96448571D01*
X157501857Y-96377142D01*
X157573285Y-96341428D01*
X157716142Y-96305714D01*
X157823285Y-96305714D01*
X157966142Y-96341428D01*
X158037571Y-96377142D01*
X158109000Y-96448571D01*
X158144714Y-96555714D01*
X158144714Y-96627142D01*
X158109000Y-96734285D01*
X158073285Y-96770000D01*
X158144714Y-97020000D02*
X158144714Y-97484285D01*
X157859000Y-97234285D01*
X157859000Y-97341428D01*
X157823285Y-97412857D01*
X157787571Y-97448571D01*
X157716142Y-97484285D01*
X157537571Y-97484285D01*
X157466142Y-97448571D01*
X157430428Y-97412857D01*
X157394714Y-97341428D01*
X157394714Y-97127142D01*
X157430428Y-97055714D01*
X157466142Y-97020000D01*
X157394714Y-98131428D02*
X158144714Y-98131428D01*
X158144714Y-98417142D01*
X158109000Y-98488571D01*
X158073285Y-98524285D01*
X158001857Y-98560000D01*
X157894714Y-98560000D01*
X157823285Y-98524285D01*
X157787571Y-98488571D01*
X157751857Y-98417142D01*
X157751857Y-98131428D01*
X157466142Y-99310000D02*
X157430428Y-99274285D01*
X157394714Y-99167142D01*
X157394714Y-99095714D01*
X157430428Y-98988571D01*
X157501857Y-98917142D01*
X157573285Y-98881428D01*
X157716142Y-98845714D01*
X157823285Y-98845714D01*
X157966142Y-98881428D01*
X158037571Y-98917142D01*
X158109000Y-98988571D01*
X158144714Y-99095714D01*
X158144714Y-99167142D01*
X158109000Y-99274285D01*
X158073285Y-99310000D01*
X158073285Y-99595714D02*
X158109000Y-99631428D01*
X158144714Y-99702857D01*
X158144714Y-99881428D01*
X158109000Y-99952857D01*
X158073285Y-99988571D01*
X158001857Y-100024285D01*
X157930428Y-100024285D01*
X157823285Y-99988571D01*
X157394714Y-99560000D01*
X157394714Y-100024285D01*
X157394714Y-100671428D02*
X158144714Y-100671428D01*
X158144714Y-100957142D01*
X158109000Y-101028571D01*
X158073285Y-101064285D01*
X158001857Y-101100000D01*
X157894714Y-101100000D01*
X157823285Y-101064285D01*
X157787571Y-101028571D01*
X157751857Y-100957142D01*
X157751857Y-100671428D01*
X157466142Y-101850000D02*
X157430428Y-101814285D01*
X157394714Y-101707142D01*
X157394714Y-101635714D01*
X157430428Y-101528571D01*
X157501857Y-101457142D01*
X157573285Y-101421428D01*
X157716142Y-101385714D01*
X157823285Y-101385714D01*
X157966142Y-101421428D01*
X158037571Y-101457142D01*
X158109000Y-101528571D01*
X158144714Y-101635714D01*
X158144714Y-101707142D01*
X158109000Y-101814285D01*
X158073285Y-101850000D01*
X157394714Y-102564285D02*
X157394714Y-102135714D01*
X157394714Y-102350000D02*
X158144714Y-102350000D01*
X158037571Y-102278571D01*
X157966142Y-102207142D01*
X157930428Y-102135714D01*
X157394714Y-103211428D02*
X158144714Y-103211428D01*
X158144714Y-103497142D01*
X158109000Y-103568571D01*
X158073285Y-103604285D01*
X158001857Y-103640000D01*
X157894714Y-103640000D01*
X157823285Y-103604285D01*
X157787571Y-103568571D01*
X157751857Y-103497142D01*
X157751857Y-103211428D01*
X157466142Y-104390000D02*
X157430428Y-104354285D01*
X157394714Y-104247142D01*
X157394714Y-104175714D01*
X157430428Y-104068571D01*
X157501857Y-103997142D01*
X157573285Y-103961428D01*
X157716142Y-103925714D01*
X157823285Y-103925714D01*
X157966142Y-103961428D01*
X158037571Y-103997142D01*
X158109000Y-104068571D01*
X158144714Y-104175714D01*
X158144714Y-104247142D01*
X158109000Y-104354285D01*
X158073285Y-104390000D01*
X158144714Y-104854285D02*
X158144714Y-104925714D01*
X158109000Y-104997142D01*
X158073285Y-105032857D01*
X158001857Y-105068571D01*
X157859000Y-105104285D01*
X157680428Y-105104285D01*
X157537571Y-105068571D01*
X157466142Y-105032857D01*
X157430428Y-104997142D01*
X157394714Y-104925714D01*
X157394714Y-104854285D01*
X157430428Y-104782857D01*
X157466142Y-104747142D01*
X157537571Y-104711428D01*
X157680428Y-104675714D01*
X157859000Y-104675714D01*
X158001857Y-104711428D01*
X158073285Y-104747142D01*
X158109000Y-104782857D01*
X158144714Y-104854285D01*
D12*
X144821714Y-123574285D02*
X145571714Y-123574285D01*
X144893142Y-124202857D02*
X144857428Y-124174285D01*
X144821714Y-124088571D01*
X144821714Y-124031428D01*
X144857428Y-123945714D01*
X144928857Y-123888571D01*
X145000285Y-123860000D01*
X145143142Y-123831428D01*
X145250285Y-123831428D01*
X145393142Y-123860000D01*
X145464571Y-123888571D01*
X145536000Y-123945714D01*
X145571714Y-124031428D01*
X145571714Y-124088571D01*
X145536000Y-124174285D01*
X145500285Y-124202857D01*
X144821714Y-124460000D02*
X145571714Y-124460000D01*
X145571714Y-124688571D01*
X145536000Y-124745714D01*
X145500285Y-124774285D01*
X145428857Y-124802857D01*
X145321714Y-124802857D01*
X145250285Y-124774285D01*
X145214571Y-124745714D01*
X145178857Y-124688571D01*
X145178857Y-124460000D01*
X144821714Y-125374285D02*
X144821714Y-125031428D01*
X144821714Y-125202857D02*
X145571714Y-125202857D01*
X145464571Y-125145714D01*
X145393142Y-125088571D01*
X145357428Y-125031428D01*
X144821714Y-100771428D02*
X145571714Y-100771428D01*
X144821714Y-101057142D02*
X145571714Y-101057142D01*
X144821714Y-101400000D01*
X145571714Y-101400000D01*
X145571714Y-101600000D02*
X145571714Y-101942857D01*
X144821714Y-101771428D02*
X145571714Y-101771428D01*
X144821714Y-102457142D02*
X144821714Y-102114285D01*
X144821714Y-102285714D02*
X145571714Y-102285714D01*
X145464571Y-102228571D01*
X145393142Y-102171428D01*
X145357428Y-102114285D01*
X144821714Y-98231428D02*
X145571714Y-98231428D01*
X144821714Y-98517142D02*
X145571714Y-98517142D01*
X144821714Y-98860000D01*
X145571714Y-98860000D01*
X145571714Y-99060000D02*
X145571714Y-99402857D01*
X144821714Y-99231428D02*
X145571714Y-99231428D01*
X145571714Y-99717142D02*
X145571714Y-99774285D01*
X145536000Y-99831428D01*
X145500285Y-99860000D01*
X145428857Y-99888571D01*
X145286000Y-99917142D01*
X145107428Y-99917142D01*
X144964571Y-99888571D01*
X144893142Y-99860000D01*
X144857428Y-99831428D01*
X144821714Y-99774285D01*
X144821714Y-99717142D01*
X144857428Y-99660000D01*
X144893142Y-99631428D01*
X144964571Y-99602857D01*
X145107428Y-99574285D01*
X145286000Y-99574285D01*
X145428857Y-99602857D01*
X145500285Y-99631428D01*
X145536000Y-99660000D01*
X145571714Y-99717142D01*
D13*
X158109000Y-106108571D02*
X158144714Y-106037142D01*
X158144714Y-105930000D01*
X158109000Y-105822857D01*
X158037571Y-105751428D01*
X157966142Y-105715714D01*
X157823285Y-105680000D01*
X157716142Y-105680000D01*
X157573285Y-105715714D01*
X157501857Y-105751428D01*
X157430428Y-105822857D01*
X157394714Y-105930000D01*
X157394714Y-106001428D01*
X157430428Y-106108571D01*
X157466142Y-106144285D01*
X157716142Y-106144285D01*
X157716142Y-106001428D01*
X157394714Y-106465714D02*
X158144714Y-106465714D01*
X157394714Y-106894285D01*
X158144714Y-106894285D01*
X157394714Y-107251428D02*
X158144714Y-107251428D01*
X158144714Y-107430000D01*
X158109000Y-107537142D01*
X158037571Y-107608571D01*
X157966142Y-107644285D01*
X157823285Y-107680000D01*
X157716142Y-107680000D01*
X157573285Y-107644285D01*
X157501857Y-107608571D01*
X157430428Y-107537142D01*
X157394714Y-107430000D01*
X157394714Y-107251428D01*
D12*
X157072000Y-121348571D02*
X157072000Y-121920000D01*
X156033428Y-121462857D02*
X155997714Y-121548571D01*
X155997714Y-121691428D01*
X156033428Y-121748571D01*
X156069142Y-121777142D01*
X156140571Y-121805714D01*
X156212000Y-121805714D01*
X156283428Y-121777142D01*
X156319142Y-121748571D01*
X156354857Y-121691428D01*
X156390571Y-121577142D01*
X156426285Y-121520000D01*
X156462000Y-121491428D01*
X156533428Y-121462857D01*
X156604857Y-121462857D01*
X156676285Y-121491428D01*
X156712000Y-121520000D01*
X156747714Y-121577142D01*
X156747714Y-121720000D01*
X156712000Y-121805714D01*
X157072000Y-121920000D02*
X157072000Y-122491428D01*
X156033428Y-122034285D02*
X155997714Y-122120000D01*
X155997714Y-122262857D01*
X156033428Y-122320000D01*
X156069142Y-122348571D01*
X156140571Y-122377142D01*
X156212000Y-122377142D01*
X156283428Y-122348571D01*
X156319142Y-122320000D01*
X156354857Y-122262857D01*
X156390571Y-122148571D01*
X156426285Y-122091428D01*
X156462000Y-122062857D01*
X156533428Y-122034285D01*
X156604857Y-122034285D01*
X156676285Y-122062857D01*
X156712000Y-122091428D01*
X156747714Y-122148571D01*
X156747714Y-122291428D01*
X156712000Y-122377142D01*
X156251714Y-118437142D02*
X157001714Y-118437142D01*
X156466000Y-118637142D01*
X157001714Y-118837142D01*
X156251714Y-118837142D01*
X157001714Y-119237142D02*
X157001714Y-119351428D01*
X156966000Y-119408571D01*
X156894571Y-119465714D01*
X156751714Y-119494285D01*
X156501714Y-119494285D01*
X156358857Y-119465714D01*
X156287428Y-119408571D01*
X156251714Y-119351428D01*
X156251714Y-119237142D01*
X156287428Y-119180000D01*
X156358857Y-119122857D01*
X156501714Y-119094285D01*
X156751714Y-119094285D01*
X156894571Y-119122857D01*
X156966000Y-119180000D01*
X157001714Y-119237142D01*
X156287428Y-119722857D02*
X156251714Y-119808571D01*
X156251714Y-119951428D01*
X156287428Y-120008571D01*
X156323142Y-120037142D01*
X156394571Y-120065714D01*
X156466000Y-120065714D01*
X156537428Y-120037142D01*
X156573142Y-120008571D01*
X156608857Y-119951428D01*
X156644571Y-119837142D01*
X156680285Y-119780000D01*
X156716000Y-119751428D01*
X156787428Y-119722857D01*
X156858857Y-119722857D01*
X156930285Y-119751428D01*
X156966000Y-119780000D01*
X157001714Y-119837142D01*
X157001714Y-119980000D01*
X156966000Y-120065714D01*
X156251714Y-120322857D02*
X157001714Y-120322857D01*
X156251714Y-115897142D02*
X157001714Y-115897142D01*
X156466000Y-116097142D01*
X157001714Y-116297142D01*
X156251714Y-116297142D01*
X156251714Y-116582857D02*
X157001714Y-116582857D01*
X156287428Y-116840000D02*
X156251714Y-116925714D01*
X156251714Y-117068571D01*
X156287428Y-117125714D01*
X156323142Y-117154285D01*
X156394571Y-117182857D01*
X156466000Y-117182857D01*
X156537428Y-117154285D01*
X156573142Y-117125714D01*
X156608857Y-117068571D01*
X156644571Y-116954285D01*
X156680285Y-116897142D01*
X156716000Y-116868571D01*
X156787428Y-116840000D01*
X156858857Y-116840000D01*
X156930285Y-116868571D01*
X156966000Y-116897142D01*
X157001714Y-116954285D01*
X157001714Y-117097142D01*
X156966000Y-117182857D01*
X157001714Y-117554285D02*
X157001714Y-117668571D01*
X156966000Y-117725714D01*
X156894571Y-117782857D01*
X156751714Y-117811428D01*
X156501714Y-117811428D01*
X156358857Y-117782857D01*
X156287428Y-117725714D01*
X156251714Y-117668571D01*
X156251714Y-117554285D01*
X156287428Y-117497142D01*
X156358857Y-117440000D01*
X156501714Y-117411428D01*
X156751714Y-117411428D01*
X156894571Y-117440000D01*
X156966000Y-117497142D01*
X157001714Y-117554285D01*
X156287428Y-113528571D02*
X156251714Y-113614285D01*
X156251714Y-113757142D01*
X156287428Y-113814285D01*
X156323142Y-113842857D01*
X156394571Y-113871428D01*
X156466000Y-113871428D01*
X156537428Y-113842857D01*
X156573142Y-113814285D01*
X156608857Y-113757142D01*
X156644571Y-113642857D01*
X156680285Y-113585714D01*
X156716000Y-113557142D01*
X156787428Y-113528571D01*
X156858857Y-113528571D01*
X156930285Y-113557142D01*
X156966000Y-113585714D01*
X157001714Y-113642857D01*
X157001714Y-113785714D01*
X156966000Y-113871428D01*
X156323142Y-114471428D02*
X156287428Y-114442857D01*
X156251714Y-114357142D01*
X156251714Y-114300000D01*
X156287428Y-114214285D01*
X156358857Y-114157142D01*
X156430285Y-114128571D01*
X156573142Y-114100000D01*
X156680285Y-114100000D01*
X156823142Y-114128571D01*
X156894571Y-114157142D01*
X156966000Y-114214285D01*
X157001714Y-114300000D01*
X157001714Y-114357142D01*
X156966000Y-114442857D01*
X156930285Y-114471428D01*
X156251714Y-114728571D02*
X157001714Y-114728571D01*
X156251714Y-115071428D02*
X156680285Y-114814285D01*
X157001714Y-115071428D02*
X156573142Y-114728571D01*
X157609000Y-108248571D02*
X157609000Y-108534285D01*
X157394714Y-108191428D02*
X158144714Y-108391428D01*
X157394714Y-108591428D01*
X157394714Y-109134285D02*
X157751857Y-108934285D01*
X157394714Y-108791428D02*
X158144714Y-108791428D01*
X158144714Y-109020000D01*
X158109000Y-109077142D01*
X158073285Y-109105714D01*
X158001857Y-109134285D01*
X157894714Y-109134285D01*
X157823285Y-109105714D01*
X157787571Y-109077142D01*
X157751857Y-109020000D01*
X157751857Y-108791428D01*
X157787571Y-109391428D02*
X157787571Y-109591428D01*
X157394714Y-109677142D02*
X157394714Y-109391428D01*
X158144714Y-109391428D01*
X158144714Y-109677142D01*
X157787571Y-110134285D02*
X157787571Y-109934285D01*
X157394714Y-109934285D02*
X158144714Y-109934285D01*
X158144714Y-110220000D01*
D13*
X144428714Y-105680000D02*
X143678714Y-105930000D01*
X144428714Y-106180000D01*
X143750142Y-106858571D02*
X143714428Y-106822857D01*
X143678714Y-106715714D01*
X143678714Y-106644285D01*
X143714428Y-106537142D01*
X143785857Y-106465714D01*
X143857285Y-106430000D01*
X144000142Y-106394285D01*
X144107285Y-106394285D01*
X144250142Y-106430000D01*
X144321571Y-106465714D01*
X144393000Y-106537142D01*
X144428714Y-106644285D01*
X144428714Y-106715714D01*
X144393000Y-106822857D01*
X144357285Y-106858571D01*
X143750142Y-107608571D02*
X143714428Y-107572857D01*
X143678714Y-107465714D01*
X143678714Y-107394285D01*
X143714428Y-107287142D01*
X143785857Y-107215714D01*
X143857285Y-107180000D01*
X144000142Y-107144285D01*
X144107285Y-107144285D01*
X144250142Y-107180000D01*
X144321571Y-107215714D01*
X144393000Y-107287142D01*
X144428714Y-107394285D01*
X144428714Y-107465714D01*
X144393000Y-107572857D01*
X144357285Y-107608571D01*
X157394714Y-113371428D02*
X158144714Y-113371428D01*
X158144714Y-113657142D01*
X158109000Y-113728571D01*
X158073285Y-113764285D01*
X158001857Y-113800000D01*
X157894714Y-113800000D01*
X157823285Y-113764285D01*
X157787571Y-113728571D01*
X157751857Y-113657142D01*
X157751857Y-113371428D01*
X157787571Y-114371428D02*
X157751857Y-114478571D01*
X157716142Y-114514285D01*
X157644714Y-114550000D01*
X157537571Y-114550000D01*
X157466142Y-114514285D01*
X157430428Y-114478571D01*
X157394714Y-114407142D01*
X157394714Y-114121428D01*
X158144714Y-114121428D01*
X158144714Y-114371428D01*
X158109000Y-114442857D01*
X158073285Y-114478571D01*
X158001857Y-114514285D01*
X157930428Y-114514285D01*
X157859000Y-114478571D01*
X157823285Y-114442857D01*
X157787571Y-114371428D01*
X157787571Y-114121428D01*
X158144714Y-115228571D02*
X158144714Y-114871428D01*
X157787571Y-114835714D01*
X157823285Y-114871428D01*
X157859000Y-114942857D01*
X157859000Y-115121428D01*
X157823285Y-115192857D01*
X157787571Y-115228571D01*
X157716142Y-115264285D01*
X157537571Y-115264285D01*
X157466142Y-115228571D01*
X157430428Y-115192857D01*
X157394714Y-115121428D01*
X157394714Y-114942857D01*
X157430428Y-114871428D01*
X157466142Y-114835714D01*
X157394714Y-115911428D02*
X158144714Y-115911428D01*
X158144714Y-116197142D01*
X158109000Y-116268571D01*
X158073285Y-116304285D01*
X158001857Y-116340000D01*
X157894714Y-116340000D01*
X157823285Y-116304285D01*
X157787571Y-116268571D01*
X157751857Y-116197142D01*
X157751857Y-115911428D01*
X157787571Y-116911428D02*
X157751857Y-117018571D01*
X157716142Y-117054285D01*
X157644714Y-117090000D01*
X157537571Y-117090000D01*
X157466142Y-117054285D01*
X157430428Y-117018571D01*
X157394714Y-116947142D01*
X157394714Y-116661428D01*
X158144714Y-116661428D01*
X158144714Y-116911428D01*
X158109000Y-116982857D01*
X158073285Y-117018571D01*
X158001857Y-117054285D01*
X157930428Y-117054285D01*
X157859000Y-117018571D01*
X157823285Y-116982857D01*
X157787571Y-116911428D01*
X157787571Y-116661428D01*
X157894714Y-117732857D02*
X157394714Y-117732857D01*
X158180428Y-117554285D02*
X157644714Y-117375714D01*
X157644714Y-117840000D01*
X157394714Y-118451428D02*
X158144714Y-118451428D01*
X158144714Y-118737142D01*
X158109000Y-118808571D01*
X158073285Y-118844285D01*
X158001857Y-118880000D01*
X157894714Y-118880000D01*
X157823285Y-118844285D01*
X157787571Y-118808571D01*
X157751857Y-118737142D01*
X157751857Y-118451428D01*
X157787571Y-119451428D02*
X157751857Y-119558571D01*
X157716142Y-119594285D01*
X157644714Y-119630000D01*
X157537571Y-119630000D01*
X157466142Y-119594285D01*
X157430428Y-119558571D01*
X157394714Y-119487142D01*
X157394714Y-119201428D01*
X158144714Y-119201428D01*
X158144714Y-119451428D01*
X158109000Y-119522857D01*
X158073285Y-119558571D01*
X158001857Y-119594285D01*
X157930428Y-119594285D01*
X157859000Y-119558571D01*
X157823285Y-119522857D01*
X157787571Y-119451428D01*
X157787571Y-119201428D01*
X158144714Y-119880000D02*
X158144714Y-120344285D01*
X157859000Y-120094285D01*
X157859000Y-120201428D01*
X157823285Y-120272857D01*
X157787571Y-120308571D01*
X157716142Y-120344285D01*
X157537571Y-120344285D01*
X157466142Y-120308571D01*
X157430428Y-120272857D01*
X157394714Y-120201428D01*
X157394714Y-119987142D01*
X157430428Y-119915714D01*
X157466142Y-119880000D01*
X157394714Y-120991428D02*
X158144714Y-120991428D01*
X158144714Y-121277142D01*
X158109000Y-121348571D01*
X158073285Y-121384285D01*
X158001857Y-121420000D01*
X157894714Y-121420000D01*
X157823285Y-121384285D01*
X157787571Y-121348571D01*
X157751857Y-121277142D01*
X157751857Y-120991428D01*
X157787571Y-121991428D02*
X157751857Y-122098571D01*
X157716142Y-122134285D01*
X157644714Y-122170000D01*
X157537571Y-122170000D01*
X157466142Y-122134285D01*
X157430428Y-122098571D01*
X157394714Y-122027142D01*
X157394714Y-121741428D01*
X158144714Y-121741428D01*
X158144714Y-121991428D01*
X158109000Y-122062857D01*
X158073285Y-122098571D01*
X158001857Y-122134285D01*
X157930428Y-122134285D01*
X157859000Y-122098571D01*
X157823285Y-122062857D01*
X157787571Y-121991428D01*
X157787571Y-121741428D01*
X158073285Y-122455714D02*
X158109000Y-122491428D01*
X158144714Y-122562857D01*
X158144714Y-122741428D01*
X158109000Y-122812857D01*
X158073285Y-122848571D01*
X158001857Y-122884285D01*
X157930428Y-122884285D01*
X157823285Y-122848571D01*
X157394714Y-122420000D01*
X157394714Y-122884285D01*
X157394714Y-123531428D02*
X158144714Y-123531428D01*
X158144714Y-123817142D01*
X158109000Y-123888571D01*
X158073285Y-123924285D01*
X158001857Y-123960000D01*
X157894714Y-123960000D01*
X157823285Y-123924285D01*
X157787571Y-123888571D01*
X157751857Y-123817142D01*
X157751857Y-123531428D01*
X157787571Y-124531428D02*
X157751857Y-124638571D01*
X157716142Y-124674285D01*
X157644714Y-124710000D01*
X157537571Y-124710000D01*
X157466142Y-124674285D01*
X157430428Y-124638571D01*
X157394714Y-124567142D01*
X157394714Y-124281428D01*
X158144714Y-124281428D01*
X158144714Y-124531428D01*
X158109000Y-124602857D01*
X158073285Y-124638571D01*
X158001857Y-124674285D01*
X157930428Y-124674285D01*
X157859000Y-124638571D01*
X157823285Y-124602857D01*
X157787571Y-124531428D01*
X157787571Y-124281428D01*
X157394714Y-125424285D02*
X157394714Y-124995714D01*
X157394714Y-125210000D02*
X158144714Y-125210000D01*
X158037571Y-125138571D01*
X157966142Y-125067142D01*
X157930428Y-124995714D01*
X143678714Y-123531428D02*
X144428714Y-123531428D01*
X144428714Y-123817142D01*
X144393000Y-123888571D01*
X144357285Y-123924285D01*
X144285857Y-123960000D01*
X144178714Y-123960000D01*
X144107285Y-123924285D01*
X144071571Y-123888571D01*
X144035857Y-123817142D01*
X144035857Y-123531428D01*
X144071571Y-124531428D02*
X144035857Y-124638571D01*
X144000142Y-124674285D01*
X143928714Y-124710000D01*
X143821571Y-124710000D01*
X143750142Y-124674285D01*
X143714428Y-124638571D01*
X143678714Y-124567142D01*
X143678714Y-124281428D01*
X144428714Y-124281428D01*
X144428714Y-124531428D01*
X144393000Y-124602857D01*
X144357285Y-124638571D01*
X144285857Y-124674285D01*
X144214428Y-124674285D01*
X144143000Y-124638571D01*
X144107285Y-124602857D01*
X144071571Y-124531428D01*
X144071571Y-124281428D01*
X144428714Y-125174285D02*
X144428714Y-125245714D01*
X144393000Y-125317142D01*
X144357285Y-125352857D01*
X144285857Y-125388571D01*
X144143000Y-125424285D01*
X143964428Y-125424285D01*
X143821571Y-125388571D01*
X143750142Y-125352857D01*
X143714428Y-125317142D01*
X143678714Y-125245714D01*
X143678714Y-125174285D01*
X143714428Y-125102857D01*
X143750142Y-125067142D01*
X143821571Y-125031428D01*
X143964428Y-124995714D01*
X144143000Y-124995714D01*
X144285857Y-125031428D01*
X144357285Y-125067142D01*
X144393000Y-125102857D01*
X144428714Y-125174285D01*
X143678714Y-120991428D02*
X144428714Y-120991428D01*
X144428714Y-121277142D01*
X144393000Y-121348571D01*
X144357285Y-121384285D01*
X144285857Y-121420000D01*
X144178714Y-121420000D01*
X144107285Y-121384285D01*
X144071571Y-121348571D01*
X144035857Y-121277142D01*
X144035857Y-120991428D01*
X143678714Y-121741428D02*
X144428714Y-121741428D01*
X144428714Y-121920000D01*
X144393000Y-122027142D01*
X144321571Y-122098571D01*
X144250142Y-122134285D01*
X144107285Y-122170000D01*
X144000142Y-122170000D01*
X143857285Y-122134285D01*
X143785857Y-122098571D01*
X143714428Y-122027142D01*
X143678714Y-121920000D01*
X143678714Y-121741428D01*
X144428714Y-122420000D02*
X144428714Y-122920000D01*
X143678714Y-122598571D01*
X143678714Y-118451428D02*
X144428714Y-118451428D01*
X144428714Y-118737142D01*
X144393000Y-118808571D01*
X144357285Y-118844285D01*
X144285857Y-118880000D01*
X144178714Y-118880000D01*
X144107285Y-118844285D01*
X144071571Y-118808571D01*
X144035857Y-118737142D01*
X144035857Y-118451428D01*
X143678714Y-119201428D02*
X144428714Y-119201428D01*
X144428714Y-119380000D01*
X144393000Y-119487142D01*
X144321571Y-119558571D01*
X144250142Y-119594285D01*
X144107285Y-119630000D01*
X144000142Y-119630000D01*
X143857285Y-119594285D01*
X143785857Y-119558571D01*
X143714428Y-119487142D01*
X143678714Y-119380000D01*
X143678714Y-119201428D01*
X144428714Y-120272857D02*
X144428714Y-120130000D01*
X144393000Y-120058571D01*
X144357285Y-120022857D01*
X144250142Y-119951428D01*
X144107285Y-119915714D01*
X143821571Y-119915714D01*
X143750142Y-119951428D01*
X143714428Y-119987142D01*
X143678714Y-120058571D01*
X143678714Y-120201428D01*
X143714428Y-120272857D01*
X143750142Y-120308571D01*
X143821571Y-120344285D01*
X144000142Y-120344285D01*
X144071571Y-120308571D01*
X144107285Y-120272857D01*
X144143000Y-120201428D01*
X144143000Y-120058571D01*
X144107285Y-119987142D01*
X144071571Y-119951428D01*
X144000142Y-119915714D01*
X143678714Y-115911428D02*
X144428714Y-115911428D01*
X144428714Y-116197142D01*
X144393000Y-116268571D01*
X144357285Y-116304285D01*
X144285857Y-116340000D01*
X144178714Y-116340000D01*
X144107285Y-116304285D01*
X144071571Y-116268571D01*
X144035857Y-116197142D01*
X144035857Y-115911428D01*
X143678714Y-116661428D02*
X144428714Y-116661428D01*
X144428714Y-116840000D01*
X144393000Y-116947142D01*
X144321571Y-117018571D01*
X144250142Y-117054285D01*
X144107285Y-117090000D01*
X144000142Y-117090000D01*
X143857285Y-117054285D01*
X143785857Y-117018571D01*
X143714428Y-116947142D01*
X143678714Y-116840000D01*
X143678714Y-116661428D01*
X144428714Y-117768571D02*
X144428714Y-117411428D01*
X144071571Y-117375714D01*
X144107285Y-117411428D01*
X144143000Y-117482857D01*
X144143000Y-117661428D01*
X144107285Y-117732857D01*
X144071571Y-117768571D01*
X144000142Y-117804285D01*
X143821571Y-117804285D01*
X143750142Y-117768571D01*
X143714428Y-117732857D01*
X143678714Y-117661428D01*
X143678714Y-117482857D01*
X143714428Y-117411428D01*
X143750142Y-117375714D01*
D14*
X145571714Y-113288095D02*
X144821714Y-113621428D01*
X145571714Y-113621428D02*
X144821714Y-113288095D01*
X145571714Y-113740476D02*
X145571714Y-114026190D01*
X144821714Y-113883333D02*
X145571714Y-113883333D01*
X145036000Y-114169047D02*
X145036000Y-114407142D01*
X144821714Y-114121428D02*
X145571714Y-114288095D01*
X144821714Y-114454761D01*
X144821714Y-114859523D02*
X144821714Y-114621428D01*
X145571714Y-114621428D01*
X145500285Y-115002380D02*
X145536000Y-115026190D01*
X145571714Y-115073809D01*
X145571714Y-115192857D01*
X145536000Y-115240476D01*
X145500285Y-115264285D01*
X145428857Y-115288095D01*
X145357428Y-115288095D01*
X145250285Y-115264285D01*
X144821714Y-114978571D01*
X144821714Y-115288095D01*
X145571714Y-110748095D02*
X144821714Y-111081428D01*
X145571714Y-111081428D02*
X144821714Y-110748095D01*
X145571714Y-111200476D02*
X145571714Y-111486190D01*
X144821714Y-111343333D02*
X145571714Y-111343333D01*
X145036000Y-111629047D02*
X145036000Y-111867142D01*
X144821714Y-111581428D02*
X145571714Y-111748095D01*
X144821714Y-111914761D01*
X144821714Y-112319523D02*
X144821714Y-112081428D01*
X145571714Y-112081428D01*
X144821714Y-112748095D02*
X144821714Y-112462380D01*
X144821714Y-112605238D02*
X145571714Y-112605238D01*
X145464571Y-112557619D01*
X145393142Y-112510000D01*
X145357428Y-112462380D01*
D13*
X143678714Y-113371428D02*
X144428714Y-113371428D01*
X144428714Y-113657142D01*
X144393000Y-113728571D01*
X144357285Y-113764285D01*
X144285857Y-113800000D01*
X144178714Y-113800000D01*
X144107285Y-113764285D01*
X144071571Y-113728571D01*
X144035857Y-113657142D01*
X144035857Y-113371428D01*
X144071571Y-114371428D02*
X144035857Y-114478571D01*
X144000142Y-114514285D01*
X143928714Y-114550000D01*
X143821571Y-114550000D01*
X143750142Y-114514285D01*
X143714428Y-114478571D01*
X143678714Y-114407142D01*
X143678714Y-114121428D01*
X144428714Y-114121428D01*
X144428714Y-114371428D01*
X144393000Y-114442857D01*
X144357285Y-114478571D01*
X144285857Y-114514285D01*
X144214428Y-114514285D01*
X144143000Y-114478571D01*
X144107285Y-114442857D01*
X144071571Y-114371428D01*
X144071571Y-114121428D01*
X144428714Y-114800000D02*
X144428714Y-115300000D01*
X143678714Y-114978571D01*
X143678714Y-110831428D02*
X144428714Y-110831428D01*
X144428714Y-111117142D01*
X144393000Y-111188571D01*
X144357285Y-111224285D01*
X144285857Y-111260000D01*
X144178714Y-111260000D01*
X144107285Y-111224285D01*
X144071571Y-111188571D01*
X144035857Y-111117142D01*
X144035857Y-110831428D01*
X144071571Y-111831428D02*
X144035857Y-111938571D01*
X144000142Y-111974285D01*
X143928714Y-112010000D01*
X143821571Y-112010000D01*
X143750142Y-111974285D01*
X143714428Y-111938571D01*
X143678714Y-111867142D01*
X143678714Y-111581428D01*
X144428714Y-111581428D01*
X144428714Y-111831428D01*
X144393000Y-111902857D01*
X144357285Y-111938571D01*
X144285857Y-111974285D01*
X144214428Y-111974285D01*
X144143000Y-111938571D01*
X144107285Y-111902857D01*
X144071571Y-111831428D01*
X144071571Y-111581428D01*
X144428714Y-112652857D02*
X144428714Y-112510000D01*
X144393000Y-112438571D01*
X144357285Y-112402857D01*
X144250142Y-112331428D01*
X144107285Y-112295714D01*
X143821571Y-112295714D01*
X143750142Y-112331428D01*
X143714428Y-112367142D01*
X143678714Y-112438571D01*
X143678714Y-112581428D01*
X143714428Y-112652857D01*
X143750142Y-112688571D01*
X143821571Y-112724285D01*
X144000142Y-112724285D01*
X144071571Y-112688571D01*
X144107285Y-112652857D01*
X144143000Y-112581428D01*
X144143000Y-112438571D01*
X144107285Y-112367142D01*
X144071571Y-112331428D01*
X144000142Y-112295714D01*
X144393000Y-108648571D02*
X144428714Y-108577142D01*
X144428714Y-108470000D01*
X144393000Y-108362857D01*
X144321571Y-108291428D01*
X144250142Y-108255714D01*
X144107285Y-108220000D01*
X144000142Y-108220000D01*
X143857285Y-108255714D01*
X143785857Y-108291428D01*
X143714428Y-108362857D01*
X143678714Y-108470000D01*
X143678714Y-108541428D01*
X143714428Y-108648571D01*
X143750142Y-108684285D01*
X144000142Y-108684285D01*
X144000142Y-108541428D01*
X143678714Y-109005714D02*
X144428714Y-109005714D01*
X143678714Y-109434285D01*
X144428714Y-109434285D01*
X143678714Y-109791428D02*
X144428714Y-109791428D01*
X144428714Y-109970000D01*
X144393000Y-110077142D01*
X144321571Y-110148571D01*
X144250142Y-110184285D01*
X144107285Y-110220000D01*
X144000142Y-110220000D01*
X143857285Y-110184285D01*
X143785857Y-110148571D01*
X143714428Y-110077142D01*
X143678714Y-109970000D01*
X143678714Y-109791428D01*
D12*
X157609000Y-110760000D02*
X157609000Y-111045714D01*
X157394714Y-110702857D02*
X158144714Y-110902857D01*
X157394714Y-111102857D01*
X158144714Y-111217142D02*
X157394714Y-111417142D01*
X158144714Y-111617142D01*
X157466142Y-112160000D02*
X157430428Y-112131428D01*
X157394714Y-112045714D01*
X157394714Y-111988571D01*
X157430428Y-111902857D01*
X157501857Y-111845714D01*
X157573285Y-111817142D01*
X157716142Y-111788571D01*
X157823285Y-111788571D01*
X157966142Y-111817142D01*
X158037571Y-111845714D01*
X158109000Y-111902857D01*
X158144714Y-111988571D01*
X158144714Y-112045714D01*
X158109000Y-112131428D01*
X158073285Y-112160000D01*
X157466142Y-112760000D02*
X157430428Y-112731428D01*
X157394714Y-112645714D01*
X157394714Y-112588571D01*
X157430428Y-112502857D01*
X157501857Y-112445714D01*
X157573285Y-112417142D01*
X157716142Y-112388571D01*
X157823285Y-112388571D01*
X157966142Y-112417142D01*
X158037571Y-112445714D01*
X158109000Y-112502857D01*
X158144714Y-112588571D01*
X158144714Y-112645714D01*
X158109000Y-112731428D01*
X158073285Y-112760000D01*
D13*
X143678714Y-103211428D02*
X144428714Y-103211428D01*
X144428714Y-103497142D01*
X144393000Y-103568571D01*
X144357285Y-103604285D01*
X144285857Y-103640000D01*
X144178714Y-103640000D01*
X144107285Y-103604285D01*
X144071571Y-103568571D01*
X144035857Y-103497142D01*
X144035857Y-103211428D01*
X143678714Y-103961428D02*
X144428714Y-103961428D01*
X144428714Y-104140000D01*
X144393000Y-104247142D01*
X144321571Y-104318571D01*
X144250142Y-104354285D01*
X144107285Y-104390000D01*
X144000142Y-104390000D01*
X143857285Y-104354285D01*
X143785857Y-104318571D01*
X143714428Y-104247142D01*
X143678714Y-104140000D01*
X143678714Y-103961428D01*
X144178714Y-105032857D02*
X143678714Y-105032857D01*
X144464428Y-104854285D02*
X143928714Y-104675714D01*
X143928714Y-105140000D01*
X143678714Y-100671428D02*
X144428714Y-100671428D01*
X144428714Y-100957142D01*
X144393000Y-101028571D01*
X144357285Y-101064285D01*
X144285857Y-101100000D01*
X144178714Y-101100000D01*
X144107285Y-101064285D01*
X144071571Y-101028571D01*
X144035857Y-100957142D01*
X144035857Y-100671428D01*
X143678714Y-101421428D02*
X144428714Y-101421428D01*
X144428714Y-101600000D01*
X144393000Y-101707142D01*
X144321571Y-101778571D01*
X144250142Y-101814285D01*
X144107285Y-101850000D01*
X144000142Y-101850000D01*
X143857285Y-101814285D01*
X143785857Y-101778571D01*
X143714428Y-101707142D01*
X143678714Y-101600000D01*
X143678714Y-101421428D01*
X144428714Y-102100000D02*
X144428714Y-102564285D01*
X144143000Y-102314285D01*
X144143000Y-102421428D01*
X144107285Y-102492857D01*
X144071571Y-102528571D01*
X144000142Y-102564285D01*
X143821571Y-102564285D01*
X143750142Y-102528571D01*
X143714428Y-102492857D01*
X143678714Y-102421428D01*
X143678714Y-102207142D01*
X143714428Y-102135714D01*
X143750142Y-102100000D01*
X143678714Y-98131428D02*
X144428714Y-98131428D01*
X144428714Y-98417142D01*
X144393000Y-98488571D01*
X144357285Y-98524285D01*
X144285857Y-98560000D01*
X144178714Y-98560000D01*
X144107285Y-98524285D01*
X144071571Y-98488571D01*
X144035857Y-98417142D01*
X144035857Y-98131428D01*
X143678714Y-98881428D02*
X144428714Y-98881428D01*
X144428714Y-99060000D01*
X144393000Y-99167142D01*
X144321571Y-99238571D01*
X144250142Y-99274285D01*
X144107285Y-99310000D01*
X144000142Y-99310000D01*
X143857285Y-99274285D01*
X143785857Y-99238571D01*
X143714428Y-99167142D01*
X143678714Y-99060000D01*
X143678714Y-98881428D01*
X144357285Y-99595714D02*
X144393000Y-99631428D01*
X144428714Y-99702857D01*
X144428714Y-99881428D01*
X144393000Y-99952857D01*
X144357285Y-99988571D01*
X144285857Y-100024285D01*
X144214428Y-100024285D01*
X144107285Y-99988571D01*
X143678714Y-99560000D01*
X143678714Y-100024285D01*
X145571714Y-95948571D02*
X145571714Y-96377142D01*
X144821714Y-96162857D02*
X145571714Y-96162857D01*
X145571714Y-96555714D02*
X144821714Y-97055714D01*
X145571714Y-97055714D02*
X144821714Y-96555714D01*
X144821714Y-93855000D02*
X145178857Y-93605000D01*
X144821714Y-93426428D02*
X145571714Y-93426428D01*
X145571714Y-93712142D01*
X145536000Y-93783571D01*
X145500285Y-93819285D01*
X145428857Y-93855000D01*
X145321714Y-93855000D01*
X145250285Y-93819285D01*
X145214571Y-93783571D01*
X145178857Y-93712142D01*
X145178857Y-93426428D01*
X145571714Y-94105000D02*
X144821714Y-94605000D01*
X145571714Y-94605000D02*
X144821714Y-94105000D01*
X143678714Y-95591428D02*
X144428714Y-95591428D01*
X144428714Y-95877142D01*
X144393000Y-95948571D01*
X144357285Y-95984285D01*
X144285857Y-96020000D01*
X144178714Y-96020000D01*
X144107285Y-95984285D01*
X144071571Y-95948571D01*
X144035857Y-95877142D01*
X144035857Y-95591428D01*
X143678714Y-96341428D02*
X144428714Y-96341428D01*
X144428714Y-96520000D01*
X144393000Y-96627142D01*
X144321571Y-96698571D01*
X144250142Y-96734285D01*
X144107285Y-96770000D01*
X144000142Y-96770000D01*
X143857285Y-96734285D01*
X143785857Y-96698571D01*
X143714428Y-96627142D01*
X143678714Y-96520000D01*
X143678714Y-96341428D01*
X143678714Y-97484285D02*
X143678714Y-97055714D01*
X143678714Y-97270000D02*
X144428714Y-97270000D01*
X144321571Y-97198571D01*
X144250142Y-97127142D01*
X144214428Y-97055714D01*
X143678714Y-93051428D02*
X144428714Y-93051428D01*
X144428714Y-93337142D01*
X144393000Y-93408571D01*
X144357285Y-93444285D01*
X144285857Y-93480000D01*
X144178714Y-93480000D01*
X144107285Y-93444285D01*
X144071571Y-93408571D01*
X144035857Y-93337142D01*
X144035857Y-93051428D01*
X143678714Y-93801428D02*
X144428714Y-93801428D01*
X144428714Y-93980000D01*
X144393000Y-94087142D01*
X144321571Y-94158571D01*
X144250142Y-94194285D01*
X144107285Y-94230000D01*
X144000142Y-94230000D01*
X143857285Y-94194285D01*
X143785857Y-94158571D01*
X143714428Y-94087142D01*
X143678714Y-93980000D01*
X143678714Y-93801428D01*
X144428714Y-94694285D02*
X144428714Y-94765714D01*
X144393000Y-94837142D01*
X144357285Y-94872857D01*
X144285857Y-94908571D01*
X144143000Y-94944285D01*
X143964428Y-94944285D01*
X143821571Y-94908571D01*
X143750142Y-94872857D01*
X143714428Y-94837142D01*
X143678714Y-94765714D01*
X143678714Y-94694285D01*
X143714428Y-94622857D01*
X143750142Y-94587142D01*
X143821571Y-94551428D01*
X143964428Y-94515714D01*
X144143000Y-94515714D01*
X144285857Y-94551428D01*
X144357285Y-94587142D01*
X144393000Y-94622857D01*
X144428714Y-94694285D01*
X144792000Y-90422142D02*
X144792000Y-91172142D01*
X143678714Y-91029285D02*
X144035857Y-90779285D01*
X143678714Y-90600714D02*
X144428714Y-90600714D01*
X144428714Y-90886428D01*
X144393000Y-90957857D01*
X144357285Y-90993571D01*
X144285857Y-91029285D01*
X144178714Y-91029285D01*
X144107285Y-90993571D01*
X144071571Y-90957857D01*
X144035857Y-90886428D01*
X144035857Y-90600714D01*
X144792000Y-91172142D02*
X144792000Y-91886428D01*
X143714428Y-91315000D02*
X143678714Y-91422142D01*
X143678714Y-91600714D01*
X143714428Y-91672142D01*
X143750142Y-91707857D01*
X143821571Y-91743571D01*
X143893000Y-91743571D01*
X143964428Y-91707857D01*
X144000142Y-91672142D01*
X144035857Y-91600714D01*
X144071571Y-91457857D01*
X144107285Y-91386428D01*
X144143000Y-91350714D01*
X144214428Y-91315000D01*
X144285857Y-91315000D01*
X144357285Y-91350714D01*
X144393000Y-91386428D01*
X144428714Y-91457857D01*
X144428714Y-91636428D01*
X144393000Y-91743571D01*
X144792000Y-91886428D02*
X144792000Y-92457857D01*
X144428714Y-91957857D02*
X144428714Y-92386428D01*
X143678714Y-92172142D02*
X144428714Y-92172142D01*
X158851619Y-88207904D02*
X158470666Y-88207904D01*
X158432571Y-88588857D01*
X158470666Y-88550761D01*
X158546857Y-88512666D01*
X158737333Y-88512666D01*
X158813523Y-88550761D01*
X158851619Y-88588857D01*
X158889714Y-88665047D01*
X158889714Y-88855523D01*
X158851619Y-88931714D01*
X158813523Y-88969809D01*
X158737333Y-89007904D01*
X158546857Y-89007904D01*
X158470666Y-88969809D01*
X158432571Y-88931714D01*
X159118285Y-88207904D02*
X159384952Y-89007904D01*
X159651619Y-88207904D01*
X155333809Y-88207904D02*
X155600476Y-89007904D01*
X155867142Y-88207904D01*
X156133809Y-89007904D02*
X156133809Y-88207904D01*
X156514761Y-89007904D02*
X156514761Y-88207904D01*
X156971904Y-89007904D01*
X156971904Y-88207904D01*
D12*
X160274000Y-83820000D02*
X154686000Y-83820000D01*
X160274000Y-89408000D02*
X160274000Y-83820000D01*
X154686000Y-89408000D02*
X160274000Y-89408000D01*
X154686000Y-87884000D02*
X154686000Y-89408000D01*
X154686000Y-83820000D02*
X154686000Y-87884000D01*
D11*
X157083142Y-127224285D02*
X156726000Y-127224285D01*
X156690285Y-127581428D01*
X156726000Y-127545714D01*
X156797428Y-127510000D01*
X156976000Y-127510000D01*
X157047428Y-127545714D01*
X157083142Y-127581428D01*
X157118857Y-127652857D01*
X157118857Y-127831428D01*
X157083142Y-127902857D01*
X157047428Y-127938571D01*
X156976000Y-127974285D01*
X156797428Y-127974285D01*
X156726000Y-127938571D01*
X156690285Y-127902857D01*
X157333142Y-127224285D02*
X157583142Y-127974285D01*
X157833142Y-127224285D01*
X159194571Y-127974285D02*
X159194571Y-127224285D01*
X159373142Y-127224285D01*
X159480285Y-127260000D01*
X159551714Y-127331428D01*
X159587428Y-127402857D01*
X159623142Y-127545714D01*
X159623142Y-127652857D01*
X159587428Y-127795714D01*
X159551714Y-127867142D01*
X159480285Y-127938571D01*
X159373142Y-127974285D01*
X159194571Y-127974285D01*
X160373142Y-127902857D02*
X160337428Y-127938571D01*
X160230285Y-127974285D01*
X160158857Y-127974285D01*
X160051714Y-127938571D01*
X159980285Y-127867142D01*
X159944571Y-127795714D01*
X159908857Y-127652857D01*
X159908857Y-127545714D01*
X159944571Y-127402857D01*
X159980285Y-127331428D01*
X160051714Y-127260000D01*
X160158857Y-127224285D01*
X160230285Y-127224285D01*
X160337428Y-127260000D01*
X160373142Y-127295714D01*
X153953857Y-127581428D02*
X153703857Y-127581428D01*
X153703857Y-127974285D02*
X153703857Y-127224285D01*
X154061000Y-127224285D01*
X154239571Y-127224285D02*
X154668142Y-127224285D01*
X154453857Y-127974285D02*
X154453857Y-127224285D01*
X154918142Y-127974285D02*
X154918142Y-127224285D01*
X155096714Y-127224285D01*
X155203857Y-127260000D01*
X155275285Y-127331428D01*
X155311000Y-127402857D01*
X155346714Y-127545714D01*
X155346714Y-127652857D01*
X155311000Y-127795714D01*
X155275285Y-127867142D01*
X155203857Y-127938571D01*
X155096714Y-127974285D01*
X154918142Y-127974285D01*
X155668142Y-127974285D02*
X155668142Y-127224285D01*
X143418857Y-127974285D02*
X143418857Y-127224285D01*
X144204571Y-127902857D02*
X144168857Y-127938571D01*
X144061714Y-127974285D01*
X143990285Y-127974285D01*
X143883142Y-127938571D01*
X143811714Y-127867142D01*
X143776000Y-127795714D01*
X143740285Y-127652857D01*
X143740285Y-127545714D01*
X143776000Y-127402857D01*
X143811714Y-127331428D01*
X143883142Y-127260000D01*
X143990285Y-127224285D01*
X144061714Y-127224285D01*
X144168857Y-127260000D01*
X144204571Y-127295714D01*
X144490285Y-127938571D02*
X144597428Y-127974285D01*
X144776000Y-127974285D01*
X144847428Y-127938571D01*
X144883142Y-127902857D01*
X144918857Y-127831428D01*
X144918857Y-127760000D01*
X144883142Y-127688571D01*
X144847428Y-127652857D01*
X144776000Y-127617142D01*
X144633142Y-127581428D01*
X144561714Y-127545714D01*
X144526000Y-127510000D01*
X144490285Y-127438571D01*
X144490285Y-127367142D01*
X144526000Y-127295714D01*
X144561714Y-127260000D01*
X144633142Y-127224285D01*
X144811714Y-127224285D01*
X144918857Y-127260000D01*
X145240285Y-127974285D02*
X145240285Y-127224285D01*
X145526000Y-127224285D01*
X145597428Y-127260000D01*
X145633142Y-127295714D01*
X145668857Y-127367142D01*
X145668857Y-127474285D01*
X145633142Y-127545714D01*
X145597428Y-127581428D01*
X145526000Y-127617142D01*
X145240285Y-127617142D01*
X156759714Y-133276714D02*
X157116857Y-133026714D01*
X156759714Y-132848142D02*
X157509714Y-132848142D01*
X157509714Y-133133857D01*
X157474000Y-133205285D01*
X157438285Y-133241000D01*
X157366857Y-133276714D01*
X157259714Y-133276714D01*
X157188285Y-133241000D01*
X157152571Y-133205285D01*
X157116857Y-133133857D01*
X157116857Y-132848142D01*
X157152571Y-133598142D02*
X157152571Y-133848142D01*
X156759714Y-133955285D02*
X156759714Y-133598142D01*
X157509714Y-133598142D01*
X157509714Y-133955285D01*
X156795428Y-134241000D02*
X156759714Y-134348142D01*
X156759714Y-134526714D01*
X156795428Y-134598142D01*
X156831142Y-134633857D01*
X156902571Y-134669571D01*
X156974000Y-134669571D01*
X157045428Y-134633857D01*
X157081142Y-134598142D01*
X157116857Y-134526714D01*
X157152571Y-134383857D01*
X157188285Y-134312428D01*
X157224000Y-134276714D01*
X157295428Y-134241000D01*
X157366857Y-134241000D01*
X157438285Y-134276714D01*
X157474000Y-134312428D01*
X157509714Y-134383857D01*
X157509714Y-134562428D01*
X157474000Y-134669571D01*
X157152571Y-134991000D02*
X157152571Y-135241000D01*
X156759714Y-135348142D02*
X156759714Y-134991000D01*
X157509714Y-134991000D01*
X157509714Y-135348142D01*
X157509714Y-135562428D02*
X157509714Y-135991000D01*
X156759714Y-135776714D02*
X157509714Y-135776714D01*
D12*
X152146000Y-126746000D02*
X149606000Y-126746000D01*
X152146000Y-131064000D02*
X152146000Y-126746000D01*
X149606000Y-131064000D02*
X152146000Y-131064000D01*
X149606000Y-126746000D02*
X149606000Y-131064000D01*
D11*
X144115285Y-141309285D02*
X143865285Y-140952142D01*
X143686714Y-141309285D02*
X143686714Y-140559285D01*
X143972428Y-140559285D01*
X144043857Y-140595000D01*
X144079571Y-140630714D01*
X144115285Y-140702142D01*
X144115285Y-140809285D01*
X144079571Y-140880714D01*
X144043857Y-140916428D01*
X143972428Y-140952142D01*
X143686714Y-140952142D01*
X144329571Y-140559285D02*
X144758142Y-140559285D01*
X144543857Y-141309285D02*
X144543857Y-140559285D01*
X144972428Y-141273571D02*
X145079571Y-141309285D01*
X145258142Y-141309285D01*
X145329571Y-141273571D01*
X145365285Y-141237857D01*
X145401000Y-141166428D01*
X145401000Y-141095000D01*
X145365285Y-141023571D01*
X145329571Y-140987857D01*
X145258142Y-140952142D01*
X145115285Y-140916428D01*
X145043857Y-140880714D01*
X145008142Y-140845000D01*
X144972428Y-140773571D01*
X144972428Y-140702142D01*
X145008142Y-140630714D01*
X145043857Y-140595000D01*
X145115285Y-140559285D01*
X145293857Y-140559285D01*
X145401000Y-140595000D01*
X146941000Y-141309285D02*
X146691000Y-140952142D01*
X146512428Y-141309285D02*
X146512428Y-140559285D01*
X146798142Y-140559285D01*
X146869571Y-140595000D01*
X146905285Y-140630714D01*
X146941000Y-140702142D01*
X146941000Y-140809285D01*
X146905285Y-140880714D01*
X146869571Y-140916428D01*
X146798142Y-140952142D01*
X146512428Y-140952142D01*
X147191000Y-140559285D02*
X147691000Y-141309285D01*
X147691000Y-140559285D02*
X147191000Y-141309285D01*
X149034571Y-140559285D02*
X149463142Y-140559285D01*
X149248857Y-141309285D02*
X149248857Y-140559285D01*
X149641714Y-140559285D02*
X150141714Y-141309285D01*
X150141714Y-140559285D02*
X149641714Y-141309285D01*
X156654571Y-140595000D02*
X156583142Y-140559285D01*
X156476000Y-140559285D01*
X156368857Y-140595000D01*
X156297428Y-140666428D01*
X156261714Y-140737857D01*
X156226000Y-140880714D01*
X156226000Y-140987857D01*
X156261714Y-141130714D01*
X156297428Y-141202142D01*
X156368857Y-141273571D01*
X156476000Y-141309285D01*
X156547428Y-141309285D01*
X156654571Y-141273571D01*
X156690285Y-141237857D01*
X156690285Y-140987857D01*
X156547428Y-140987857D01*
X157011714Y-141309285D02*
X157011714Y-140559285D01*
X157440285Y-141309285D01*
X157440285Y-140559285D01*
X157797428Y-141309285D02*
X157797428Y-140559285D01*
X157976000Y-140559285D01*
X158083142Y-140595000D01*
X158154571Y-140666428D01*
X158190285Y-140737857D01*
X158226000Y-140880714D01*
X158226000Y-140987857D01*
X158190285Y-141130714D01*
X158154571Y-141202142D01*
X158083142Y-141273571D01*
X157976000Y-141309285D01*
X157797428Y-141309285D01*
X154275285Y-141237857D02*
X154239571Y-141273571D01*
X154132428Y-141309285D01*
X154061000Y-141309285D01*
X153953857Y-141273571D01*
X153882428Y-141202142D01*
X153846714Y-141130714D01*
X153811000Y-140987857D01*
X153811000Y-140880714D01*
X153846714Y-140737857D01*
X153882428Y-140666428D01*
X153953857Y-140595000D01*
X154061000Y-140559285D01*
X154132428Y-140559285D01*
X154239571Y-140595000D01*
X154275285Y-140630714D01*
X154489571Y-140559285D02*
X154918142Y-140559285D01*
X154703857Y-141309285D02*
X154703857Y-140559285D01*
X155132428Y-141273571D02*
X155239571Y-141309285D01*
X155418142Y-141309285D01*
X155489571Y-141273571D01*
X155525285Y-141237857D01*
X155561000Y-141166428D01*
X155561000Y-141095000D01*
X155525285Y-141023571D01*
X155489571Y-140987857D01*
X155418142Y-140952142D01*
X155275285Y-140916428D01*
X155203857Y-140880714D01*
X155168142Y-140845000D01*
X155132428Y-140773571D01*
X155132428Y-140702142D01*
X155168142Y-140630714D01*
X155203857Y-140595000D01*
X155275285Y-140559285D01*
X155453857Y-140559285D01*
X155561000Y-140595000D01*
X151146000Y-140559285D02*
X151396000Y-141309285D01*
X151646000Y-140559285D01*
X152324571Y-141237857D02*
X152288857Y-141273571D01*
X152181714Y-141309285D01*
X152110285Y-141309285D01*
X152003142Y-141273571D01*
X151931714Y-141202142D01*
X151896000Y-141130714D01*
X151860285Y-140987857D01*
X151860285Y-140880714D01*
X151896000Y-140737857D01*
X151931714Y-140666428D01*
X152003142Y-140595000D01*
X152110285Y-140559285D01*
X152181714Y-140559285D01*
X152288857Y-140595000D01*
X152324571Y-140630714D01*
X153074571Y-141237857D02*
X153038857Y-141273571D01*
X152931714Y-141309285D01*
X152860285Y-141309285D01*
X152753142Y-141273571D01*
X152681714Y-141202142D01*
X152646000Y-141130714D01*
X152610285Y-140987857D01*
X152610285Y-140880714D01*
X152646000Y-140737857D01*
X152681714Y-140666428D01*
X152753142Y-140595000D01*
X152860285Y-140559285D01*
X152931714Y-140559285D01*
X153038857Y-140595000D01*
X153074571Y-140630714D01*
D15*
G04 #@! TO.C,J1*
X161191000Y-78878000D02*
X158591000Y-78878000D01*
X161191000Y-64178000D02*
X161191000Y-78878000D01*
X151991000Y-78878000D02*
X151991000Y-76978000D01*
X154691000Y-78878000D02*
X151991000Y-78878000D01*
X151991000Y-64178000D02*
X161191000Y-64178000D01*
X151991000Y-72978000D02*
X151991000Y-64178000D01*
X161391000Y-78028000D02*
X161391000Y-79078000D01*
X160341000Y-79078000D02*
X161391000Y-79078000D01*
G04 #@! TO.C,J5*
X148396000Y-128210000D02*
X148396000Y-129540000D01*
X147066000Y-128210000D02*
X148396000Y-128210000D01*
X148396000Y-130810000D02*
X148396000Y-133410000D01*
X145796000Y-130810000D02*
X148396000Y-130810000D01*
X145796000Y-128210000D02*
X145796000Y-130810000D01*
X148396000Y-133410000D02*
X140656000Y-133410000D01*
X145796000Y-128210000D02*
X140656000Y-128210000D01*
X140656000Y-128210000D02*
X140656000Y-133410000D01*
G04 #@! TO.C,SW1*
X156122000Y-138215000D02*
X156122000Y-133715000D01*
X152122000Y-139465000D02*
X153622000Y-139465000D01*
X149622000Y-133715000D02*
X149622000Y-138215000D01*
X153622000Y-132465000D02*
X152122000Y-132465000D01*
G04 #@! TO.C,J4*
X161096000Y-128210000D02*
X161096000Y-129540000D01*
X159766000Y-128210000D02*
X161096000Y-128210000D01*
X158496000Y-128210000D02*
X158496000Y-130870000D01*
X158496000Y-130870000D02*
X153356000Y-130870000D01*
X158496000Y-128210000D02*
X153356000Y-128210000D01*
X153356000Y-128210000D02*
X153356000Y-130870000D01*
G04 #@! TO.C,J8*
X161096000Y-80458000D02*
X161096000Y-81788000D01*
X159766000Y-80458000D02*
X161096000Y-80458000D01*
X158496000Y-80458000D02*
X158496000Y-83118000D01*
X158496000Y-83118000D02*
X150816000Y-83118000D01*
X158496000Y-80458000D02*
X150816000Y-80458000D01*
X150816000Y-80458000D02*
X150816000Y-83118000D01*
G04 #@! TO.C,J6*
X158556000Y-141545000D02*
X158556000Y-142875000D01*
X157226000Y-141545000D02*
X158556000Y-141545000D01*
X155956000Y-141545000D02*
X155956000Y-144205000D01*
X155956000Y-144205000D02*
X143196000Y-144205000D01*
X155956000Y-141545000D02*
X143196000Y-141545000D01*
X143196000Y-141545000D02*
X143196000Y-144205000D01*
G04 #@! TO.C,U1*
X147936000Y-74640000D02*
X147936000Y-80650000D01*
X141116000Y-76890000D02*
X141116000Y-80650000D01*
X147936000Y-80650000D02*
X146676000Y-80650000D01*
X141116000Y-80650000D02*
X142376000Y-80650000D01*
G04 #@! TO.C,D2*
X140888000Y-69978000D02*
X147788000Y-69978000D01*
X140888000Y-73278000D02*
X147788000Y-73278000D01*
X140888000Y-69978000D02*
X140888000Y-73278000D01*
G04 #@! TO.C,D3*
X156916000Y-87712000D02*
X156916000Y-84852000D01*
X154996000Y-87712000D02*
X156916000Y-87712000D01*
X154996000Y-84852000D02*
X154996000Y-87712000D01*
G04 #@! TO.C,D4*
X158044000Y-84852000D02*
X158044000Y-87712000D01*
X158044000Y-87712000D02*
X159964000Y-87712000D01*
X159964000Y-87712000D02*
X159964000Y-84852000D01*
G04 #@! TO.C,D5*
X151836000Y-130765000D02*
X151836000Y-127905000D01*
X149916000Y-130765000D02*
X151836000Y-130765000D01*
X149916000Y-127905000D02*
X149916000Y-130765000D01*
G04 #@! TO.C,J3*
X140656000Y-92710000D02*
X143316000Y-92710000D01*
X140656000Y-92710000D02*
X140656000Y-125790000D01*
X140656000Y-125790000D02*
X143316000Y-125790000D01*
X143316000Y-92710000D02*
X143316000Y-125790000D01*
X143316000Y-90110000D02*
X143316000Y-91440000D01*
X141986000Y-90110000D02*
X143316000Y-90110000D01*
G04 #@! TO.C,J7*
X159766000Y-125790000D02*
X158436000Y-125790000D01*
X158436000Y-125790000D02*
X158436000Y-124460000D01*
X158436000Y-123190000D02*
X158436000Y-90110000D01*
X161096000Y-90110000D02*
X158436000Y-90110000D01*
X161096000Y-123190000D02*
X161096000Y-90110000D01*
X161096000Y-123190000D02*
X158436000Y-123190000D01*
G04 #@! TO.C,J2*
X150936000Y-64710000D02*
X150936000Y-66040000D01*
X149606000Y-64710000D02*
X150936000Y-64710000D01*
X148336000Y-64710000D02*
X148336000Y-67370000D01*
X148336000Y-67370000D02*
X145736000Y-67370000D01*
X148336000Y-64710000D02*
X145736000Y-64710000D01*
X145736000Y-64710000D02*
X145736000Y-67370000D01*
G04 #@! TO.C,U3*
X153526000Y-90110000D02*
X151876000Y-90110000D01*
X153526000Y-125790000D02*
X153526000Y-90110000D01*
X148226000Y-125790000D02*
X153526000Y-125790000D01*
X148226000Y-90110000D02*
X148226000Y-125790000D01*
X149876000Y-90110000D02*
X148226000Y-90110000D01*
X151876000Y-90110000D02*
G75*
G02X149876000Y-90110000I-1000000J0D01*
G01*
G04 #@! TO.C,Y1*
X150166000Y-89139000D02*
G75*
G03X150166000Y-84089000I0J2525000D01*
G01*
X143766000Y-89139000D02*
G75*
G02X143766000Y-84089000I0J2525000D01*
G01*
X143766000Y-89139000D02*
X150166000Y-89139000D01*
X143766000Y-84089000D02*
X150166000Y-84089000D01*
G04 #@! TO.C,D1*
X148201000Y-138723500D02*
X148201000Y-134663500D01*
X148201000Y-134663500D02*
X145931000Y-134663500D01*
X145931000Y-134663500D02*
X145931000Y-138723500D01*
G04 #@! TO.C,J1*
D16*
X151794714Y-71886000D02*
X151259000Y-71886000D01*
X151151857Y-71850285D01*
X151080428Y-71778857D01*
X151044714Y-71671714D01*
X151044714Y-71600285D01*
X151044714Y-72636000D02*
X151044714Y-72207428D01*
X151044714Y-72421714D02*
X151794714Y-72421714D01*
X151687571Y-72350285D01*
X151616142Y-72278857D01*
X151580428Y-72207428D01*
G04 #@! TO.C,J5*
X141634714Y-134116000D02*
X141099000Y-134116000D01*
X140991857Y-134080285D01*
X140920428Y-134008857D01*
X140884714Y-133901714D01*
X140884714Y-133830285D01*
X141634714Y-134830285D02*
X141634714Y-134473142D01*
X141277571Y-134437428D01*
X141313285Y-134473142D01*
X141349000Y-134544571D01*
X141349000Y-134723142D01*
X141313285Y-134794571D01*
X141277571Y-134830285D01*
X141206142Y-134866000D01*
X141027571Y-134866000D01*
X140956142Y-134830285D01*
X140920428Y-134794571D01*
X140884714Y-134723142D01*
X140884714Y-134544571D01*
X140920428Y-134473142D01*
X140956142Y-134437428D01*
G04 #@! TO.C,SW1*
X148667428Y-135040000D02*
X148631714Y-135147142D01*
X148631714Y-135325714D01*
X148667428Y-135397142D01*
X148703142Y-135432857D01*
X148774571Y-135468571D01*
X148846000Y-135468571D01*
X148917428Y-135432857D01*
X148953142Y-135397142D01*
X148988857Y-135325714D01*
X149024571Y-135182857D01*
X149060285Y-135111428D01*
X149096000Y-135075714D01*
X149167428Y-135040000D01*
X149238857Y-135040000D01*
X149310285Y-135075714D01*
X149346000Y-135111428D01*
X149381714Y-135182857D01*
X149381714Y-135361428D01*
X149346000Y-135468571D01*
X149381714Y-135718571D02*
X148631714Y-135897142D01*
X149167428Y-136040000D01*
X148631714Y-136182857D01*
X149381714Y-136361428D01*
X148631714Y-137040000D02*
X148631714Y-136611428D01*
X148631714Y-136825714D02*
X149381714Y-136825714D01*
X149274571Y-136754285D01*
X149203142Y-136682857D01*
X149167428Y-136611428D01*
G04 #@! TO.C,J4*
X153928000Y-126081285D02*
X153928000Y-126617000D01*
X153892285Y-126724142D01*
X153820857Y-126795571D01*
X153713714Y-126831285D01*
X153642285Y-126831285D01*
X154606571Y-126331285D02*
X154606571Y-126831285D01*
X154428000Y-126045571D02*
X154249428Y-126581285D01*
X154713714Y-126581285D01*
G04 #@! TO.C,J8*
X153039000Y-83409285D02*
X153039000Y-83945000D01*
X153003285Y-84052142D01*
X152931857Y-84123571D01*
X152824714Y-84159285D01*
X152753285Y-84159285D01*
X153503285Y-83730714D02*
X153431857Y-83695000D01*
X153396142Y-83659285D01*
X153360428Y-83587857D01*
X153360428Y-83552142D01*
X153396142Y-83480714D01*
X153431857Y-83445000D01*
X153503285Y-83409285D01*
X153646142Y-83409285D01*
X153717571Y-83445000D01*
X153753285Y-83480714D01*
X153789000Y-83552142D01*
X153789000Y-83587857D01*
X153753285Y-83659285D01*
X153717571Y-83695000D01*
X153646142Y-83730714D01*
X153503285Y-83730714D01*
X153431857Y-83766428D01*
X153396142Y-83802142D01*
X153360428Y-83873571D01*
X153360428Y-84016428D01*
X153396142Y-84087857D01*
X153431857Y-84123571D01*
X153503285Y-84159285D01*
X153646142Y-84159285D01*
X153717571Y-84123571D01*
X153753285Y-84087857D01*
X153789000Y-84016428D01*
X153789000Y-83873571D01*
X153753285Y-83802142D01*
X153717571Y-83766428D01*
X153646142Y-83730714D01*
G04 #@! TO.C,J6*
X159966714Y-142625000D02*
X159431000Y-142625000D01*
X159323857Y-142589285D01*
X159252428Y-142517857D01*
X159216714Y-142410714D01*
X159216714Y-142339285D01*
X159966714Y-143303571D02*
X159966714Y-143160714D01*
X159931000Y-143089285D01*
X159895285Y-143053571D01*
X159788142Y-142982142D01*
X159645285Y-142946428D01*
X159359571Y-142946428D01*
X159288142Y-142982142D01*
X159252428Y-143017857D01*
X159216714Y-143089285D01*
X159216714Y-143232142D01*
X159252428Y-143303571D01*
X159288142Y-143339285D01*
X159359571Y-143375000D01*
X159538142Y-143375000D01*
X159609571Y-143339285D01*
X159645285Y-143303571D01*
X159681000Y-143232142D01*
X159681000Y-143089285D01*
X159645285Y-143017857D01*
X159609571Y-142982142D01*
X159538142Y-142946428D01*
G04 #@! TO.C,U1*
X149000714Y-78041571D02*
X148393571Y-78041571D01*
X148322142Y-78077285D01*
X148286428Y-78113000D01*
X148250714Y-78184428D01*
X148250714Y-78327285D01*
X148286428Y-78398714D01*
X148322142Y-78434428D01*
X148393571Y-78470142D01*
X149000714Y-78470142D01*
X148250714Y-79220142D02*
X148250714Y-78791571D01*
X148250714Y-79005857D02*
X149000714Y-79005857D01*
X148893571Y-78934428D01*
X148822142Y-78863000D01*
X148786428Y-78791571D01*
G04 #@! TO.C,D2*
X144734428Y-69681285D02*
X144734428Y-68931285D01*
X144913000Y-68931285D01*
X145020142Y-68967000D01*
X145091571Y-69038428D01*
X145127285Y-69109857D01*
X145163000Y-69252714D01*
X145163000Y-69359857D01*
X145127285Y-69502714D01*
X145091571Y-69574142D01*
X145020142Y-69645571D01*
X144913000Y-69681285D01*
X144734428Y-69681285D01*
X145448714Y-69002714D02*
X145484428Y-68967000D01*
X145555857Y-68931285D01*
X145734428Y-68931285D01*
X145805857Y-68967000D01*
X145841571Y-69002714D01*
X145877285Y-69074142D01*
X145877285Y-69145571D01*
X145841571Y-69252714D01*
X145413000Y-69681285D01*
X145877285Y-69681285D01*
G04 #@! TO.C,D3*
X153711714Y-85298428D02*
X154461714Y-85298428D01*
X154461714Y-85477000D01*
X154426000Y-85584142D01*
X154354571Y-85655571D01*
X154283142Y-85691285D01*
X154140285Y-85727000D01*
X154033142Y-85727000D01*
X153890285Y-85691285D01*
X153818857Y-85655571D01*
X153747428Y-85584142D01*
X153711714Y-85477000D01*
X153711714Y-85298428D01*
X154461714Y-85977000D02*
X154461714Y-86441285D01*
X154176000Y-86191285D01*
X154176000Y-86298428D01*
X154140285Y-86369857D01*
X154104571Y-86405571D01*
X154033142Y-86441285D01*
X153854571Y-86441285D01*
X153783142Y-86405571D01*
X153747428Y-86369857D01*
X153711714Y-86298428D01*
X153711714Y-86084142D01*
X153747428Y-86012714D01*
X153783142Y-85977000D01*
G04 #@! TO.C,D4*
X160506214Y-85298428D02*
X161256214Y-85298428D01*
X161256214Y-85477000D01*
X161220500Y-85584142D01*
X161149071Y-85655571D01*
X161077642Y-85691285D01*
X160934785Y-85727000D01*
X160827642Y-85727000D01*
X160684785Y-85691285D01*
X160613357Y-85655571D01*
X160541928Y-85584142D01*
X160506214Y-85477000D01*
X160506214Y-85298428D01*
X161006214Y-86369857D02*
X160506214Y-86369857D01*
X161291928Y-86191285D02*
X160756214Y-86012714D01*
X160756214Y-86477000D01*
G04 #@! TO.C,D5*
X148631714Y-126192428D02*
X149381714Y-126192428D01*
X149381714Y-126371000D01*
X149346000Y-126478142D01*
X149274571Y-126549571D01*
X149203142Y-126585285D01*
X149060285Y-126621000D01*
X148953142Y-126621000D01*
X148810285Y-126585285D01*
X148738857Y-126549571D01*
X148667428Y-126478142D01*
X148631714Y-126371000D01*
X148631714Y-126192428D01*
X149381714Y-127299571D02*
X149381714Y-126942428D01*
X149024571Y-126906714D01*
X149060285Y-126942428D01*
X149096000Y-127013857D01*
X149096000Y-127192428D01*
X149060285Y-127263857D01*
X149024571Y-127299571D01*
X148953142Y-127335285D01*
X148774571Y-127335285D01*
X148703142Y-127299571D01*
X148667428Y-127263857D01*
X148631714Y-127192428D01*
X148631714Y-127013857D01*
X148667428Y-126942428D01*
X148703142Y-126906714D01*
G04 #@! TO.C,J3*
X141736000Y-126081285D02*
X141736000Y-126617000D01*
X141700285Y-126724142D01*
X141628857Y-126795571D01*
X141521714Y-126831285D01*
X141450285Y-126831285D01*
X142021714Y-126081285D02*
X142486000Y-126081285D01*
X142236000Y-126367000D01*
X142343142Y-126367000D01*
X142414571Y-126402714D01*
X142450285Y-126438428D01*
X142486000Y-126509857D01*
X142486000Y-126688428D01*
X142450285Y-126759857D01*
X142414571Y-126795571D01*
X142343142Y-126831285D01*
X142128857Y-126831285D01*
X142057428Y-126795571D01*
X142021714Y-126759857D01*
G04 #@! TO.C,J7*
X159516000Y-126081285D02*
X159516000Y-126617000D01*
X159480285Y-126724142D01*
X159408857Y-126795571D01*
X159301714Y-126831285D01*
X159230285Y-126831285D01*
X159801714Y-126081285D02*
X160301714Y-126081285D01*
X159980285Y-126831285D01*
G04 #@! TO.C,J2*
X145444714Y-65028000D02*
X144909000Y-65028000D01*
X144801857Y-64992285D01*
X144730428Y-64920857D01*
X144694714Y-64813714D01*
X144694714Y-64742285D01*
X145373285Y-65349428D02*
X145409000Y-65385142D01*
X145444714Y-65456571D01*
X145444714Y-65635142D01*
X145409000Y-65706571D01*
X145373285Y-65742285D01*
X145301857Y-65778000D01*
X145230428Y-65778000D01*
X145123285Y-65742285D01*
X144694714Y-65313714D01*
X144694714Y-65778000D01*
G04 #@! TO.C,U3*
X152082571Y-88870285D02*
X152082571Y-89477428D01*
X152118285Y-89548857D01*
X152154000Y-89584571D01*
X152225428Y-89620285D01*
X152368285Y-89620285D01*
X152439714Y-89584571D01*
X152475428Y-89548857D01*
X152511142Y-89477428D01*
X152511142Y-88870285D01*
X152796857Y-88870285D02*
X153261142Y-88870285D01*
X153011142Y-89156000D01*
X153118285Y-89156000D01*
X153189714Y-89191714D01*
X153225428Y-89227428D01*
X153261142Y-89298857D01*
X153261142Y-89477428D01*
X153225428Y-89548857D01*
X153189714Y-89584571D01*
X153118285Y-89620285D01*
X152904000Y-89620285D01*
X152832571Y-89584571D01*
X152796857Y-89548857D01*
G04 #@! TO.C,Y1*
X141184357Y-89263142D02*
X141184357Y-89620285D01*
X140934357Y-88870285D02*
X141184357Y-89263142D01*
X141434357Y-88870285D01*
X142077214Y-89620285D02*
X141648642Y-89620285D01*
X141862928Y-89620285D02*
X141862928Y-88870285D01*
X141791500Y-88977428D01*
X141720071Y-89048857D01*
X141648642Y-89084571D01*
G04 #@! TO.C,D1*
X144821714Y-134828428D02*
X145571714Y-134828428D01*
X145571714Y-135007000D01*
X145536000Y-135114142D01*
X145464571Y-135185571D01*
X145393142Y-135221285D01*
X145250285Y-135257000D01*
X145143142Y-135257000D01*
X145000285Y-135221285D01*
X144928857Y-135185571D01*
X144857428Y-135114142D01*
X144821714Y-135007000D01*
X144821714Y-134828428D01*
X144821714Y-135971285D02*
X144821714Y-135542714D01*
X144821714Y-135757000D02*
X145571714Y-135757000D01*
X145464571Y-135685571D01*
X145393142Y-135614142D01*
X145357428Y-135542714D01*
G04 #@! TD*
M02*
