M48
;DRILL file {KiCad (5.0.1)-3} date 11/10/2018 12:41:19 AM
;FORMAT={-:-/ absolute / inch / decimal}
FMAT,2
INCH,TZ
T1C0.0150
T2C0.0157
T3C0.0250
T4C0.0315
T5C0.0394
T6C0.0433
T7C0.1063
%
G90
G05
M72
T1
X5.6378Y-5.2722
X5.7443Y-5.5073
X5.875Y-3.855
X5.9782Y-5.1746
X6.115Y-5.4
X6.2Y-3.4
X6.2Y-3.44
X6.25Y-5.24
T2
X5.7175Y-3.5725
T3
X5.575Y-3.06
X5.5775Y-3.2925
X5.5996Y-2.9097
X5.79Y-3.06
X5.9304Y-4.3404
X5.94Y-3.55
T4
X5.79Y-3.6
X5.79Y-3.7
X5.79Y-3.8
X5.79Y-3.9
X5.79Y-4.
X5.79Y-4.1
X5.79Y-4.2
X5.79Y-4.3
X5.79Y-4.4
X5.79Y-4.5
X5.79Y-4.6
X5.79Y-4.7
X5.79Y-4.8
X5.79Y-4.9
X6.09Y-3.6
X6.09Y-3.7
X6.09Y-3.8
X6.09Y-3.9
X6.09Y-4.
X6.09Y-4.1
X6.09Y-4.2
X6.09Y-4.3
X6.09Y-4.4
X6.09Y-4.5
X6.09Y-4.6
X6.09Y-4.7
X6.09Y-4.8
X6.09Y-4.9
X5.69Y-3.41
X5.8821Y-3.41
T5
X6.09Y-5.1
X6.19Y-5.1
X6.29Y-5.1
X5.79Y-2.6
X5.89Y-2.6
X5.59Y-5.1
X5.59Y-5.2
X5.69Y-5.1
X5.69Y-5.2
X5.79Y-5.1
X5.79Y-5.2
X5.59Y-3.6
X5.59Y-3.7
X5.59Y-3.8
X5.59Y-3.9
X5.59Y-4.
X5.59Y-4.1
X5.59Y-4.2
X5.59Y-4.3
X5.59Y-4.4
X5.59Y-4.5
X5.59Y-4.6
X5.59Y-4.7
X5.59Y-4.8
X5.59Y-4.9
X5.69Y-5.625
X5.79Y-5.625
X5.89Y-5.625
X5.99Y-5.625
X6.09Y-5.625
X6.19Y-5.625
X5.99Y-3.22
X6.09Y-3.22
X6.19Y-3.22
X6.29Y-3.22
X6.29Y-3.6
X6.29Y-3.7
X6.29Y-3.8
X6.29Y-3.9
X6.29Y-4.
X6.29Y-4.1
X6.29Y-4.2
X6.29Y-4.3
X6.29Y-4.4
X6.29Y-4.5
X6.29Y-4.6
X6.29Y-4.7
X6.29Y-4.8
X6.29Y-4.9
T6
X5.93Y-5.225
X5.93Y-5.4809
X6.1072Y-5.225
X6.1072Y-5.4809
T7
X6.265Y-5.44
X5.615Y-2.625
X6.265Y-2.6257
X5.615Y-5.44
T5
X5.98Y-2.9125G85X5.98Y-2.9913
G05
X6.2044Y-2.8338G85X6.1256Y-2.8338
G05
X6.2044Y-3.07G85X6.1256Y-3.07
G05
T0
M30
