G04 #@! TF.GenerationSoftware,KiCad,Pcbnew,(5.0.0)*
G04 #@! TF.CreationDate,2018-09-25T17:42:14-07:00*
G04 #@! TF.ProjectId,firefly,66697265666C792E6B696361645F7063,A*
G04 #@! TF.SameCoordinates,Original*
G04 #@! TF.FileFunction,Soldermask,Top*
G04 #@! TF.FilePolarity,Negative*
%FSLAX46Y46*%
G04 Gerber Fmt 4.6, Leading zero omitted, Abs format (unit mm)*
G04 Created by KiCad (PCBNEW (5.0.0)) date 09/25/18 17:42:14*
%MOMM*%
%LPD*%
G01*
G04 APERTURE LIST*
%ADD10C,4.000000*%
%ADD11O,2.100000X2.100000*%
%ADD12R,2.100000X2.100000*%
%ADD13C,2.400000*%
%ADD14R,1.870000X1.670000*%
%ADD15R,1.900000X2.400000*%
%ADD16R,4.200000X2.400000*%
%ADD17R,3.900000X2.200000*%
%ADD18C,0.100000*%
%ADD19C,1.550000*%
%ADD20C,3.900000*%
%ADD21C,3.400000*%
%ADD22R,3.900000X3.900000*%
%ADD23O,2.000000X2.000000*%
%ADD24R,2.000000X2.000000*%
%ADD25C,1.900000*%
G04 APERTURE END LIST*
D10*
G04 #@! TO.C,REF\002A\002A*
X159131000Y-66693000D03*
G04 #@! TD*
D11*
G04 #@! TO.C,J8*
X141986000Y-132080000D03*
X141986000Y-129540000D03*
X144526000Y-132080000D03*
X144526000Y-129540000D03*
X147066000Y-132080000D03*
D12*
X147066000Y-129540000D03*
G04 #@! TD*
D10*
G04 #@! TO.C,REF\002A\002A*
X142621000Y-66675000D03*
G04 #@! TD*
G04 #@! TO.C,REF\002A\002A*
X159131000Y-138176000D03*
G04 #@! TD*
G04 #@! TO.C,REF\002A\002A*
X142621000Y-138176000D03*
G04 #@! TD*
D13*
G04 #@! TO.C,SW1*
X155122000Y-139215000D03*
X150622000Y-139215000D03*
X155122000Y-132715000D03*
X150622000Y-132715000D03*
G04 #@! TD*
D11*
G04 #@! TO.C,J6*
X154686000Y-129540000D03*
X157226000Y-129540000D03*
D12*
X159766000Y-129540000D03*
G04 #@! TD*
D11*
G04 #@! TO.C,J5*
X152146000Y-81788000D03*
X154686000Y-81788000D03*
X157226000Y-81788000D03*
D12*
X159766000Y-81788000D03*
G04 #@! TD*
D11*
G04 #@! TO.C,J7*
X144526000Y-142875000D03*
X147066000Y-142875000D03*
X149606000Y-142875000D03*
X152146000Y-142875000D03*
X154686000Y-142875000D03*
D12*
X157226000Y-142875000D03*
G04 #@! TD*
D14*
G04 #@! TO.C,D2*
X146558000Y-135225000D03*
X146558000Y-139095000D03*
G04 #@! TD*
D15*
G04 #@! TO.C,U1*
X146826000Y-75590000D03*
X142226000Y-75590000D03*
X144526000Y-75590000D03*
D16*
X144526000Y-81890000D03*
G04 #@! TD*
D17*
G04 #@! TO.C,D1*
X147788000Y-71628000D03*
X142788000Y-71628000D03*
G04 #@! TD*
D18*
G04 #@! TO.C,D3*
G36*
X156552071Y-84053623D02*
X156584781Y-84058475D01*
X156616857Y-84066509D01*
X156647991Y-84077649D01*
X156677884Y-84091787D01*
X156706247Y-84108787D01*
X156732807Y-84128485D01*
X156757308Y-84150692D01*
X156779515Y-84175193D01*
X156799213Y-84201753D01*
X156816213Y-84230116D01*
X156830351Y-84260009D01*
X156841491Y-84291143D01*
X156849525Y-84323219D01*
X156854377Y-84355929D01*
X156856000Y-84388956D01*
X156856000Y-85265044D01*
X156854377Y-85298071D01*
X156849525Y-85330781D01*
X156841491Y-85362857D01*
X156830351Y-85393991D01*
X156816213Y-85423884D01*
X156799213Y-85452247D01*
X156779515Y-85478807D01*
X156757308Y-85503308D01*
X156732807Y-85525515D01*
X156706247Y-85545213D01*
X156677884Y-85562213D01*
X156647991Y-85576351D01*
X156616857Y-85587491D01*
X156584781Y-85595525D01*
X156552071Y-85600377D01*
X156519044Y-85602000D01*
X155392956Y-85602000D01*
X155359929Y-85600377D01*
X155327219Y-85595525D01*
X155295143Y-85587491D01*
X155264009Y-85576351D01*
X155234116Y-85562213D01*
X155205753Y-85545213D01*
X155179193Y-85525515D01*
X155154692Y-85503308D01*
X155132485Y-85478807D01*
X155112787Y-85452247D01*
X155095787Y-85423884D01*
X155081649Y-85393991D01*
X155070509Y-85362857D01*
X155062475Y-85330781D01*
X155057623Y-85298071D01*
X155056000Y-85265044D01*
X155056000Y-84388956D01*
X155057623Y-84355929D01*
X155062475Y-84323219D01*
X155070509Y-84291143D01*
X155081649Y-84260009D01*
X155095787Y-84230116D01*
X155112787Y-84201753D01*
X155132485Y-84175193D01*
X155154692Y-84150692D01*
X155179193Y-84128485D01*
X155205753Y-84108787D01*
X155234116Y-84091787D01*
X155264009Y-84077649D01*
X155295143Y-84066509D01*
X155327219Y-84058475D01*
X155359929Y-84053623D01*
X155392956Y-84052000D01*
X156519044Y-84052000D01*
X156552071Y-84053623D01*
X156552071Y-84053623D01*
G37*
D19*
X155956000Y-84827000D03*
D18*
G36*
X156552071Y-86103623D02*
X156584781Y-86108475D01*
X156616857Y-86116509D01*
X156647991Y-86127649D01*
X156677884Y-86141787D01*
X156706247Y-86158787D01*
X156732807Y-86178485D01*
X156757308Y-86200692D01*
X156779515Y-86225193D01*
X156799213Y-86251753D01*
X156816213Y-86280116D01*
X156830351Y-86310009D01*
X156841491Y-86341143D01*
X156849525Y-86373219D01*
X156854377Y-86405929D01*
X156856000Y-86438956D01*
X156856000Y-87315044D01*
X156854377Y-87348071D01*
X156849525Y-87380781D01*
X156841491Y-87412857D01*
X156830351Y-87443991D01*
X156816213Y-87473884D01*
X156799213Y-87502247D01*
X156779515Y-87528807D01*
X156757308Y-87553308D01*
X156732807Y-87575515D01*
X156706247Y-87595213D01*
X156677884Y-87612213D01*
X156647991Y-87626351D01*
X156616857Y-87637491D01*
X156584781Y-87645525D01*
X156552071Y-87650377D01*
X156519044Y-87652000D01*
X155392956Y-87652000D01*
X155359929Y-87650377D01*
X155327219Y-87645525D01*
X155295143Y-87637491D01*
X155264009Y-87626351D01*
X155234116Y-87612213D01*
X155205753Y-87595213D01*
X155179193Y-87575515D01*
X155154692Y-87553308D01*
X155132485Y-87528807D01*
X155112787Y-87502247D01*
X155095787Y-87473884D01*
X155081649Y-87443991D01*
X155070509Y-87412857D01*
X155062475Y-87380781D01*
X155057623Y-87348071D01*
X155056000Y-87315044D01*
X155056000Y-86438956D01*
X155057623Y-86405929D01*
X155062475Y-86373219D01*
X155070509Y-86341143D01*
X155081649Y-86310009D01*
X155095787Y-86280116D01*
X155112787Y-86251753D01*
X155132485Y-86225193D01*
X155154692Y-86200692D01*
X155179193Y-86178485D01*
X155205753Y-86158787D01*
X155234116Y-86141787D01*
X155264009Y-86127649D01*
X155295143Y-86116509D01*
X155327219Y-86108475D01*
X155359929Y-86103623D01*
X155392956Y-86102000D01*
X156519044Y-86102000D01*
X156552071Y-86103623D01*
X156552071Y-86103623D01*
G37*
D19*
X155956000Y-86877000D03*
G04 #@! TD*
D18*
G04 #@! TO.C,D4*
G36*
X159600071Y-86103623D02*
X159632781Y-86108475D01*
X159664857Y-86116509D01*
X159695991Y-86127649D01*
X159725884Y-86141787D01*
X159754247Y-86158787D01*
X159780807Y-86178485D01*
X159805308Y-86200692D01*
X159827515Y-86225193D01*
X159847213Y-86251753D01*
X159864213Y-86280116D01*
X159878351Y-86310009D01*
X159889491Y-86341143D01*
X159897525Y-86373219D01*
X159902377Y-86405929D01*
X159904000Y-86438956D01*
X159904000Y-87315044D01*
X159902377Y-87348071D01*
X159897525Y-87380781D01*
X159889491Y-87412857D01*
X159878351Y-87443991D01*
X159864213Y-87473884D01*
X159847213Y-87502247D01*
X159827515Y-87528807D01*
X159805308Y-87553308D01*
X159780807Y-87575515D01*
X159754247Y-87595213D01*
X159725884Y-87612213D01*
X159695991Y-87626351D01*
X159664857Y-87637491D01*
X159632781Y-87645525D01*
X159600071Y-87650377D01*
X159567044Y-87652000D01*
X158440956Y-87652000D01*
X158407929Y-87650377D01*
X158375219Y-87645525D01*
X158343143Y-87637491D01*
X158312009Y-87626351D01*
X158282116Y-87612213D01*
X158253753Y-87595213D01*
X158227193Y-87575515D01*
X158202692Y-87553308D01*
X158180485Y-87528807D01*
X158160787Y-87502247D01*
X158143787Y-87473884D01*
X158129649Y-87443991D01*
X158118509Y-87412857D01*
X158110475Y-87380781D01*
X158105623Y-87348071D01*
X158104000Y-87315044D01*
X158104000Y-86438956D01*
X158105623Y-86405929D01*
X158110475Y-86373219D01*
X158118509Y-86341143D01*
X158129649Y-86310009D01*
X158143787Y-86280116D01*
X158160787Y-86251753D01*
X158180485Y-86225193D01*
X158202692Y-86200692D01*
X158227193Y-86178485D01*
X158253753Y-86158787D01*
X158282116Y-86141787D01*
X158312009Y-86127649D01*
X158343143Y-86116509D01*
X158375219Y-86108475D01*
X158407929Y-86103623D01*
X158440956Y-86102000D01*
X159567044Y-86102000D01*
X159600071Y-86103623D01*
X159600071Y-86103623D01*
G37*
D19*
X159004000Y-86877000D03*
D18*
G36*
X159600071Y-84053623D02*
X159632781Y-84058475D01*
X159664857Y-84066509D01*
X159695991Y-84077649D01*
X159725884Y-84091787D01*
X159754247Y-84108787D01*
X159780807Y-84128485D01*
X159805308Y-84150692D01*
X159827515Y-84175193D01*
X159847213Y-84201753D01*
X159864213Y-84230116D01*
X159878351Y-84260009D01*
X159889491Y-84291143D01*
X159897525Y-84323219D01*
X159902377Y-84355929D01*
X159904000Y-84388956D01*
X159904000Y-85265044D01*
X159902377Y-85298071D01*
X159897525Y-85330781D01*
X159889491Y-85362857D01*
X159878351Y-85393991D01*
X159864213Y-85423884D01*
X159847213Y-85452247D01*
X159827515Y-85478807D01*
X159805308Y-85503308D01*
X159780807Y-85525515D01*
X159754247Y-85545213D01*
X159725884Y-85562213D01*
X159695991Y-85576351D01*
X159664857Y-85587491D01*
X159632781Y-85595525D01*
X159600071Y-85600377D01*
X159567044Y-85602000D01*
X158440956Y-85602000D01*
X158407929Y-85600377D01*
X158375219Y-85595525D01*
X158343143Y-85587491D01*
X158312009Y-85576351D01*
X158282116Y-85562213D01*
X158253753Y-85545213D01*
X158227193Y-85525515D01*
X158202692Y-85503308D01*
X158180485Y-85478807D01*
X158160787Y-85452247D01*
X158143787Y-85423884D01*
X158129649Y-85393991D01*
X158118509Y-85362857D01*
X158110475Y-85330781D01*
X158105623Y-85298071D01*
X158104000Y-85265044D01*
X158104000Y-84388956D01*
X158105623Y-84355929D01*
X158110475Y-84323219D01*
X158118509Y-84291143D01*
X158129649Y-84260009D01*
X158143787Y-84230116D01*
X158160787Y-84201753D01*
X158180485Y-84175193D01*
X158202692Y-84150692D01*
X158227193Y-84128485D01*
X158253753Y-84108787D01*
X158282116Y-84091787D01*
X158312009Y-84077649D01*
X158343143Y-84066509D01*
X158375219Y-84058475D01*
X158407929Y-84053623D01*
X158440956Y-84052000D01*
X159567044Y-84052000D01*
X159600071Y-84053623D01*
X159600071Y-84053623D01*
G37*
D19*
X159004000Y-84827000D03*
G04 #@! TD*
D18*
G04 #@! TO.C,D5*
G36*
X151472071Y-127106623D02*
X151504781Y-127111475D01*
X151536857Y-127119509D01*
X151567991Y-127130649D01*
X151597884Y-127144787D01*
X151626247Y-127161787D01*
X151652807Y-127181485D01*
X151677308Y-127203692D01*
X151699515Y-127228193D01*
X151719213Y-127254753D01*
X151736213Y-127283116D01*
X151750351Y-127313009D01*
X151761491Y-127344143D01*
X151769525Y-127376219D01*
X151774377Y-127408929D01*
X151776000Y-127441956D01*
X151776000Y-128318044D01*
X151774377Y-128351071D01*
X151769525Y-128383781D01*
X151761491Y-128415857D01*
X151750351Y-128446991D01*
X151736213Y-128476884D01*
X151719213Y-128505247D01*
X151699515Y-128531807D01*
X151677308Y-128556308D01*
X151652807Y-128578515D01*
X151626247Y-128598213D01*
X151597884Y-128615213D01*
X151567991Y-128629351D01*
X151536857Y-128640491D01*
X151504781Y-128648525D01*
X151472071Y-128653377D01*
X151439044Y-128655000D01*
X150312956Y-128655000D01*
X150279929Y-128653377D01*
X150247219Y-128648525D01*
X150215143Y-128640491D01*
X150184009Y-128629351D01*
X150154116Y-128615213D01*
X150125753Y-128598213D01*
X150099193Y-128578515D01*
X150074692Y-128556308D01*
X150052485Y-128531807D01*
X150032787Y-128505247D01*
X150015787Y-128476884D01*
X150001649Y-128446991D01*
X149990509Y-128415857D01*
X149982475Y-128383781D01*
X149977623Y-128351071D01*
X149976000Y-128318044D01*
X149976000Y-127441956D01*
X149977623Y-127408929D01*
X149982475Y-127376219D01*
X149990509Y-127344143D01*
X150001649Y-127313009D01*
X150015787Y-127283116D01*
X150032787Y-127254753D01*
X150052485Y-127228193D01*
X150074692Y-127203692D01*
X150099193Y-127181485D01*
X150125753Y-127161787D01*
X150154116Y-127144787D01*
X150184009Y-127130649D01*
X150215143Y-127119509D01*
X150247219Y-127111475D01*
X150279929Y-127106623D01*
X150312956Y-127105000D01*
X151439044Y-127105000D01*
X151472071Y-127106623D01*
X151472071Y-127106623D01*
G37*
D19*
X150876000Y-127880000D03*
D18*
G36*
X151472071Y-129156623D02*
X151504781Y-129161475D01*
X151536857Y-129169509D01*
X151567991Y-129180649D01*
X151597884Y-129194787D01*
X151626247Y-129211787D01*
X151652807Y-129231485D01*
X151677308Y-129253692D01*
X151699515Y-129278193D01*
X151719213Y-129304753D01*
X151736213Y-129333116D01*
X151750351Y-129363009D01*
X151761491Y-129394143D01*
X151769525Y-129426219D01*
X151774377Y-129458929D01*
X151776000Y-129491956D01*
X151776000Y-130368044D01*
X151774377Y-130401071D01*
X151769525Y-130433781D01*
X151761491Y-130465857D01*
X151750351Y-130496991D01*
X151736213Y-130526884D01*
X151719213Y-130555247D01*
X151699515Y-130581807D01*
X151677308Y-130606308D01*
X151652807Y-130628515D01*
X151626247Y-130648213D01*
X151597884Y-130665213D01*
X151567991Y-130679351D01*
X151536857Y-130690491D01*
X151504781Y-130698525D01*
X151472071Y-130703377D01*
X151439044Y-130705000D01*
X150312956Y-130705000D01*
X150279929Y-130703377D01*
X150247219Y-130698525D01*
X150215143Y-130690491D01*
X150184009Y-130679351D01*
X150154116Y-130665213D01*
X150125753Y-130648213D01*
X150099193Y-130628515D01*
X150074692Y-130606308D01*
X150052485Y-130581807D01*
X150032787Y-130555247D01*
X150015787Y-130526884D01*
X150001649Y-130496991D01*
X149990509Y-130465857D01*
X149982475Y-130433781D01*
X149977623Y-130401071D01*
X149976000Y-130368044D01*
X149976000Y-129491956D01*
X149977623Y-129458929D01*
X149982475Y-129426219D01*
X149990509Y-129394143D01*
X150001649Y-129363009D01*
X150015787Y-129333116D01*
X150032787Y-129304753D01*
X150052485Y-129278193D01*
X150074692Y-129253692D01*
X150099193Y-129231485D01*
X150125753Y-129211787D01*
X150154116Y-129194787D01*
X150184009Y-129180649D01*
X150215143Y-129169509D01*
X150247219Y-129161475D01*
X150279929Y-129156623D01*
X150312956Y-129155000D01*
X151439044Y-129155000D01*
X151472071Y-129156623D01*
X151472071Y-129156623D01*
G37*
D19*
X150876000Y-129930000D03*
G04 #@! TD*
D18*
G04 #@! TO.C,J1*
G36*
X152961567Y-73032695D02*
X153056213Y-73046734D01*
X153149028Y-73069983D01*
X153239116Y-73102217D01*
X153325612Y-73143127D01*
X153407681Y-73192317D01*
X153484533Y-73249315D01*
X153555429Y-73313571D01*
X153619685Y-73384467D01*
X153676683Y-73461319D01*
X153725873Y-73543388D01*
X153766783Y-73629884D01*
X153799017Y-73719972D01*
X153822266Y-73812787D01*
X153836305Y-73907433D01*
X153841000Y-74003000D01*
X153841000Y-75953000D01*
X153836305Y-76048567D01*
X153822266Y-76143213D01*
X153799017Y-76236028D01*
X153766783Y-76326116D01*
X153725873Y-76412612D01*
X153676683Y-76494681D01*
X153619685Y-76571533D01*
X153555429Y-76642429D01*
X153484533Y-76706685D01*
X153407681Y-76763683D01*
X153325612Y-76812873D01*
X153239116Y-76853783D01*
X153149028Y-76886017D01*
X153056213Y-76909266D01*
X152961567Y-76923305D01*
X152866000Y-76928000D01*
X150916000Y-76928000D01*
X150820433Y-76923305D01*
X150725787Y-76909266D01*
X150632972Y-76886017D01*
X150542884Y-76853783D01*
X150456388Y-76812873D01*
X150374319Y-76763683D01*
X150297467Y-76706685D01*
X150226571Y-76642429D01*
X150162315Y-76571533D01*
X150105317Y-76494681D01*
X150056127Y-76412612D01*
X150015217Y-76326116D01*
X149982983Y-76236028D01*
X149959734Y-76143213D01*
X149945695Y-76048567D01*
X149941000Y-75953000D01*
X149941000Y-74003000D01*
X149945695Y-73907433D01*
X149959734Y-73812787D01*
X149982983Y-73719972D01*
X150015217Y-73629884D01*
X150056127Y-73543388D01*
X150105317Y-73461319D01*
X150162315Y-73384467D01*
X150226571Y-73313571D01*
X150297467Y-73249315D01*
X150374319Y-73192317D01*
X150456388Y-73143127D01*
X150542884Y-73102217D01*
X150632972Y-73069983D01*
X150725787Y-73046734D01*
X150820433Y-73032695D01*
X150916000Y-73028000D01*
X152866000Y-73028000D01*
X152961567Y-73032695D01*
X152961567Y-73032695D01*
G37*
D20*
X151891000Y-74978000D03*
D18*
G36*
X157774315Y-70282093D02*
X157856827Y-70294333D01*
X157937742Y-70314601D01*
X158016281Y-70342702D01*
X158091687Y-70378367D01*
X158163235Y-70421251D01*
X158230234Y-70470941D01*
X158292041Y-70526959D01*
X158348059Y-70588766D01*
X158397749Y-70655765D01*
X158440633Y-70727313D01*
X158476298Y-70802719D01*
X158504399Y-70881258D01*
X158524667Y-70962173D01*
X158536907Y-71044685D01*
X158541000Y-71128000D01*
X158541000Y-72828000D01*
X158536907Y-72911315D01*
X158524667Y-72993827D01*
X158504399Y-73074742D01*
X158476298Y-73153281D01*
X158440633Y-73228687D01*
X158397749Y-73300235D01*
X158348059Y-73367234D01*
X158292041Y-73429041D01*
X158230234Y-73485059D01*
X158163235Y-73534749D01*
X158091687Y-73577633D01*
X158016281Y-73613298D01*
X157937742Y-73641399D01*
X157856827Y-73661667D01*
X157774315Y-73673907D01*
X157691000Y-73678000D01*
X155491000Y-73678000D01*
X155407685Y-73673907D01*
X155325173Y-73661667D01*
X155244258Y-73641399D01*
X155165719Y-73613298D01*
X155090313Y-73577633D01*
X155018765Y-73534749D01*
X154951766Y-73485059D01*
X154889959Y-73429041D01*
X154833941Y-73367234D01*
X154784251Y-73300235D01*
X154741367Y-73228687D01*
X154705702Y-73153281D01*
X154677601Y-73074742D01*
X154657333Y-72993827D01*
X154645093Y-72911315D01*
X154641000Y-72828000D01*
X154641000Y-71128000D01*
X154645093Y-71044685D01*
X154657333Y-70962173D01*
X154677601Y-70881258D01*
X154705702Y-70802719D01*
X154741367Y-70727313D01*
X154784251Y-70655765D01*
X154833941Y-70588766D01*
X154889959Y-70526959D01*
X154951766Y-70470941D01*
X155018765Y-70421251D01*
X155090313Y-70378367D01*
X155165719Y-70342702D01*
X155244258Y-70314601D01*
X155325173Y-70294333D01*
X155407685Y-70282093D01*
X155491000Y-70278000D01*
X157691000Y-70278000D01*
X157774315Y-70282093D01*
X157774315Y-70282093D01*
G37*
D21*
X156591000Y-71978000D03*
D22*
X156591000Y-77978000D03*
G04 #@! TD*
D12*
G04 #@! TO.C,J2*
X141986000Y-91440000D03*
D11*
X141986000Y-93980000D03*
X141986000Y-96520000D03*
X141986000Y-99060000D03*
X141986000Y-101600000D03*
X141986000Y-104140000D03*
X141986000Y-106680000D03*
X141986000Y-109220000D03*
X141986000Y-111760000D03*
X141986000Y-114300000D03*
X141986000Y-116840000D03*
X141986000Y-119380000D03*
X141986000Y-121920000D03*
X141986000Y-124460000D03*
G04 #@! TD*
G04 #@! TO.C,J3*
X159766000Y-91440000D03*
X159766000Y-93980000D03*
X159766000Y-96520000D03*
X159766000Y-99060000D03*
X159766000Y-101600000D03*
X159766000Y-104140000D03*
X159766000Y-106680000D03*
X159766000Y-109220000D03*
X159766000Y-111760000D03*
X159766000Y-114300000D03*
X159766000Y-116840000D03*
X159766000Y-119380000D03*
X159766000Y-121920000D03*
D12*
X159766000Y-124460000D03*
G04 #@! TD*
D11*
G04 #@! TO.C,J4*
X147066000Y-66040000D03*
D12*
X149606000Y-66040000D03*
G04 #@! TD*
D23*
G04 #@! TO.C,U2*
X154686000Y-91440000D03*
X147066000Y-124460000D03*
X154686000Y-93980000D03*
X147066000Y-121920000D03*
X154686000Y-96520000D03*
X147066000Y-119380000D03*
X154686000Y-99060000D03*
X147066000Y-116840000D03*
X154686000Y-101600000D03*
X147066000Y-114300000D03*
X154686000Y-104140000D03*
X147066000Y-111760000D03*
X154686000Y-106680000D03*
X147066000Y-109220000D03*
X154686000Y-109220000D03*
X147066000Y-106680000D03*
X154686000Y-111760000D03*
X147066000Y-104140000D03*
X154686000Y-114300000D03*
X147066000Y-101600000D03*
X154686000Y-116840000D03*
X147066000Y-99060000D03*
X154686000Y-119380000D03*
X147066000Y-96520000D03*
X154686000Y-121920000D03*
X147066000Y-93980000D03*
X154686000Y-124460000D03*
D24*
X147066000Y-91440000D03*
G04 #@! TD*
D25*
G04 #@! TO.C,Y1*
X149406000Y-86360000D03*
X144526000Y-86360000D03*
G04 #@! TD*
M02*
