M48
;DRILL file {KiCad (5.0.0)} date 09/25/18 17:42:23
;FORMAT={-:-/ absolute / metric / decimal}
FMAT,2
METRIC,TZ
T1C0.400
T2C0.800
T3C1.000
T4C1.100
T5C2.700
%
G90
G05
M71
T1
X143.256Y-133.858
X145.669Y-90.043
X146.05Y-140.335
X147.447Y-136.525
X149.225Y-97.917
X149.987Y-136.906
X152.154Y-131.436
X157.48Y-86.36
X157.48Y-87.376
T2
X141.478Y-79.947
X141.478Y-83.947
X141.605Y-77.724
X142.231Y-73.907
X147.066Y-77.724
X148.073Y-134.003
X150.368Y-79.756
X150.876Y-90.17
X151.384Y-119.38
X147.066Y-91.44
X147.066Y-93.98
X147.066Y-96.52
X147.066Y-99.06
X147.066Y-101.6
X147.066Y-104.14
X147.066Y-106.68
X147.066Y-109.22
X147.066Y-111.76
X147.066Y-114.3
X147.066Y-116.84
X147.066Y-119.38
X147.066Y-121.92
X147.066Y-124.46
X154.686Y-91.44
X154.686Y-93.98
X154.686Y-96.52
X154.686Y-99.06
X154.686Y-101.6
X154.686Y-104.14
X154.686Y-106.68
X154.686Y-109.22
X154.686Y-111.76
X154.686Y-114.3
X154.686Y-116.84
X154.686Y-119.38
X154.686Y-121.92
X154.686Y-124.46
X144.526Y-86.36
X149.406Y-86.36
T3
X154.686Y-129.54
X157.226Y-129.54
X159.766Y-129.54
X159.766Y-91.44
X159.766Y-93.98
X159.766Y-96.52
X159.766Y-99.06
X159.766Y-101.6
X159.766Y-104.14
X159.766Y-106.68
X159.766Y-109.22
X159.766Y-111.76
X159.766Y-114.3
X159.766Y-116.84
X159.766Y-119.38
X159.766Y-121.92
X159.766Y-124.46
X141.986Y-91.44
X141.986Y-93.98
X141.986Y-96.52
X141.986Y-99.06
X141.986Y-101.6
X141.986Y-104.14
X141.986Y-106.68
X141.986Y-109.22
X141.986Y-111.76
X141.986Y-114.3
X141.986Y-116.84
X141.986Y-119.38
X141.986Y-121.92
X141.986Y-124.46
X147.066Y-66.04
X149.606Y-66.04
X152.146Y-81.788
X154.686Y-81.788
X157.226Y-81.788
X159.766Y-81.788
X144.526Y-142.875
X147.066Y-142.875
X149.606Y-142.875
X152.146Y-142.875
X154.686Y-142.875
X157.226Y-142.875
X141.986Y-129.54
X141.986Y-132.08
X144.526Y-129.54
X144.526Y-132.08
X147.066Y-129.54
X147.066Y-132.08
T4
X150.622Y-132.715
X150.622Y-139.215
X155.122Y-132.715
X155.122Y-139.215
T5
X142.621Y-138.176
X142.621Y-66.675
X159.131Y-138.176
X159.131Y-66.693
T3
X151.891Y-73.978G85X151.891Y-75.978
G05
X157.591Y-71.978G85X155.591Y-71.978
G05
X157.591Y-77.978G85X155.591Y-77.978
G05
T0
M30
