G04 #@! TF.GenerationSoftware,KiCad,Pcbnew,(5.0.0)*
G04 #@! TF.CreationDate,2018-09-25T17:42:14-07:00*
G04 #@! TF.ProjectId,firefly,66697265666C792E6B696361645F7063,A*
G04 #@! TF.SameCoordinates,Original*
G04 #@! TF.FileFunction,Legend,Bot*
G04 #@! TF.FilePolarity,Positive*
%FSLAX46Y46*%
G04 Gerber Fmt 4.6, Leading zero omitted, Abs format (unit mm)*
G04 Created by KiCad (PCBNEW (5.0.0)) date 09/25/18 17:42:14*
%MOMM*%
%LPD*%
G01*
G04 APERTURE LIST*
%ADD10C,0.160000*%
%ADD11C,0.400000*%
%ADD12C,0.120000*%
%ADD13C,0.100000*%
%ADD14C,0.150000*%
G04 APERTURE END LIST*
D10*
X150196571Y-103723285D02*
X150729904Y-103913761D01*
X150196571Y-104104238D01*
X150729904Y-104828047D02*
X150729904Y-104370904D01*
X150729904Y-104599476D02*
X149929904Y-104599476D01*
X150044190Y-104523285D01*
X150120380Y-104447095D01*
X150158476Y-104370904D01*
X153269904Y-92445619D02*
X152888952Y-92178952D01*
X153269904Y-91988476D02*
X152469904Y-91988476D01*
X152469904Y-92293238D01*
X152508000Y-92369428D01*
X152546095Y-92407523D01*
X152622285Y-92445619D01*
X152736571Y-92445619D01*
X152812761Y-92407523D01*
X152850857Y-92369428D01*
X152888952Y-92293238D01*
X152888952Y-91988476D01*
X153269904Y-93131333D02*
X152850857Y-93131333D01*
X152774666Y-93093238D01*
X152736571Y-93017047D01*
X152736571Y-92864666D01*
X152774666Y-92788476D01*
X153231809Y-93131333D02*
X153269904Y-93055142D01*
X153269904Y-92864666D01*
X153231809Y-92788476D01*
X153155619Y-92750380D01*
X153079428Y-92750380D01*
X153003238Y-92788476D01*
X152965142Y-92864666D01*
X152965142Y-93055142D01*
X152927047Y-93131333D01*
X152736571Y-93436095D02*
X153269904Y-93626571D01*
X152736571Y-93817047D02*
X153269904Y-93626571D01*
X153460380Y-93550380D01*
X153498476Y-93512285D01*
X153536571Y-93436095D01*
X153231809Y-94693238D02*
X153269904Y-94807523D01*
X153269904Y-94998000D01*
X153231809Y-95074190D01*
X153193714Y-95112285D01*
X153117523Y-95150380D01*
X153041333Y-95150380D01*
X152965142Y-95112285D01*
X152927047Y-95074190D01*
X152888952Y-94998000D01*
X152850857Y-94845619D01*
X152812761Y-94769428D01*
X152774666Y-94731333D01*
X152698476Y-94693238D01*
X152622285Y-94693238D01*
X152546095Y-94731333D01*
X152508000Y-94769428D01*
X152469904Y-94845619D01*
X152469904Y-95036095D01*
X152508000Y-95150380D01*
X152736571Y-95836095D02*
X153269904Y-95836095D01*
X152736571Y-95493238D02*
X153155619Y-95493238D01*
X153231809Y-95531333D01*
X153269904Y-95607523D01*
X153269904Y-95721809D01*
X153231809Y-95798000D01*
X153193714Y-95836095D01*
X152736571Y-96217047D02*
X153269904Y-96217047D01*
X152812761Y-96217047D02*
X152774666Y-96255142D01*
X152736571Y-96331333D01*
X152736571Y-96445619D01*
X152774666Y-96521809D01*
X152850857Y-96559904D01*
X153269904Y-96559904D01*
X151771333Y-92077380D02*
X151771333Y-92458333D01*
X151999904Y-92001190D02*
X151199904Y-92267857D01*
X151999904Y-92534523D01*
X151199904Y-92686904D02*
X151199904Y-93144047D01*
X151999904Y-92915476D02*
X151199904Y-92915476D01*
X151999904Y-93410714D02*
X151466571Y-93410714D01*
X151542761Y-93410714D02*
X151504666Y-93448809D01*
X151466571Y-93525000D01*
X151466571Y-93639285D01*
X151504666Y-93715476D01*
X151580857Y-93753571D01*
X151999904Y-93753571D01*
X151580857Y-93753571D02*
X151504666Y-93791666D01*
X151466571Y-93867857D01*
X151466571Y-93982142D01*
X151504666Y-94058333D01*
X151580857Y-94096428D01*
X151999904Y-94096428D01*
X151961809Y-94782142D02*
X151999904Y-94705952D01*
X151999904Y-94553571D01*
X151961809Y-94477380D01*
X151885619Y-94439285D01*
X151580857Y-94439285D01*
X151504666Y-94477380D01*
X151466571Y-94553571D01*
X151466571Y-94705952D01*
X151504666Y-94782142D01*
X151580857Y-94820238D01*
X151657047Y-94820238D01*
X151733238Y-94439285D01*
X151466571Y-95505952D02*
X152114190Y-95505952D01*
X152190380Y-95467857D01*
X152228476Y-95429761D01*
X152266571Y-95353571D01*
X152266571Y-95239285D01*
X152228476Y-95163095D01*
X151961809Y-95505952D02*
X151999904Y-95429761D01*
X151999904Y-95277380D01*
X151961809Y-95201190D01*
X151923714Y-95163095D01*
X151847523Y-95125000D01*
X151618952Y-95125000D01*
X151542761Y-95163095D01*
X151504666Y-95201190D01*
X151466571Y-95277380D01*
X151466571Y-95429761D01*
X151504666Y-95505952D01*
X151999904Y-96229761D02*
X151580857Y-96229761D01*
X151504666Y-96191666D01*
X151466571Y-96115476D01*
X151466571Y-95963095D01*
X151504666Y-95886904D01*
X151961809Y-96229761D02*
X151999904Y-96153571D01*
X151999904Y-95963095D01*
X151961809Y-95886904D01*
X151885619Y-95848809D01*
X151809428Y-95848809D01*
X151733238Y-95886904D01*
X151695142Y-95963095D01*
X151695142Y-96153571D01*
X151657047Y-96229761D01*
X151542761Y-96725000D02*
X151504666Y-96648809D01*
X151466571Y-96610714D01*
X151390380Y-96572619D01*
X151352285Y-96572619D01*
X151276095Y-96610714D01*
X151238000Y-96648809D01*
X151199904Y-96725000D01*
X151199904Y-96877380D01*
X151238000Y-96953571D01*
X151276095Y-96991666D01*
X151352285Y-97029761D01*
X151390380Y-97029761D01*
X151466571Y-96991666D01*
X151504666Y-96953571D01*
X151542761Y-96877380D01*
X151542761Y-96725000D01*
X151580857Y-96648809D01*
X151618952Y-96610714D01*
X151695142Y-96572619D01*
X151847523Y-96572619D01*
X151923714Y-96610714D01*
X151961809Y-96648809D01*
X151999904Y-96725000D01*
X151999904Y-96877380D01*
X151961809Y-96953571D01*
X151923714Y-96991666D01*
X151847523Y-97029761D01*
X151695142Y-97029761D01*
X151618952Y-96991666D01*
X151580857Y-96953571D01*
X151542761Y-96877380D01*
X151199904Y-97867857D02*
X151199904Y-98325000D01*
X151999904Y-98096428D02*
X151199904Y-98096428D01*
X151999904Y-98934523D02*
X151580857Y-98934523D01*
X151504666Y-98896428D01*
X151466571Y-98820238D01*
X151466571Y-98667857D01*
X151504666Y-98591666D01*
X151961809Y-98934523D02*
X151999904Y-98858333D01*
X151999904Y-98667857D01*
X151961809Y-98591666D01*
X151885619Y-98553571D01*
X151809428Y-98553571D01*
X151733238Y-98591666D01*
X151695142Y-98667857D01*
X151695142Y-98858333D01*
X151657047Y-98934523D01*
X151999904Y-99315476D02*
X151466571Y-99315476D01*
X151618952Y-99315476D02*
X151542761Y-99353571D01*
X151504666Y-99391666D01*
X151466571Y-99467857D01*
X151466571Y-99544047D01*
X151466571Y-100153571D02*
X152114190Y-100153571D01*
X152190380Y-100115476D01*
X152228476Y-100077380D01*
X152266571Y-100001190D01*
X152266571Y-99886904D01*
X152228476Y-99810714D01*
X151961809Y-100153571D02*
X151999904Y-100077380D01*
X151999904Y-99925000D01*
X151961809Y-99848809D01*
X151923714Y-99810714D01*
X151847523Y-99772619D01*
X151618952Y-99772619D01*
X151542761Y-99810714D01*
X151504666Y-99848809D01*
X151466571Y-99925000D01*
X151466571Y-100077380D01*
X151504666Y-100153571D01*
X151961809Y-100839285D02*
X151999904Y-100763095D01*
X151999904Y-100610714D01*
X151961809Y-100534523D01*
X151885619Y-100496428D01*
X151580857Y-100496428D01*
X151504666Y-100534523D01*
X151466571Y-100610714D01*
X151466571Y-100763095D01*
X151504666Y-100839285D01*
X151580857Y-100877380D01*
X151657047Y-100877380D01*
X151733238Y-100496428D01*
X151466571Y-101105952D02*
X151466571Y-101410714D01*
X151199904Y-101220238D02*
X151885619Y-101220238D01*
X151961809Y-101258333D01*
X151999904Y-101334523D01*
X151999904Y-101410714D01*
X151580857Y-102553571D02*
X151618952Y-102667857D01*
X151657047Y-102705952D01*
X151733238Y-102744047D01*
X151847523Y-102744047D01*
X151923714Y-102705952D01*
X151961809Y-102667857D01*
X151999904Y-102591666D01*
X151999904Y-102286904D01*
X151199904Y-102286904D01*
X151199904Y-102553571D01*
X151238000Y-102629761D01*
X151276095Y-102667857D01*
X151352285Y-102705952D01*
X151428476Y-102705952D01*
X151504666Y-102667857D01*
X151542761Y-102629761D01*
X151580857Y-102553571D01*
X151580857Y-102286904D01*
X151999904Y-103201190D02*
X151961809Y-103125000D01*
X151923714Y-103086904D01*
X151847523Y-103048809D01*
X151618952Y-103048809D01*
X151542761Y-103086904D01*
X151504666Y-103125000D01*
X151466571Y-103201190D01*
X151466571Y-103315476D01*
X151504666Y-103391666D01*
X151542761Y-103429761D01*
X151618952Y-103467857D01*
X151847523Y-103467857D01*
X151923714Y-103429761D01*
X151961809Y-103391666D01*
X151999904Y-103315476D01*
X151999904Y-103201190D01*
X151999904Y-104153571D02*
X151580857Y-104153571D01*
X151504666Y-104115476D01*
X151466571Y-104039285D01*
X151466571Y-103886904D01*
X151504666Y-103810714D01*
X151961809Y-104153571D02*
X151999904Y-104077380D01*
X151999904Y-103886904D01*
X151961809Y-103810714D01*
X151885619Y-103772619D01*
X151809428Y-103772619D01*
X151733238Y-103810714D01*
X151695142Y-103886904D01*
X151695142Y-104077380D01*
X151657047Y-104153571D01*
X151999904Y-104534523D02*
X151466571Y-104534523D01*
X151618952Y-104534523D02*
X151542761Y-104572619D01*
X151504666Y-104610714D01*
X151466571Y-104686904D01*
X151466571Y-104763095D01*
X151999904Y-105372619D02*
X151199904Y-105372619D01*
X151961809Y-105372619D02*
X151999904Y-105296428D01*
X151999904Y-105144047D01*
X151961809Y-105067857D01*
X151923714Y-105029761D01*
X151847523Y-104991666D01*
X151618952Y-104991666D01*
X151542761Y-105029761D01*
X151504666Y-105067857D01*
X151466571Y-105144047D01*
X151466571Y-105296428D01*
X151504666Y-105372619D01*
D11*
X149590142Y-92715857D02*
X149590142Y-92049190D01*
X150637761Y-92049190D02*
X148637761Y-92049190D01*
X148637761Y-93001571D01*
X150637761Y-93763476D02*
X148637761Y-93763476D01*
X150637761Y-95858714D02*
X149685380Y-95192047D01*
X150637761Y-94715857D02*
X148637761Y-94715857D01*
X148637761Y-95477761D01*
X148733000Y-95668238D01*
X148828238Y-95763476D01*
X149018714Y-95858714D01*
X149304428Y-95858714D01*
X149494904Y-95763476D01*
X149590142Y-95668238D01*
X149685380Y-95477761D01*
X149685380Y-94715857D01*
X149590142Y-96715857D02*
X149590142Y-97382523D01*
X150637761Y-97668238D02*
X150637761Y-96715857D01*
X148637761Y-96715857D01*
X148637761Y-97668238D01*
X149590142Y-99192047D02*
X149590142Y-98525380D01*
X150637761Y-98525380D02*
X148637761Y-98525380D01*
X148637761Y-99477761D01*
X150637761Y-101192047D02*
X150637761Y-100239666D01*
X148637761Y-100239666D01*
X149685380Y-102239666D02*
X150637761Y-102239666D01*
X148637761Y-101573000D02*
X149685380Y-102239666D01*
X148637761Y-102906333D01*
D12*
G04 #@! TO.C,C2*
X151690000Y-109481252D02*
X151690000Y-108958748D01*
X153110000Y-109481252D02*
X153110000Y-108958748D01*
G04 #@! TO.C,C3*
X144728000Y-73159252D02*
X144728000Y-72636748D01*
X143308000Y-73159252D02*
X143308000Y-72636748D01*
G04 #@! TO.C,C4*
X144010748Y-77014000D02*
X144533252Y-77014000D01*
X144010748Y-78434000D02*
X144533252Y-78434000D01*
G04 #@! TO.C,C5*
X148261000Y-79010252D02*
X148261000Y-78487748D01*
X149681000Y-79010252D02*
X149681000Y-78487748D01*
G04 #@! TO.C,C6*
X147776000Y-85614252D02*
X147776000Y-85091748D01*
X146356000Y-85614252D02*
X146356000Y-85091748D01*
G04 #@! TO.C,C7*
X152221000Y-87123748D02*
X152221000Y-87646252D01*
X150801000Y-87123748D02*
X150801000Y-87646252D01*
G04 #@! TO.C,C8*
X146760000Y-138437252D02*
X146760000Y-137914748D01*
X145340000Y-138437252D02*
X145340000Y-137914748D01*
G04 #@! TO.C,C9*
X152198000Y-139565748D02*
X152198000Y-140088252D01*
X153618000Y-139565748D02*
X153618000Y-140088252D01*
G04 #@! TO.C,F1*
X150474000Y-116172064D02*
X150474000Y-114967936D01*
X152294000Y-116172064D02*
X152294000Y-114967936D01*
G04 #@! TO.C,R1*
X146550748Y-87936000D02*
X147073252Y-87936000D01*
X146550748Y-89356000D02*
X147073252Y-89356000D01*
G04 #@! TO.C,R2*
X140895000Y-87359748D02*
X140895000Y-87882252D01*
X142315000Y-87359748D02*
X142315000Y-87882252D01*
G04 #@! TO.C,R3*
X155246000Y-86113252D02*
X155246000Y-85590748D01*
X156666000Y-86113252D02*
X156666000Y-85590748D01*
G04 #@! TO.C,R4*
X159714000Y-86113252D02*
X159714000Y-85590748D01*
X158294000Y-86113252D02*
X158294000Y-85590748D01*
G04 #@! TO.C,R5*
X159310000Y-132825748D02*
X159310000Y-133348252D01*
X160730000Y-132825748D02*
X160730000Y-133348252D01*
G04 #@! TO.C,R6*
X156770000Y-133348252D02*
X156770000Y-132825748D01*
X158190000Y-133348252D02*
X158190000Y-132825748D01*
G04 #@! TO.C,U3*
X145426000Y-82509000D02*
X142976000Y-82509000D01*
X143626000Y-79289000D02*
X145426000Y-79289000D01*
G04 #@! TO.C,U4*
X153808000Y-137561000D02*
X152008000Y-137561000D01*
X152008000Y-134341000D02*
X154458000Y-134341000D01*
G04 #@! TO.C,C1*
X146094000Y-72882000D02*
X146094000Y-70882000D01*
X149054000Y-70882000D02*
X149054000Y-72882000D01*
G04 #@! TO.C,C2*
D13*
X151143857Y-109095000D02*
X151179571Y-109059285D01*
X151215285Y-108952142D01*
X151215285Y-108880714D01*
X151179571Y-108773571D01*
X151108142Y-108702142D01*
X151036714Y-108666428D01*
X150893857Y-108630714D01*
X150786714Y-108630714D01*
X150643857Y-108666428D01*
X150572428Y-108702142D01*
X150501000Y-108773571D01*
X150465285Y-108880714D01*
X150465285Y-108952142D01*
X150501000Y-109059285D01*
X150536714Y-109095000D01*
X150536714Y-109380714D02*
X150501000Y-109416428D01*
X150465285Y-109487857D01*
X150465285Y-109666428D01*
X150501000Y-109737857D01*
X150536714Y-109773571D01*
X150608142Y-109809285D01*
X150679571Y-109809285D01*
X150786714Y-109773571D01*
X151215285Y-109345000D01*
X151215285Y-109809285D01*
G04 #@! TO.C,C3*
X142888857Y-71757000D02*
X142924571Y-71721285D01*
X142960285Y-71614142D01*
X142960285Y-71542714D01*
X142924571Y-71435571D01*
X142853142Y-71364142D01*
X142781714Y-71328428D01*
X142638857Y-71292714D01*
X142531714Y-71292714D01*
X142388857Y-71328428D01*
X142317428Y-71364142D01*
X142246000Y-71435571D01*
X142210285Y-71542714D01*
X142210285Y-71614142D01*
X142246000Y-71721285D01*
X142281714Y-71757000D01*
X142210285Y-72007000D02*
X142210285Y-72471285D01*
X142496000Y-72221285D01*
X142496000Y-72328428D01*
X142531714Y-72399857D01*
X142567428Y-72435571D01*
X142638857Y-72471285D01*
X142817428Y-72471285D01*
X142888857Y-72435571D01*
X142924571Y-72399857D01*
X142960285Y-72328428D01*
X142960285Y-72114142D01*
X142924571Y-72042714D01*
X142888857Y-72007000D01*
G04 #@! TO.C,C4*
X144397000Y-76467857D02*
X144432714Y-76503571D01*
X144539857Y-76539285D01*
X144611285Y-76539285D01*
X144718428Y-76503571D01*
X144789857Y-76432142D01*
X144825571Y-76360714D01*
X144861285Y-76217857D01*
X144861285Y-76110714D01*
X144825571Y-75967857D01*
X144789857Y-75896428D01*
X144718428Y-75825000D01*
X144611285Y-75789285D01*
X144539857Y-75789285D01*
X144432714Y-75825000D01*
X144397000Y-75860714D01*
X143754142Y-76039285D02*
X143754142Y-76539285D01*
X143932714Y-75753571D02*
X144111285Y-76289285D01*
X143647000Y-76289285D01*
G04 #@! TO.C,C5*
X150888857Y-78107000D02*
X150924571Y-78071285D01*
X150960285Y-77964142D01*
X150960285Y-77892714D01*
X150924571Y-77785571D01*
X150853142Y-77714142D01*
X150781714Y-77678428D01*
X150638857Y-77642714D01*
X150531714Y-77642714D01*
X150388857Y-77678428D01*
X150317428Y-77714142D01*
X150246000Y-77785571D01*
X150210285Y-77892714D01*
X150210285Y-77964142D01*
X150246000Y-78071285D01*
X150281714Y-78107000D01*
X150210285Y-78785571D02*
X150210285Y-78428428D01*
X150567428Y-78392714D01*
X150531714Y-78428428D01*
X150496000Y-78499857D01*
X150496000Y-78678428D01*
X150531714Y-78749857D01*
X150567428Y-78785571D01*
X150638857Y-78821285D01*
X150817428Y-78821285D01*
X150888857Y-78785571D01*
X150924571Y-78749857D01*
X150960285Y-78678428D01*
X150960285Y-78499857D01*
X150924571Y-78428428D01*
X150888857Y-78392714D01*
G04 #@! TO.C,C6*
X145809857Y-84203000D02*
X145845571Y-84167285D01*
X145881285Y-84060142D01*
X145881285Y-83988714D01*
X145845571Y-83881571D01*
X145774142Y-83810142D01*
X145702714Y-83774428D01*
X145559857Y-83738714D01*
X145452714Y-83738714D01*
X145309857Y-83774428D01*
X145238428Y-83810142D01*
X145167000Y-83881571D01*
X145131285Y-83988714D01*
X145131285Y-84060142D01*
X145167000Y-84167285D01*
X145202714Y-84203000D01*
X145131285Y-84845857D02*
X145131285Y-84703000D01*
X145167000Y-84631571D01*
X145202714Y-84595857D01*
X145309857Y-84524428D01*
X145452714Y-84488714D01*
X145738428Y-84488714D01*
X145809857Y-84524428D01*
X145845571Y-84560142D01*
X145881285Y-84631571D01*
X145881285Y-84774428D01*
X145845571Y-84845857D01*
X145809857Y-84881571D01*
X145738428Y-84917285D01*
X145559857Y-84917285D01*
X145488428Y-84881571D01*
X145452714Y-84845857D01*
X145417000Y-84774428D01*
X145417000Y-84631571D01*
X145452714Y-84560142D01*
X145488428Y-84524428D01*
X145559857Y-84488714D01*
G04 #@! TO.C,C7*
X150128857Y-88013000D02*
X150164571Y-87977285D01*
X150200285Y-87870142D01*
X150200285Y-87798714D01*
X150164571Y-87691571D01*
X150093142Y-87620142D01*
X150021714Y-87584428D01*
X149878857Y-87548714D01*
X149771714Y-87548714D01*
X149628857Y-87584428D01*
X149557428Y-87620142D01*
X149486000Y-87691571D01*
X149450285Y-87798714D01*
X149450285Y-87870142D01*
X149486000Y-87977285D01*
X149521714Y-88013000D01*
X149450285Y-88263000D02*
X149450285Y-88763000D01*
X150200285Y-88441571D01*
G04 #@! TO.C,C8*
X148095857Y-138051000D02*
X148131571Y-138015285D01*
X148167285Y-137908142D01*
X148167285Y-137836714D01*
X148131571Y-137729571D01*
X148060142Y-137658142D01*
X147988714Y-137622428D01*
X147845857Y-137586714D01*
X147738714Y-137586714D01*
X147595857Y-137622428D01*
X147524428Y-137658142D01*
X147453000Y-137729571D01*
X147417285Y-137836714D01*
X147417285Y-137908142D01*
X147453000Y-138015285D01*
X147488714Y-138051000D01*
X147738714Y-138479571D02*
X147703000Y-138408142D01*
X147667285Y-138372428D01*
X147595857Y-138336714D01*
X147560142Y-138336714D01*
X147488714Y-138372428D01*
X147453000Y-138408142D01*
X147417285Y-138479571D01*
X147417285Y-138622428D01*
X147453000Y-138693857D01*
X147488714Y-138729571D01*
X147560142Y-138765285D01*
X147595857Y-138765285D01*
X147667285Y-138729571D01*
X147703000Y-138693857D01*
X147738714Y-138622428D01*
X147738714Y-138479571D01*
X147774428Y-138408142D01*
X147810142Y-138372428D01*
X147881571Y-138336714D01*
X148024428Y-138336714D01*
X148095857Y-138372428D01*
X148131571Y-138408142D01*
X148167285Y-138479571D01*
X148167285Y-138622428D01*
X148131571Y-138693857D01*
X148095857Y-138729571D01*
X148024428Y-138765285D01*
X147881571Y-138765285D01*
X147810142Y-138729571D01*
X147774428Y-138693857D01*
X147738714Y-138622428D01*
G04 #@! TO.C,C9*
X151651857Y-140845000D02*
X151687571Y-140809285D01*
X151723285Y-140702142D01*
X151723285Y-140630714D01*
X151687571Y-140523571D01*
X151616142Y-140452142D01*
X151544714Y-140416428D01*
X151401857Y-140380714D01*
X151294714Y-140380714D01*
X151151857Y-140416428D01*
X151080428Y-140452142D01*
X151009000Y-140523571D01*
X150973285Y-140630714D01*
X150973285Y-140702142D01*
X151009000Y-140809285D01*
X151044714Y-140845000D01*
X151723285Y-141202142D02*
X151723285Y-141345000D01*
X151687571Y-141416428D01*
X151651857Y-141452142D01*
X151544714Y-141523571D01*
X151401857Y-141559285D01*
X151116142Y-141559285D01*
X151044714Y-141523571D01*
X151009000Y-141487857D01*
X150973285Y-141416428D01*
X150973285Y-141273571D01*
X151009000Y-141202142D01*
X151044714Y-141166428D01*
X151116142Y-141130714D01*
X151294714Y-141130714D01*
X151366142Y-141166428D01*
X151401857Y-141202142D01*
X151437571Y-141273571D01*
X151437571Y-141416428D01*
X151401857Y-141487857D01*
X151366142Y-141523571D01*
X151294714Y-141559285D01*
G04 #@! TO.C,F1*
X153108428Y-115320000D02*
X153108428Y-115070000D01*
X153501285Y-115070000D02*
X152751285Y-115070000D01*
X152751285Y-115427142D01*
X153501285Y-116105714D02*
X153501285Y-115677142D01*
X153501285Y-115891428D02*
X152751285Y-115891428D01*
X152858428Y-115820000D01*
X152929857Y-115748571D01*
X152965571Y-115677142D01*
G04 #@! TO.C,R1*
X149096000Y-90635285D02*
X149346000Y-90278142D01*
X149524571Y-90635285D02*
X149524571Y-89885285D01*
X149238857Y-89885285D01*
X149167428Y-89921000D01*
X149131714Y-89956714D01*
X149096000Y-90028142D01*
X149096000Y-90135285D01*
X149131714Y-90206714D01*
X149167428Y-90242428D01*
X149238857Y-90278142D01*
X149524571Y-90278142D01*
X148381714Y-90635285D02*
X148810285Y-90635285D01*
X148596000Y-90635285D02*
X148596000Y-89885285D01*
X148667428Y-89992428D01*
X148738857Y-90063857D01*
X148810285Y-90099571D01*
G04 #@! TO.C,R2*
X143468285Y-88775000D02*
X143111142Y-88525000D01*
X143468285Y-88346428D02*
X142718285Y-88346428D01*
X142718285Y-88632142D01*
X142754000Y-88703571D01*
X142789714Y-88739285D01*
X142861142Y-88775000D01*
X142968285Y-88775000D01*
X143039714Y-88739285D01*
X143075428Y-88703571D01*
X143111142Y-88632142D01*
X143111142Y-88346428D01*
X142789714Y-89060714D02*
X142754000Y-89096428D01*
X142718285Y-89167857D01*
X142718285Y-89346428D01*
X142754000Y-89417857D01*
X142789714Y-89453571D01*
X142861142Y-89489285D01*
X142932571Y-89489285D01*
X143039714Y-89453571D01*
X143468285Y-89025000D01*
X143468285Y-89489285D01*
G04 #@! TO.C,R3*
X154644285Y-85727000D02*
X154287142Y-85477000D01*
X154644285Y-85298428D02*
X153894285Y-85298428D01*
X153894285Y-85584142D01*
X153930000Y-85655571D01*
X153965714Y-85691285D01*
X154037142Y-85727000D01*
X154144285Y-85727000D01*
X154215714Y-85691285D01*
X154251428Y-85655571D01*
X154287142Y-85584142D01*
X154287142Y-85298428D01*
X153894285Y-85977000D02*
X153894285Y-86441285D01*
X154180000Y-86191285D01*
X154180000Y-86298428D01*
X154215714Y-86369857D01*
X154251428Y-86405571D01*
X154322857Y-86441285D01*
X154501428Y-86441285D01*
X154572857Y-86405571D01*
X154608571Y-86369857D01*
X154644285Y-86298428D01*
X154644285Y-86084142D01*
X154608571Y-86012714D01*
X154572857Y-85977000D01*
G04 #@! TO.C,R4*
X160993285Y-85727000D02*
X160636142Y-85477000D01*
X160993285Y-85298428D02*
X160243285Y-85298428D01*
X160243285Y-85584142D01*
X160279000Y-85655571D01*
X160314714Y-85691285D01*
X160386142Y-85727000D01*
X160493285Y-85727000D01*
X160564714Y-85691285D01*
X160600428Y-85655571D01*
X160636142Y-85584142D01*
X160636142Y-85298428D01*
X160493285Y-86369857D02*
X160993285Y-86369857D01*
X160207571Y-86191285D02*
X160743285Y-86012714D01*
X160743285Y-86477000D01*
G04 #@! TO.C,R5*
X161121285Y-135502000D02*
X160764142Y-135252000D01*
X161121285Y-135073428D02*
X160371285Y-135073428D01*
X160371285Y-135359142D01*
X160407000Y-135430571D01*
X160442714Y-135466285D01*
X160514142Y-135502000D01*
X160621285Y-135502000D01*
X160692714Y-135466285D01*
X160728428Y-135430571D01*
X160764142Y-135359142D01*
X160764142Y-135073428D01*
X160371285Y-136180571D02*
X160371285Y-135823428D01*
X160728428Y-135787714D01*
X160692714Y-135823428D01*
X160657000Y-135894857D01*
X160657000Y-136073428D01*
X160692714Y-136144857D01*
X160728428Y-136180571D01*
X160799857Y-136216285D01*
X160978428Y-136216285D01*
X161049857Y-136180571D01*
X161085571Y-136144857D01*
X161121285Y-136073428D01*
X161121285Y-135894857D01*
X161085571Y-135823428D01*
X161049857Y-135787714D01*
G04 #@! TO.C,R6*
X157311285Y-135502000D02*
X156954142Y-135252000D01*
X157311285Y-135073428D02*
X156561285Y-135073428D01*
X156561285Y-135359142D01*
X156597000Y-135430571D01*
X156632714Y-135466285D01*
X156704142Y-135502000D01*
X156811285Y-135502000D01*
X156882714Y-135466285D01*
X156918428Y-135430571D01*
X156954142Y-135359142D01*
X156954142Y-135073428D01*
X156561285Y-136144857D02*
X156561285Y-136002000D01*
X156597000Y-135930571D01*
X156632714Y-135894857D01*
X156739857Y-135823428D01*
X156882714Y-135787714D01*
X157168428Y-135787714D01*
X157239857Y-135823428D01*
X157275571Y-135859142D01*
X157311285Y-135930571D01*
X157311285Y-136073428D01*
X157275571Y-136144857D01*
X157239857Y-136180571D01*
X157168428Y-136216285D01*
X156989857Y-136216285D01*
X156918428Y-136180571D01*
X156882714Y-136144857D01*
X156847000Y-136073428D01*
X156847000Y-135930571D01*
X156882714Y-135859142D01*
X156918428Y-135823428D01*
X156989857Y-135787714D01*
G04 #@! TO.C,U3*
X144970428Y-82774285D02*
X144970428Y-83381428D01*
X144934714Y-83452857D01*
X144899000Y-83488571D01*
X144827571Y-83524285D01*
X144684714Y-83524285D01*
X144613285Y-83488571D01*
X144577571Y-83452857D01*
X144541857Y-83381428D01*
X144541857Y-82774285D01*
X144256142Y-82774285D02*
X143791857Y-82774285D01*
X144041857Y-83060000D01*
X143934714Y-83060000D01*
X143863285Y-83095714D01*
X143827571Y-83131428D01*
X143791857Y-83202857D01*
X143791857Y-83381428D01*
X143827571Y-83452857D01*
X143863285Y-83488571D01*
X143934714Y-83524285D01*
X144149000Y-83524285D01*
X144220428Y-83488571D01*
X144256142Y-83452857D01*
G04 #@! TO.C,U4*
X153479428Y-132640285D02*
X153479428Y-133247428D01*
X153443714Y-133318857D01*
X153408000Y-133354571D01*
X153336571Y-133390285D01*
X153193714Y-133390285D01*
X153122285Y-133354571D01*
X153086571Y-133318857D01*
X153050857Y-133247428D01*
X153050857Y-132640285D01*
X152372285Y-132890285D02*
X152372285Y-133390285D01*
X152550857Y-132604571D02*
X152729428Y-133140285D01*
X152265142Y-133140285D01*
G04 #@! TO.C,C1*
D14*
X150344142Y-71080333D02*
X150391761Y-71032714D01*
X150439380Y-70889857D01*
X150439380Y-70794619D01*
X150391761Y-70651761D01*
X150296523Y-70556523D01*
X150201285Y-70508904D01*
X150010809Y-70461285D01*
X149867952Y-70461285D01*
X149677476Y-70508904D01*
X149582238Y-70556523D01*
X149487000Y-70651761D01*
X149439380Y-70794619D01*
X149439380Y-70889857D01*
X149487000Y-71032714D01*
X149534619Y-71080333D01*
X150439380Y-72032714D02*
X150439380Y-71461285D01*
X150439380Y-71747000D02*
X149439380Y-71747000D01*
X149582238Y-71651761D01*
X149677476Y-71556523D01*
X149725095Y-71461285D01*
G04 #@! TD*
M02*
