G04 #@! TF.GenerationSoftware,KiCad,Pcbnew,(5.0.1)-3*
G04 #@! TF.CreationDate,2018-11-10T00:41:14-08:00*
G04 #@! TF.ProjectId,firefly,66697265666C792E6B696361645F7063,A*
G04 #@! TF.SameCoordinates,Original*
G04 #@! TF.FileFunction,Legend,Bot*
G04 #@! TF.FilePolarity,Positive*
%FSLAX46Y46*%
G04 Gerber Fmt 4.6, Leading zero omitted, Abs format (unit mm)*
G04 Created by KiCad (PCBNEW (5.0.1)-3) date 11/10/2018 12:41:14 AM*
%MOMM*%
%LPD*%
G01*
G04 APERTURE LIST*
%ADD10C,0.180000*%
%ADD11C,0.140000*%
%ADD12C,0.400000*%
%ADD13C,0.120000*%
%ADD14C,0.010000*%
%ADD15C,0.150000*%
%ADD16C,0.300000*%
%ADD17C,0.100000*%
G04 APERTURE END LIST*
D10*
X150077514Y-103714057D02*
X150744180Y-103952152D01*
X150077514Y-104190247D01*
X150744180Y-105095009D02*
X150744180Y-104523580D01*
X150744180Y-104809295D02*
X149744180Y-104809295D01*
X149887038Y-104714057D01*
X149982276Y-104618819D01*
X150029895Y-104523580D01*
D11*
X153075047Y-92311190D02*
X152765523Y-92094523D01*
X153075047Y-91939761D02*
X152425047Y-91939761D01*
X152425047Y-92187380D01*
X152456000Y-92249285D01*
X152486952Y-92280238D01*
X152548857Y-92311190D01*
X152641714Y-92311190D01*
X152703619Y-92280238D01*
X152734571Y-92249285D01*
X152765523Y-92187380D01*
X152765523Y-91939761D01*
X153075047Y-92868333D02*
X152734571Y-92868333D01*
X152672666Y-92837380D01*
X152641714Y-92775476D01*
X152641714Y-92651666D01*
X152672666Y-92589761D01*
X153044095Y-92868333D02*
X153075047Y-92806428D01*
X153075047Y-92651666D01*
X153044095Y-92589761D01*
X152982190Y-92558809D01*
X152920285Y-92558809D01*
X152858380Y-92589761D01*
X152827428Y-92651666D01*
X152827428Y-92806428D01*
X152796476Y-92868333D01*
X152641714Y-93115952D02*
X153075047Y-93270714D01*
X152641714Y-93425476D02*
X153075047Y-93270714D01*
X153229809Y-93208809D01*
X153260761Y-93177857D01*
X153291714Y-93115952D01*
X153044095Y-94137380D02*
X153075047Y-94230238D01*
X153075047Y-94385000D01*
X153044095Y-94446904D01*
X153013142Y-94477857D01*
X152951238Y-94508809D01*
X152889333Y-94508809D01*
X152827428Y-94477857D01*
X152796476Y-94446904D01*
X152765523Y-94385000D01*
X152734571Y-94261190D01*
X152703619Y-94199285D01*
X152672666Y-94168333D01*
X152610761Y-94137380D01*
X152548857Y-94137380D01*
X152486952Y-94168333D01*
X152456000Y-94199285D01*
X152425047Y-94261190D01*
X152425047Y-94415952D01*
X152456000Y-94508809D01*
X152641714Y-95065952D02*
X153075047Y-95065952D01*
X152641714Y-94787380D02*
X152982190Y-94787380D01*
X153044095Y-94818333D01*
X153075047Y-94880238D01*
X153075047Y-94973095D01*
X153044095Y-95035000D01*
X153013142Y-95065952D01*
X152641714Y-95375476D02*
X153075047Y-95375476D01*
X152703619Y-95375476D02*
X152672666Y-95406428D01*
X152641714Y-95468333D01*
X152641714Y-95561190D01*
X152672666Y-95623095D01*
X152734571Y-95654047D01*
X153075047Y-95654047D01*
X151746333Y-92010409D02*
X151746333Y-92319933D01*
X151932047Y-91948504D02*
X151282047Y-92165171D01*
X151932047Y-92381838D01*
X151282047Y-92505647D02*
X151282047Y-92877076D01*
X151932047Y-92691361D02*
X151282047Y-92691361D01*
X151932047Y-93093742D02*
X151498714Y-93093742D01*
X151560619Y-93093742D02*
X151529666Y-93124695D01*
X151498714Y-93186600D01*
X151498714Y-93279457D01*
X151529666Y-93341361D01*
X151591571Y-93372314D01*
X151932047Y-93372314D01*
X151591571Y-93372314D02*
X151529666Y-93403266D01*
X151498714Y-93465171D01*
X151498714Y-93558028D01*
X151529666Y-93619933D01*
X151591571Y-93650885D01*
X151932047Y-93650885D01*
X151901095Y-94208028D02*
X151932047Y-94146123D01*
X151932047Y-94022314D01*
X151901095Y-93960409D01*
X151839190Y-93929457D01*
X151591571Y-93929457D01*
X151529666Y-93960409D01*
X151498714Y-94022314D01*
X151498714Y-94146123D01*
X151529666Y-94208028D01*
X151591571Y-94238980D01*
X151653476Y-94238980D01*
X151715380Y-93929457D01*
X151498714Y-94796123D02*
X152024904Y-94796123D01*
X152086809Y-94765171D01*
X152117761Y-94734219D01*
X152148714Y-94672314D01*
X152148714Y-94579457D01*
X152117761Y-94517552D01*
X151901095Y-94796123D02*
X151932047Y-94734219D01*
X151932047Y-94610409D01*
X151901095Y-94548504D01*
X151870142Y-94517552D01*
X151808238Y-94486600D01*
X151622523Y-94486600D01*
X151560619Y-94517552D01*
X151529666Y-94548504D01*
X151498714Y-94610409D01*
X151498714Y-94734219D01*
X151529666Y-94796123D01*
X151932047Y-95384219D02*
X151591571Y-95384219D01*
X151529666Y-95353266D01*
X151498714Y-95291361D01*
X151498714Y-95167552D01*
X151529666Y-95105647D01*
X151901095Y-95384219D02*
X151932047Y-95322314D01*
X151932047Y-95167552D01*
X151901095Y-95105647D01*
X151839190Y-95074695D01*
X151777285Y-95074695D01*
X151715380Y-95105647D01*
X151684428Y-95167552D01*
X151684428Y-95322314D01*
X151653476Y-95384219D01*
X151560619Y-95786600D02*
X151529666Y-95724695D01*
X151498714Y-95693742D01*
X151436809Y-95662790D01*
X151405857Y-95662790D01*
X151343952Y-95693742D01*
X151313000Y-95724695D01*
X151282047Y-95786600D01*
X151282047Y-95910409D01*
X151313000Y-95972314D01*
X151343952Y-96003266D01*
X151405857Y-96034219D01*
X151436809Y-96034219D01*
X151498714Y-96003266D01*
X151529666Y-95972314D01*
X151560619Y-95910409D01*
X151560619Y-95786600D01*
X151591571Y-95724695D01*
X151622523Y-95693742D01*
X151684428Y-95662790D01*
X151808238Y-95662790D01*
X151870142Y-95693742D01*
X151901095Y-95724695D01*
X151932047Y-95786600D01*
X151932047Y-95910409D01*
X151901095Y-95972314D01*
X151870142Y-96003266D01*
X151808238Y-96034219D01*
X151684428Y-96034219D01*
X151622523Y-96003266D01*
X151591571Y-95972314D01*
X151560619Y-95910409D01*
X151282047Y-96715171D02*
X151282047Y-97086600D01*
X151932047Y-96900885D02*
X151282047Y-96900885D01*
X151932047Y-97581838D02*
X151591571Y-97581838D01*
X151529666Y-97550885D01*
X151498714Y-97488980D01*
X151498714Y-97365171D01*
X151529666Y-97303266D01*
X151901095Y-97581838D02*
X151932047Y-97519933D01*
X151932047Y-97365171D01*
X151901095Y-97303266D01*
X151839190Y-97272314D01*
X151777285Y-97272314D01*
X151715380Y-97303266D01*
X151684428Y-97365171D01*
X151684428Y-97519933D01*
X151653476Y-97581838D01*
X151932047Y-97891361D02*
X151498714Y-97891361D01*
X151622523Y-97891361D02*
X151560619Y-97922314D01*
X151529666Y-97953266D01*
X151498714Y-98015171D01*
X151498714Y-98077076D01*
X151498714Y-98572314D02*
X152024904Y-98572314D01*
X152086809Y-98541361D01*
X152117761Y-98510409D01*
X152148714Y-98448504D01*
X152148714Y-98355647D01*
X152117761Y-98293742D01*
X151901095Y-98572314D02*
X151932047Y-98510409D01*
X151932047Y-98386600D01*
X151901095Y-98324695D01*
X151870142Y-98293742D01*
X151808238Y-98262790D01*
X151622523Y-98262790D01*
X151560619Y-98293742D01*
X151529666Y-98324695D01*
X151498714Y-98386600D01*
X151498714Y-98510409D01*
X151529666Y-98572314D01*
X151901095Y-99129457D02*
X151932047Y-99067552D01*
X151932047Y-98943742D01*
X151901095Y-98881838D01*
X151839190Y-98850885D01*
X151591571Y-98850885D01*
X151529666Y-98881838D01*
X151498714Y-98943742D01*
X151498714Y-99067552D01*
X151529666Y-99129457D01*
X151591571Y-99160409D01*
X151653476Y-99160409D01*
X151715380Y-98850885D01*
X151498714Y-99346123D02*
X151498714Y-99593742D01*
X151282047Y-99438980D02*
X151839190Y-99438980D01*
X151901095Y-99469933D01*
X151932047Y-99531838D01*
X151932047Y-99593742D01*
X151591571Y-100522314D02*
X151622523Y-100615171D01*
X151653476Y-100646123D01*
X151715380Y-100677076D01*
X151808238Y-100677076D01*
X151870142Y-100646123D01*
X151901095Y-100615171D01*
X151932047Y-100553266D01*
X151932047Y-100305647D01*
X151282047Y-100305647D01*
X151282047Y-100522314D01*
X151313000Y-100584219D01*
X151343952Y-100615171D01*
X151405857Y-100646123D01*
X151467761Y-100646123D01*
X151529666Y-100615171D01*
X151560619Y-100584219D01*
X151591571Y-100522314D01*
X151591571Y-100305647D01*
X151932047Y-101048504D02*
X151901095Y-100986600D01*
X151870142Y-100955647D01*
X151808238Y-100924695D01*
X151622523Y-100924695D01*
X151560619Y-100955647D01*
X151529666Y-100986600D01*
X151498714Y-101048504D01*
X151498714Y-101141361D01*
X151529666Y-101203266D01*
X151560619Y-101234219D01*
X151622523Y-101265171D01*
X151808238Y-101265171D01*
X151870142Y-101234219D01*
X151901095Y-101203266D01*
X151932047Y-101141361D01*
X151932047Y-101048504D01*
X151932047Y-101822314D02*
X151591571Y-101822314D01*
X151529666Y-101791361D01*
X151498714Y-101729457D01*
X151498714Y-101605647D01*
X151529666Y-101543742D01*
X151901095Y-101822314D02*
X151932047Y-101760409D01*
X151932047Y-101605647D01*
X151901095Y-101543742D01*
X151839190Y-101512790D01*
X151777285Y-101512790D01*
X151715380Y-101543742D01*
X151684428Y-101605647D01*
X151684428Y-101760409D01*
X151653476Y-101822314D01*
X151932047Y-102131838D02*
X151498714Y-102131838D01*
X151622523Y-102131838D02*
X151560619Y-102162790D01*
X151529666Y-102193742D01*
X151498714Y-102255647D01*
X151498714Y-102317552D01*
X151932047Y-102812790D02*
X151282047Y-102812790D01*
X151901095Y-102812790D02*
X151932047Y-102750885D01*
X151932047Y-102627076D01*
X151901095Y-102565171D01*
X151870142Y-102534219D01*
X151808238Y-102503266D01*
X151622523Y-102503266D01*
X151560619Y-102534219D01*
X151529666Y-102565171D01*
X151498714Y-102627076D01*
X151498714Y-102750885D01*
X151529666Y-102812790D01*
D12*
X149590142Y-92766657D02*
X149590142Y-92099990D01*
X150637761Y-92099990D02*
X148637761Y-92099990D01*
X148637761Y-93052371D01*
X150637761Y-93814276D02*
X148637761Y-93814276D01*
X150637761Y-95909514D02*
X149685380Y-95242847D01*
X150637761Y-94766657D02*
X148637761Y-94766657D01*
X148637761Y-95528561D01*
X148733000Y-95719038D01*
X148828238Y-95814276D01*
X149018714Y-95909514D01*
X149304428Y-95909514D01*
X149494904Y-95814276D01*
X149590142Y-95719038D01*
X149685380Y-95528561D01*
X149685380Y-94766657D01*
X149590142Y-96766657D02*
X149590142Y-97433323D01*
X150637761Y-97719038D02*
X150637761Y-96766657D01*
X148637761Y-96766657D01*
X148637761Y-97719038D01*
X149590142Y-99242847D02*
X149590142Y-98576180D01*
X150637761Y-98576180D02*
X148637761Y-98576180D01*
X148637761Y-99528561D01*
X150637761Y-101242847D02*
X150637761Y-100290466D01*
X148637761Y-100290466D01*
X149685380Y-102290466D02*
X150637761Y-102290466D01*
X148637761Y-101623800D02*
X149685380Y-102290466D01*
X148637761Y-102957133D01*
D13*
G04 #@! TO.C,C9*
X151690000Y-109481252D02*
X151690000Y-108958748D01*
X153110000Y-109481252D02*
X153110000Y-108958748D01*
G04 #@! TO.C,C1*
X144728000Y-73159252D02*
X144728000Y-72636748D01*
X143308000Y-73159252D02*
X143308000Y-72636748D01*
G04 #@! TO.C,C7*
X144010748Y-77014000D02*
X144533252Y-77014000D01*
X144010748Y-78434000D02*
X144533252Y-78434000D01*
G04 #@! TO.C,C8*
X148261000Y-79010252D02*
X148261000Y-78487748D01*
X149681000Y-79010252D02*
X149681000Y-78487748D01*
G04 #@! TO.C,C2*
X147712500Y-85922752D02*
X147712500Y-85400248D01*
X146292500Y-85922752D02*
X146292500Y-85400248D01*
G04 #@! TO.C,C3*
X152221000Y-87123748D02*
X152221000Y-87646252D01*
X150801000Y-87123748D02*
X150801000Y-87646252D01*
G04 #@! TO.C,C5*
X148538000Y-139081252D02*
X148538000Y-138558748D01*
X147118000Y-139081252D02*
X147118000Y-138558748D01*
G04 #@! TO.C,C4*
X152198000Y-139438748D02*
X152198000Y-139961252D01*
X153618000Y-139438748D02*
X153618000Y-139961252D01*
G04 #@! TO.C,R2*
X146550748Y-88253500D02*
X147073252Y-88253500D01*
X146550748Y-89673500D02*
X147073252Y-89673500D01*
G04 #@! TO.C,R1*
X140895000Y-87359748D02*
X140895000Y-87882252D01*
X142315000Y-87359748D02*
X142315000Y-87882252D01*
G04 #@! TO.C,R4*
X155246000Y-86113252D02*
X155246000Y-85590748D01*
X156666000Y-86113252D02*
X156666000Y-85590748D01*
G04 #@! TO.C,R5*
X159714000Y-86113252D02*
X159714000Y-85590748D01*
X158294000Y-86113252D02*
X158294000Y-85590748D01*
G04 #@! TO.C,R7*
X159310000Y-132825748D02*
X159310000Y-133348252D01*
X160730000Y-132825748D02*
X160730000Y-133348252D01*
G04 #@! TO.C,R3*
X156770000Y-133348252D02*
X156770000Y-132825748D01*
X158190000Y-133348252D02*
X158190000Y-132825748D01*
G04 #@! TO.C,U2*
X145426000Y-82509000D02*
X142976000Y-82509000D01*
X143626000Y-79289000D02*
X145426000Y-79289000D01*
G04 #@! TO.C,C6*
X146094000Y-72882000D02*
X146094000Y-70882000D01*
X149054000Y-70882000D02*
X149054000Y-72882000D01*
D14*
G04 #@! TO.C,REF\002A\002A*
G36*
X150499036Y-123020018D02*
X150442188Y-123321570D01*
X150022662Y-123494512D01*
X149771016Y-123323395D01*
X149700542Y-123275750D01*
X149636837Y-123233210D01*
X149582874Y-123197715D01*
X149541627Y-123171210D01*
X149516066Y-123155636D01*
X149509105Y-123152278D01*
X149496565Y-123160914D01*
X149469769Y-123184792D01*
X149431720Y-123220859D01*
X149385421Y-123266067D01*
X149333877Y-123317364D01*
X149280091Y-123371701D01*
X149227065Y-123426028D01*
X149177805Y-123477295D01*
X149135313Y-123522451D01*
X149102593Y-123558446D01*
X149082649Y-123582230D01*
X149077881Y-123590190D01*
X149084743Y-123604865D01*
X149103980Y-123637014D01*
X149133570Y-123683492D01*
X149171490Y-123741156D01*
X149215718Y-123806860D01*
X149241346Y-123844336D01*
X149288059Y-123912768D01*
X149329568Y-123974520D01*
X149363860Y-124026519D01*
X149388920Y-124065692D01*
X149402736Y-124088965D01*
X149404812Y-124093855D01*
X149400105Y-124107755D01*
X149387277Y-124140150D01*
X149368262Y-124186485D01*
X149344997Y-124242206D01*
X149319416Y-124302758D01*
X149293455Y-124363586D01*
X149269050Y-124420136D01*
X149248137Y-124467852D01*
X149232651Y-124502181D01*
X149224528Y-124518568D01*
X149224048Y-124519212D01*
X149211293Y-124522341D01*
X149177323Y-124529321D01*
X149125660Y-124539467D01*
X149059824Y-124552092D01*
X148983336Y-124566509D01*
X148938710Y-124574823D01*
X148856979Y-124590384D01*
X148783157Y-124605192D01*
X148720979Y-124618436D01*
X148674178Y-124629305D01*
X148646491Y-124636989D01*
X148640926Y-124639427D01*
X148635474Y-124655930D01*
X148631076Y-124693200D01*
X148627728Y-124746880D01*
X148625426Y-124812612D01*
X148624168Y-124886037D01*
X148623952Y-124962796D01*
X148624773Y-125038532D01*
X148626629Y-125108886D01*
X148629518Y-125169500D01*
X148633435Y-125216016D01*
X148638378Y-125244075D01*
X148641343Y-125249916D01*
X148659066Y-125256917D01*
X148696619Y-125266927D01*
X148749036Y-125278769D01*
X148811348Y-125291267D01*
X148833100Y-125295310D01*
X148937976Y-125314520D01*
X149020820Y-125329991D01*
X149084370Y-125342337D01*
X149131363Y-125352173D01*
X149164537Y-125360114D01*
X149186629Y-125366776D01*
X149200376Y-125372773D01*
X149208516Y-125378719D01*
X149209655Y-125379894D01*
X149221023Y-125398826D01*
X149238365Y-125435669D01*
X149259950Y-125485913D01*
X149284046Y-125545046D01*
X149308921Y-125608556D01*
X149332843Y-125671932D01*
X149354081Y-125730662D01*
X149370903Y-125780235D01*
X149381578Y-125816139D01*
X149384373Y-125833862D01*
X149384140Y-125834483D01*
X149374669Y-125848970D01*
X149353182Y-125880844D01*
X149321937Y-125926789D01*
X149283193Y-125983485D01*
X149239207Y-126047617D01*
X149226681Y-126065842D01*
X149182016Y-126131914D01*
X149142712Y-126192200D01*
X149110912Y-126243235D01*
X149088755Y-126281560D01*
X149078383Y-126303711D01*
X149077881Y-126306432D01*
X149086595Y-126320736D01*
X149110675Y-126349072D01*
X149147024Y-126388396D01*
X149192547Y-126435661D01*
X149244148Y-126487823D01*
X149298733Y-126541835D01*
X149353206Y-126594653D01*
X149404471Y-126643231D01*
X149449433Y-126684523D01*
X149484996Y-126715485D01*
X149508065Y-126733070D01*
X149514446Y-126735941D01*
X149529301Y-126729178D01*
X149559714Y-126710939D01*
X149600732Y-126684297D01*
X149632291Y-126662852D01*
X149689475Y-126623503D01*
X149757194Y-126577171D01*
X149825120Y-126530913D01*
X149861639Y-126506155D01*
X149985248Y-126422547D01*
X150089009Y-126478650D01*
X150136280Y-126503228D01*
X150176477Y-126522331D01*
X150203674Y-126533227D01*
X150210598Y-126534743D01*
X150218923Y-126523549D01*
X150235346Y-126491917D01*
X150258643Y-126442765D01*
X150287586Y-126379010D01*
X150320950Y-126303571D01*
X150357509Y-126219364D01*
X150396036Y-126129308D01*
X150435306Y-126036321D01*
X150474092Y-125943320D01*
X150511170Y-125853223D01*
X150545311Y-125768948D01*
X150575292Y-125693413D01*
X150599884Y-125629534D01*
X150617864Y-125580231D01*
X150628003Y-125548421D01*
X150629634Y-125537496D01*
X150616709Y-125523561D01*
X150588411Y-125500940D01*
X150550654Y-125474333D01*
X150547485Y-125472228D01*
X150449900Y-125394114D01*
X150371214Y-125302982D01*
X150312109Y-125201745D01*
X150273268Y-125093318D01*
X150255372Y-124980614D01*
X150259103Y-124866548D01*
X150285143Y-124754034D01*
X150334175Y-124645985D01*
X150348600Y-124622345D01*
X150423631Y-124526887D01*
X150512270Y-124450232D01*
X150611451Y-124392780D01*
X150718105Y-124354929D01*
X150829164Y-124337078D01*
X150941561Y-124339625D01*
X151052227Y-124362970D01*
X151158094Y-124407510D01*
X151256095Y-124473645D01*
X151286410Y-124500487D01*
X151363562Y-124584512D01*
X151419782Y-124672966D01*
X151458347Y-124772115D01*
X151479826Y-124870303D01*
X151485128Y-124980697D01*
X151467448Y-125091640D01*
X151428581Y-125199381D01*
X151370323Y-125300169D01*
X151294469Y-125390256D01*
X151202817Y-125465892D01*
X151190772Y-125473864D01*
X151152611Y-125499974D01*
X151123601Y-125522595D01*
X151109732Y-125537039D01*
X151109531Y-125537496D01*
X151112508Y-125553121D01*
X151124311Y-125588582D01*
X151143714Y-125640962D01*
X151169488Y-125707345D01*
X151200409Y-125784814D01*
X151235249Y-125870450D01*
X151272783Y-125961337D01*
X151311783Y-126054559D01*
X151351023Y-126147197D01*
X151389276Y-126236335D01*
X151425317Y-126319055D01*
X151457917Y-126392441D01*
X151485852Y-126453575D01*
X151507895Y-126499541D01*
X151522818Y-126527421D01*
X151528828Y-126534743D01*
X151547191Y-126529041D01*
X151581552Y-126513749D01*
X151625984Y-126491599D01*
X151650417Y-126478650D01*
X151754178Y-126422547D01*
X151877787Y-126506155D01*
X151940886Y-126548987D01*
X152009970Y-126596122D01*
X152074707Y-126640503D01*
X152107134Y-126662852D01*
X152152741Y-126693477D01*
X152191360Y-126717747D01*
X152217952Y-126732587D01*
X152226590Y-126735724D01*
X152239161Y-126727261D01*
X152266984Y-126703636D01*
X152307361Y-126667302D01*
X152357595Y-126620711D01*
X152414988Y-126566317D01*
X152451286Y-126531392D01*
X152514790Y-126468996D01*
X152569673Y-126413188D01*
X152613714Y-126366354D01*
X152644695Y-126330882D01*
X152660398Y-126309161D01*
X152661905Y-126304752D01*
X152654914Y-126287985D01*
X152635594Y-126254082D01*
X152606091Y-126206476D01*
X152568545Y-126148599D01*
X152525100Y-126083884D01*
X152512745Y-126065842D01*
X152467727Y-126000267D01*
X152427340Y-125941228D01*
X152393840Y-125892042D01*
X152369486Y-125856028D01*
X152356536Y-125836502D01*
X152355285Y-125834483D01*
X152357156Y-125818922D01*
X152367087Y-125784709D01*
X152383347Y-125736355D01*
X152404205Y-125678371D01*
X152427927Y-125615270D01*
X152452784Y-125551563D01*
X152477042Y-125491761D01*
X152498971Y-125440376D01*
X152516838Y-125401919D01*
X152528913Y-125380902D01*
X152529771Y-125379894D01*
X152537154Y-125373888D01*
X152549625Y-125367948D01*
X152569920Y-125361460D01*
X152600778Y-125353809D01*
X152644934Y-125344380D01*
X152705126Y-125332559D01*
X152784093Y-125317729D01*
X152884570Y-125299277D01*
X152906325Y-125295310D01*
X152970802Y-125282853D01*
X153027011Y-125270666D01*
X153069987Y-125259926D01*
X153094760Y-125251809D01*
X153098082Y-125249916D01*
X153103556Y-125233138D01*
X153108006Y-125195645D01*
X153111428Y-125141794D01*
X153113819Y-125075944D01*
X153115177Y-125002453D01*
X153115499Y-124925680D01*
X153114781Y-124849983D01*
X153113021Y-124779720D01*
X153110216Y-124719250D01*
X153106362Y-124672930D01*
X153101457Y-124645119D01*
X153098500Y-124639427D01*
X153082037Y-124633686D01*
X153044551Y-124624345D01*
X152989775Y-124612215D01*
X152921445Y-124598107D01*
X152843294Y-124582830D01*
X152800716Y-124574823D01*
X152719929Y-124559721D01*
X152647887Y-124546040D01*
X152588111Y-124534467D01*
X152544121Y-124525687D01*
X152519439Y-124520387D01*
X152515377Y-124519212D01*
X152508511Y-124505965D01*
X152493998Y-124474057D01*
X152473771Y-124428047D01*
X152449766Y-124372492D01*
X152423918Y-124311953D01*
X152398160Y-124250986D01*
X152374427Y-124194151D01*
X152354654Y-124146006D01*
X152340776Y-124111110D01*
X152334726Y-124094021D01*
X152334614Y-124093274D01*
X152341472Y-124079793D01*
X152360698Y-124048770D01*
X152390272Y-124003289D01*
X152428173Y-123946432D01*
X152472380Y-123881283D01*
X152498079Y-123843862D01*
X152544907Y-123775247D01*
X152586499Y-123712952D01*
X152620825Y-123660129D01*
X152645857Y-123619927D01*
X152659565Y-123595500D01*
X152661544Y-123590024D01*
X152653034Y-123577278D01*
X152629507Y-123550063D01*
X152593968Y-123511428D01*
X152549423Y-123464423D01*
X152498877Y-123412095D01*
X152445336Y-123357495D01*
X152391805Y-123303670D01*
X152341289Y-123253670D01*
X152296794Y-123210543D01*
X152261325Y-123177339D01*
X152237887Y-123157106D01*
X152230046Y-123152278D01*
X152217280Y-123159067D01*
X152186744Y-123178142D01*
X152141410Y-123207561D01*
X152084244Y-123245381D01*
X152018216Y-123289661D01*
X151968410Y-123323395D01*
X151716764Y-123494512D01*
X151507001Y-123408041D01*
X151297237Y-123321570D01*
X151240389Y-123020018D01*
X151183540Y-122718466D01*
X150555885Y-122718466D01*
X150499036Y-123020018D01*
X150499036Y-123020018D01*
G37*
X150499036Y-123020018D02*
X150442188Y-123321570D01*
X150022662Y-123494512D01*
X149771016Y-123323395D01*
X149700542Y-123275750D01*
X149636837Y-123233210D01*
X149582874Y-123197715D01*
X149541627Y-123171210D01*
X149516066Y-123155636D01*
X149509105Y-123152278D01*
X149496565Y-123160914D01*
X149469769Y-123184792D01*
X149431720Y-123220859D01*
X149385421Y-123266067D01*
X149333877Y-123317364D01*
X149280091Y-123371701D01*
X149227065Y-123426028D01*
X149177805Y-123477295D01*
X149135313Y-123522451D01*
X149102593Y-123558446D01*
X149082649Y-123582230D01*
X149077881Y-123590190D01*
X149084743Y-123604865D01*
X149103980Y-123637014D01*
X149133570Y-123683492D01*
X149171490Y-123741156D01*
X149215718Y-123806860D01*
X149241346Y-123844336D01*
X149288059Y-123912768D01*
X149329568Y-123974520D01*
X149363860Y-124026519D01*
X149388920Y-124065692D01*
X149402736Y-124088965D01*
X149404812Y-124093855D01*
X149400105Y-124107755D01*
X149387277Y-124140150D01*
X149368262Y-124186485D01*
X149344997Y-124242206D01*
X149319416Y-124302758D01*
X149293455Y-124363586D01*
X149269050Y-124420136D01*
X149248137Y-124467852D01*
X149232651Y-124502181D01*
X149224528Y-124518568D01*
X149224048Y-124519212D01*
X149211293Y-124522341D01*
X149177323Y-124529321D01*
X149125660Y-124539467D01*
X149059824Y-124552092D01*
X148983336Y-124566509D01*
X148938710Y-124574823D01*
X148856979Y-124590384D01*
X148783157Y-124605192D01*
X148720979Y-124618436D01*
X148674178Y-124629305D01*
X148646491Y-124636989D01*
X148640926Y-124639427D01*
X148635474Y-124655930D01*
X148631076Y-124693200D01*
X148627728Y-124746880D01*
X148625426Y-124812612D01*
X148624168Y-124886037D01*
X148623952Y-124962796D01*
X148624773Y-125038532D01*
X148626629Y-125108886D01*
X148629518Y-125169500D01*
X148633435Y-125216016D01*
X148638378Y-125244075D01*
X148641343Y-125249916D01*
X148659066Y-125256917D01*
X148696619Y-125266927D01*
X148749036Y-125278769D01*
X148811348Y-125291267D01*
X148833100Y-125295310D01*
X148937976Y-125314520D01*
X149020820Y-125329991D01*
X149084370Y-125342337D01*
X149131363Y-125352173D01*
X149164537Y-125360114D01*
X149186629Y-125366776D01*
X149200376Y-125372773D01*
X149208516Y-125378719D01*
X149209655Y-125379894D01*
X149221023Y-125398826D01*
X149238365Y-125435669D01*
X149259950Y-125485913D01*
X149284046Y-125545046D01*
X149308921Y-125608556D01*
X149332843Y-125671932D01*
X149354081Y-125730662D01*
X149370903Y-125780235D01*
X149381578Y-125816139D01*
X149384373Y-125833862D01*
X149384140Y-125834483D01*
X149374669Y-125848970D01*
X149353182Y-125880844D01*
X149321937Y-125926789D01*
X149283193Y-125983485D01*
X149239207Y-126047617D01*
X149226681Y-126065842D01*
X149182016Y-126131914D01*
X149142712Y-126192200D01*
X149110912Y-126243235D01*
X149088755Y-126281560D01*
X149078383Y-126303711D01*
X149077881Y-126306432D01*
X149086595Y-126320736D01*
X149110675Y-126349072D01*
X149147024Y-126388396D01*
X149192547Y-126435661D01*
X149244148Y-126487823D01*
X149298733Y-126541835D01*
X149353206Y-126594653D01*
X149404471Y-126643231D01*
X149449433Y-126684523D01*
X149484996Y-126715485D01*
X149508065Y-126733070D01*
X149514446Y-126735941D01*
X149529301Y-126729178D01*
X149559714Y-126710939D01*
X149600732Y-126684297D01*
X149632291Y-126662852D01*
X149689475Y-126623503D01*
X149757194Y-126577171D01*
X149825120Y-126530913D01*
X149861639Y-126506155D01*
X149985248Y-126422547D01*
X150089009Y-126478650D01*
X150136280Y-126503228D01*
X150176477Y-126522331D01*
X150203674Y-126533227D01*
X150210598Y-126534743D01*
X150218923Y-126523549D01*
X150235346Y-126491917D01*
X150258643Y-126442765D01*
X150287586Y-126379010D01*
X150320950Y-126303571D01*
X150357509Y-126219364D01*
X150396036Y-126129308D01*
X150435306Y-126036321D01*
X150474092Y-125943320D01*
X150511170Y-125853223D01*
X150545311Y-125768948D01*
X150575292Y-125693413D01*
X150599884Y-125629534D01*
X150617864Y-125580231D01*
X150628003Y-125548421D01*
X150629634Y-125537496D01*
X150616709Y-125523561D01*
X150588411Y-125500940D01*
X150550654Y-125474333D01*
X150547485Y-125472228D01*
X150449900Y-125394114D01*
X150371214Y-125302982D01*
X150312109Y-125201745D01*
X150273268Y-125093318D01*
X150255372Y-124980614D01*
X150259103Y-124866548D01*
X150285143Y-124754034D01*
X150334175Y-124645985D01*
X150348600Y-124622345D01*
X150423631Y-124526887D01*
X150512270Y-124450232D01*
X150611451Y-124392780D01*
X150718105Y-124354929D01*
X150829164Y-124337078D01*
X150941561Y-124339625D01*
X151052227Y-124362970D01*
X151158094Y-124407510D01*
X151256095Y-124473645D01*
X151286410Y-124500487D01*
X151363562Y-124584512D01*
X151419782Y-124672966D01*
X151458347Y-124772115D01*
X151479826Y-124870303D01*
X151485128Y-124980697D01*
X151467448Y-125091640D01*
X151428581Y-125199381D01*
X151370323Y-125300169D01*
X151294469Y-125390256D01*
X151202817Y-125465892D01*
X151190772Y-125473864D01*
X151152611Y-125499974D01*
X151123601Y-125522595D01*
X151109732Y-125537039D01*
X151109531Y-125537496D01*
X151112508Y-125553121D01*
X151124311Y-125588582D01*
X151143714Y-125640962D01*
X151169488Y-125707345D01*
X151200409Y-125784814D01*
X151235249Y-125870450D01*
X151272783Y-125961337D01*
X151311783Y-126054559D01*
X151351023Y-126147197D01*
X151389276Y-126236335D01*
X151425317Y-126319055D01*
X151457917Y-126392441D01*
X151485852Y-126453575D01*
X151507895Y-126499541D01*
X151522818Y-126527421D01*
X151528828Y-126534743D01*
X151547191Y-126529041D01*
X151581552Y-126513749D01*
X151625984Y-126491599D01*
X151650417Y-126478650D01*
X151754178Y-126422547D01*
X151877787Y-126506155D01*
X151940886Y-126548987D01*
X152009970Y-126596122D01*
X152074707Y-126640503D01*
X152107134Y-126662852D01*
X152152741Y-126693477D01*
X152191360Y-126717747D01*
X152217952Y-126732587D01*
X152226590Y-126735724D01*
X152239161Y-126727261D01*
X152266984Y-126703636D01*
X152307361Y-126667302D01*
X152357595Y-126620711D01*
X152414988Y-126566317D01*
X152451286Y-126531392D01*
X152514790Y-126468996D01*
X152569673Y-126413188D01*
X152613714Y-126366354D01*
X152644695Y-126330882D01*
X152660398Y-126309161D01*
X152661905Y-126304752D01*
X152654914Y-126287985D01*
X152635594Y-126254082D01*
X152606091Y-126206476D01*
X152568545Y-126148599D01*
X152525100Y-126083884D01*
X152512745Y-126065842D01*
X152467727Y-126000267D01*
X152427340Y-125941228D01*
X152393840Y-125892042D01*
X152369486Y-125856028D01*
X152356536Y-125836502D01*
X152355285Y-125834483D01*
X152357156Y-125818922D01*
X152367087Y-125784709D01*
X152383347Y-125736355D01*
X152404205Y-125678371D01*
X152427927Y-125615270D01*
X152452784Y-125551563D01*
X152477042Y-125491761D01*
X152498971Y-125440376D01*
X152516838Y-125401919D01*
X152528913Y-125380902D01*
X152529771Y-125379894D01*
X152537154Y-125373888D01*
X152549625Y-125367948D01*
X152569920Y-125361460D01*
X152600778Y-125353809D01*
X152644934Y-125344380D01*
X152705126Y-125332559D01*
X152784093Y-125317729D01*
X152884570Y-125299277D01*
X152906325Y-125295310D01*
X152970802Y-125282853D01*
X153027011Y-125270666D01*
X153069987Y-125259926D01*
X153094760Y-125251809D01*
X153098082Y-125249916D01*
X153103556Y-125233138D01*
X153108006Y-125195645D01*
X153111428Y-125141794D01*
X153113819Y-125075944D01*
X153115177Y-125002453D01*
X153115499Y-124925680D01*
X153114781Y-124849983D01*
X153113021Y-124779720D01*
X153110216Y-124719250D01*
X153106362Y-124672930D01*
X153101457Y-124645119D01*
X153098500Y-124639427D01*
X153082037Y-124633686D01*
X153044551Y-124624345D01*
X152989775Y-124612215D01*
X152921445Y-124598107D01*
X152843294Y-124582830D01*
X152800716Y-124574823D01*
X152719929Y-124559721D01*
X152647887Y-124546040D01*
X152588111Y-124534467D01*
X152544121Y-124525687D01*
X152519439Y-124520387D01*
X152515377Y-124519212D01*
X152508511Y-124505965D01*
X152493998Y-124474057D01*
X152473771Y-124428047D01*
X152449766Y-124372492D01*
X152423918Y-124311953D01*
X152398160Y-124250986D01*
X152374427Y-124194151D01*
X152354654Y-124146006D01*
X152340776Y-124111110D01*
X152334726Y-124094021D01*
X152334614Y-124093274D01*
X152341472Y-124079793D01*
X152360698Y-124048770D01*
X152390272Y-124003289D01*
X152428173Y-123946432D01*
X152472380Y-123881283D01*
X152498079Y-123843862D01*
X152544907Y-123775247D01*
X152586499Y-123712952D01*
X152620825Y-123660129D01*
X152645857Y-123619927D01*
X152659565Y-123595500D01*
X152661544Y-123590024D01*
X152653034Y-123577278D01*
X152629507Y-123550063D01*
X152593968Y-123511428D01*
X152549423Y-123464423D01*
X152498877Y-123412095D01*
X152445336Y-123357495D01*
X152391805Y-123303670D01*
X152341289Y-123253670D01*
X152296794Y-123210543D01*
X152261325Y-123177339D01*
X152237887Y-123157106D01*
X152230046Y-123152278D01*
X152217280Y-123159067D01*
X152186744Y-123178142D01*
X152141410Y-123207561D01*
X152084244Y-123245381D01*
X152018216Y-123289661D01*
X151968410Y-123323395D01*
X151716764Y-123494512D01*
X151507001Y-123408041D01*
X151297237Y-123321570D01*
X151240389Y-123020018D01*
X151183540Y-122718466D01*
X150555885Y-122718466D01*
X150499036Y-123020018D01*
G36*
X149076540Y-127188030D02*
X149033289Y-127201245D01*
X149005442Y-127217941D01*
X148996371Y-127231145D01*
X148998868Y-127246797D01*
X149015069Y-127271385D01*
X149028768Y-127288800D01*
X149057008Y-127320283D01*
X149078225Y-127333529D01*
X149096312Y-127332664D01*
X149149965Y-127319010D01*
X149189370Y-127319630D01*
X149221368Y-127335104D01*
X149232110Y-127344161D01*
X149266495Y-127376027D01*
X149266495Y-127792179D01*
X149404812Y-127792179D01*
X149404812Y-127188614D01*
X149335653Y-127188614D01*
X149294131Y-127190256D01*
X149272709Y-127196087D01*
X149266498Y-127207461D01*
X149266495Y-127207798D01*
X149263561Y-127219713D01*
X149250296Y-127218159D01*
X149231916Y-127209563D01*
X149193954Y-127193568D01*
X149163128Y-127183945D01*
X149123464Y-127181478D01*
X149076540Y-127188030D01*
X149076540Y-127188030D01*
G37*
X149076540Y-127188030D02*
X149033289Y-127201245D01*
X149005442Y-127217941D01*
X148996371Y-127231145D01*
X148998868Y-127246797D01*
X149015069Y-127271385D01*
X149028768Y-127288800D01*
X149057008Y-127320283D01*
X149078225Y-127333529D01*
X149096312Y-127332664D01*
X149149965Y-127319010D01*
X149189370Y-127319630D01*
X149221368Y-127335104D01*
X149232110Y-127344161D01*
X149266495Y-127376027D01*
X149266495Y-127792179D01*
X149404812Y-127792179D01*
X149404812Y-127188614D01*
X149335653Y-127188614D01*
X149294131Y-127190256D01*
X149272709Y-127196087D01*
X149266498Y-127207461D01*
X149266495Y-127207798D01*
X149263561Y-127219713D01*
X149250296Y-127218159D01*
X149231916Y-127209563D01*
X149193954Y-127193568D01*
X149163128Y-127183945D01*
X149123464Y-127181478D01*
X149076540Y-127188030D01*
G36*
X151630012Y-127199002D02*
X151598717Y-127213950D01*
X151568409Y-127235541D01*
X151545318Y-127260391D01*
X151528500Y-127292087D01*
X151517006Y-127334214D01*
X151509891Y-127390358D01*
X151506207Y-127464106D01*
X151505008Y-127559044D01*
X151504989Y-127568985D01*
X151504713Y-127792179D01*
X151643030Y-127792179D01*
X151643030Y-127586418D01*
X151643128Y-127510189D01*
X151643809Y-127454939D01*
X151645651Y-127416501D01*
X151649233Y-127390706D01*
X151655132Y-127373384D01*
X151663927Y-127360368D01*
X151676180Y-127347507D01*
X151719047Y-127319873D01*
X151765843Y-127314745D01*
X151810424Y-127332217D01*
X151825928Y-127345221D01*
X151837310Y-127357447D01*
X151845481Y-127370540D01*
X151850974Y-127388615D01*
X151854320Y-127415787D01*
X151856051Y-127456170D01*
X151856697Y-127513879D01*
X151856792Y-127584132D01*
X151856792Y-127792179D01*
X151995109Y-127792179D01*
X151995109Y-127188614D01*
X151925950Y-127188614D01*
X151884428Y-127190256D01*
X151863006Y-127196087D01*
X151856795Y-127207461D01*
X151856792Y-127207798D01*
X151853910Y-127218938D01*
X151841199Y-127217674D01*
X151815926Y-127205434D01*
X151758605Y-127187424D01*
X151693037Y-127185421D01*
X151630012Y-127199002D01*
X151630012Y-127199002D01*
G37*
X151630012Y-127199002D02*
X151598717Y-127213950D01*
X151568409Y-127235541D01*
X151545318Y-127260391D01*
X151528500Y-127292087D01*
X151517006Y-127334214D01*
X151509891Y-127390358D01*
X151506207Y-127464106D01*
X151505008Y-127559044D01*
X151504989Y-127568985D01*
X151504713Y-127792179D01*
X151643030Y-127792179D01*
X151643030Y-127586418D01*
X151643128Y-127510189D01*
X151643809Y-127454939D01*
X151645651Y-127416501D01*
X151649233Y-127390706D01*
X151655132Y-127373384D01*
X151663927Y-127360368D01*
X151676180Y-127347507D01*
X151719047Y-127319873D01*
X151765843Y-127314745D01*
X151810424Y-127332217D01*
X151825928Y-127345221D01*
X151837310Y-127357447D01*
X151845481Y-127370540D01*
X151850974Y-127388615D01*
X151854320Y-127415787D01*
X151856051Y-127456170D01*
X151856697Y-127513879D01*
X151856792Y-127584132D01*
X151856792Y-127792179D01*
X151995109Y-127792179D01*
X151995109Y-127188614D01*
X151925950Y-127188614D01*
X151884428Y-127190256D01*
X151863006Y-127196087D01*
X151856795Y-127207461D01*
X151856792Y-127207798D01*
X151853910Y-127218938D01*
X151841199Y-127217674D01*
X151815926Y-127205434D01*
X151758605Y-127187424D01*
X151693037Y-127185421D01*
X151630012Y-127199002D01*
G36*
X148198102Y-127186457D02*
X148165904Y-127194279D01*
X148104175Y-127222921D01*
X148051390Y-127266667D01*
X148014859Y-127319117D01*
X148009840Y-127330893D01*
X148002955Y-127361740D01*
X147998136Y-127407371D01*
X147996495Y-127453492D01*
X147996495Y-127540693D01*
X148178822Y-127540693D01*
X148254021Y-127540978D01*
X148306997Y-127542704D01*
X148340675Y-127547181D01*
X148357980Y-127555720D01*
X148361837Y-127569630D01*
X148355171Y-127590222D01*
X148343230Y-127614315D01*
X148309920Y-127654525D01*
X148263632Y-127674558D01*
X148207056Y-127673905D01*
X148142969Y-127652101D01*
X148087583Y-127625193D01*
X148041625Y-127661532D01*
X147995667Y-127697872D01*
X148038904Y-127737819D01*
X148096626Y-127775563D01*
X148167614Y-127798320D01*
X148243971Y-127804688D01*
X148317801Y-127793268D01*
X148329713Y-127789393D01*
X148394601Y-127755506D01*
X148442870Y-127704986D01*
X148475535Y-127636325D01*
X148493615Y-127548014D01*
X148493825Y-127546121D01*
X148495444Y-127449878D01*
X148488900Y-127415542D01*
X148361148Y-127415542D01*
X148349416Y-127420822D01*
X148317562Y-127424867D01*
X148270603Y-127427176D01*
X148240846Y-127427525D01*
X148185352Y-127427306D01*
X148150654Y-127425916D01*
X148132399Y-127422251D01*
X148126234Y-127415210D01*
X148127805Y-127403690D01*
X148129122Y-127399233D01*
X148151618Y-127357355D01*
X148186997Y-127323604D01*
X148218220Y-127308773D01*
X148259699Y-127309668D01*
X148301731Y-127328164D01*
X148336988Y-127358786D01*
X148358146Y-127396062D01*
X148361148Y-127415542D01*
X148488900Y-127415542D01*
X148479310Y-127365229D01*
X148447302Y-127294191D01*
X148401299Y-127238779D01*
X148343179Y-127201009D01*
X148274820Y-127182896D01*
X148198102Y-127186457D01*
X148198102Y-127186457D01*
G37*
X148198102Y-127186457D02*
X148165904Y-127194279D01*
X148104175Y-127222921D01*
X148051390Y-127266667D01*
X148014859Y-127319117D01*
X148009840Y-127330893D01*
X148002955Y-127361740D01*
X147998136Y-127407371D01*
X147996495Y-127453492D01*
X147996495Y-127540693D01*
X148178822Y-127540693D01*
X148254021Y-127540978D01*
X148306997Y-127542704D01*
X148340675Y-127547181D01*
X148357980Y-127555720D01*
X148361837Y-127569630D01*
X148355171Y-127590222D01*
X148343230Y-127614315D01*
X148309920Y-127654525D01*
X148263632Y-127674558D01*
X148207056Y-127673905D01*
X148142969Y-127652101D01*
X148087583Y-127625193D01*
X148041625Y-127661532D01*
X147995667Y-127697872D01*
X148038904Y-127737819D01*
X148096626Y-127775563D01*
X148167614Y-127798320D01*
X148243971Y-127804688D01*
X148317801Y-127793268D01*
X148329713Y-127789393D01*
X148394601Y-127755506D01*
X148442870Y-127704986D01*
X148475535Y-127636325D01*
X148493615Y-127548014D01*
X148493825Y-127546121D01*
X148495444Y-127449878D01*
X148488900Y-127415542D01*
X148361148Y-127415542D01*
X148349416Y-127420822D01*
X148317562Y-127424867D01*
X148270603Y-127427176D01*
X148240846Y-127427525D01*
X148185352Y-127427306D01*
X148150654Y-127425916D01*
X148132399Y-127422251D01*
X148126234Y-127415210D01*
X148127805Y-127403690D01*
X148129122Y-127399233D01*
X148151618Y-127357355D01*
X148186997Y-127323604D01*
X148218220Y-127308773D01*
X148259699Y-127309668D01*
X148301731Y-127328164D01*
X148336988Y-127358786D01*
X148358146Y-127396062D01*
X148361148Y-127415542D01*
X148488900Y-127415542D01*
X148479310Y-127365229D01*
X148447302Y-127294191D01*
X148401299Y-127238779D01*
X148343179Y-127201009D01*
X148274820Y-127182896D01*
X148198102Y-127186457D01*
G36*
X148658774Y-127193880D02*
X148585920Y-127224830D01*
X148562973Y-127239895D01*
X148533646Y-127263048D01*
X148515236Y-127281253D01*
X148512039Y-127287183D01*
X148521065Y-127300340D01*
X148544163Y-127322667D01*
X148562656Y-127338250D01*
X148613272Y-127378926D01*
X148653240Y-127345295D01*
X148684126Y-127323584D01*
X148714241Y-127316090D01*
X148748708Y-127317920D01*
X148803439Y-127331528D01*
X148841114Y-127359772D01*
X148864009Y-127405433D01*
X148874403Y-127471289D01*
X148874405Y-127471331D01*
X148873506Y-127544939D01*
X148859537Y-127598946D01*
X148831672Y-127635716D01*
X148812675Y-127648168D01*
X148762224Y-127663673D01*
X148708337Y-127663683D01*
X148661454Y-127648638D01*
X148650356Y-127641287D01*
X148622524Y-127622511D01*
X148600764Y-127619434D01*
X148577296Y-127633409D01*
X148551351Y-127658510D01*
X148510284Y-127700880D01*
X148555879Y-127738464D01*
X148626326Y-127780882D01*
X148705767Y-127801785D01*
X148788785Y-127800272D01*
X148843306Y-127786411D01*
X148907030Y-127752135D01*
X148957995Y-127698212D01*
X148981149Y-127660149D01*
X148999901Y-127605536D01*
X149009285Y-127536369D01*
X149009357Y-127461407D01*
X149000176Y-127389409D01*
X148981801Y-127329137D01*
X148978907Y-127322958D01*
X148936048Y-127262351D01*
X148878021Y-127218224D01*
X148809409Y-127191493D01*
X148734799Y-127183073D01*
X148658774Y-127193880D01*
X148658774Y-127193880D01*
G37*
X148658774Y-127193880D02*
X148585920Y-127224830D01*
X148562973Y-127239895D01*
X148533646Y-127263048D01*
X148515236Y-127281253D01*
X148512039Y-127287183D01*
X148521065Y-127300340D01*
X148544163Y-127322667D01*
X148562656Y-127338250D01*
X148613272Y-127378926D01*
X148653240Y-127345295D01*
X148684126Y-127323584D01*
X148714241Y-127316090D01*
X148748708Y-127317920D01*
X148803439Y-127331528D01*
X148841114Y-127359772D01*
X148864009Y-127405433D01*
X148874403Y-127471289D01*
X148874405Y-127471331D01*
X148873506Y-127544939D01*
X148859537Y-127598946D01*
X148831672Y-127635716D01*
X148812675Y-127648168D01*
X148762224Y-127663673D01*
X148708337Y-127663683D01*
X148661454Y-127648638D01*
X148650356Y-127641287D01*
X148622524Y-127622511D01*
X148600764Y-127619434D01*
X148577296Y-127633409D01*
X148551351Y-127658510D01*
X148510284Y-127700880D01*
X148555879Y-127738464D01*
X148626326Y-127780882D01*
X148705767Y-127801785D01*
X148788785Y-127800272D01*
X148843306Y-127786411D01*
X148907030Y-127752135D01*
X148957995Y-127698212D01*
X148981149Y-127660149D01*
X148999901Y-127605536D01*
X149009285Y-127536369D01*
X149009357Y-127461407D01*
X149000176Y-127389409D01*
X148981801Y-127329137D01*
X148978907Y-127322958D01*
X148936048Y-127262351D01*
X148878021Y-127218224D01*
X148809409Y-127191493D01*
X148734799Y-127183073D01*
X148658774Y-127193880D01*
G36*
X149882633Y-127384342D02*
X149881445Y-127476563D01*
X149877103Y-127546610D01*
X149868442Y-127597381D01*
X149854296Y-127631772D01*
X149833500Y-127652679D01*
X149804890Y-127663000D01*
X149769465Y-127665636D01*
X149732364Y-127662682D01*
X149704182Y-127651889D01*
X149683757Y-127630360D01*
X149669921Y-127595199D01*
X149661509Y-127543510D01*
X149657357Y-127472394D01*
X149656297Y-127384342D01*
X149656297Y-127188614D01*
X149517980Y-127188614D01*
X149517980Y-127792179D01*
X149587138Y-127792179D01*
X149628830Y-127790489D01*
X149650299Y-127784556D01*
X149656297Y-127773293D01*
X149659909Y-127763261D01*
X149674286Y-127765383D01*
X149703264Y-127779580D01*
X149769681Y-127801480D01*
X149840125Y-127799928D01*
X149907623Y-127776147D01*
X149939767Y-127757362D01*
X149964285Y-127737022D01*
X149982196Y-127711573D01*
X149994521Y-127677458D01*
X150002277Y-127631121D01*
X150006484Y-127569007D01*
X150008160Y-127487561D01*
X150008376Y-127424578D01*
X150008376Y-127188614D01*
X149882633Y-127188614D01*
X149882633Y-127384342D01*
X149882633Y-127384342D01*
G37*
X149882633Y-127384342D02*
X149881445Y-127476563D01*
X149877103Y-127546610D01*
X149868442Y-127597381D01*
X149854296Y-127631772D01*
X149833500Y-127652679D01*
X149804890Y-127663000D01*
X149769465Y-127665636D01*
X149732364Y-127662682D01*
X149704182Y-127651889D01*
X149683757Y-127630360D01*
X149669921Y-127595199D01*
X149661509Y-127543510D01*
X149657357Y-127472394D01*
X149656297Y-127384342D01*
X149656297Y-127188614D01*
X149517980Y-127188614D01*
X149517980Y-127792179D01*
X149587138Y-127792179D01*
X149628830Y-127790489D01*
X149650299Y-127784556D01*
X149656297Y-127773293D01*
X149659909Y-127763261D01*
X149674286Y-127765383D01*
X149703264Y-127779580D01*
X149769681Y-127801480D01*
X149840125Y-127799928D01*
X149907623Y-127776147D01*
X149939767Y-127757362D01*
X149964285Y-127737022D01*
X149982196Y-127711573D01*
X149994521Y-127677458D01*
X150002277Y-127631121D01*
X150006484Y-127569007D01*
X150008160Y-127487561D01*
X150008376Y-127424578D01*
X150008376Y-127188614D01*
X149882633Y-127188614D01*
X149882633Y-127384342D01*
G36*
X150265238Y-127196055D02*
X150201637Y-127230692D01*
X150151877Y-127285372D01*
X150128432Y-127329842D01*
X150118366Y-127369121D01*
X150111844Y-127425116D01*
X150109049Y-127489621D01*
X150110164Y-127554429D01*
X150115374Y-127611334D01*
X150121459Y-127641727D01*
X150141986Y-127683306D01*
X150177537Y-127727468D01*
X150220381Y-127766087D01*
X150262789Y-127791034D01*
X150263823Y-127791430D01*
X150316447Y-127802331D01*
X150378812Y-127802601D01*
X150438076Y-127792676D01*
X150460960Y-127784722D01*
X150519898Y-127751300D01*
X150562110Y-127707511D01*
X150589844Y-127649538D01*
X150605349Y-127573565D01*
X150608857Y-127533771D01*
X150608410Y-127483766D01*
X150473624Y-127483766D01*
X150469083Y-127556732D01*
X150456014Y-127612334D01*
X150435244Y-127647861D01*
X150420448Y-127658020D01*
X150382536Y-127665104D01*
X150337473Y-127663007D01*
X150298513Y-127652812D01*
X150288296Y-127647204D01*
X150261341Y-127614538D01*
X150243549Y-127564545D01*
X150235976Y-127503705D01*
X150239675Y-127438497D01*
X150247943Y-127399253D01*
X150271680Y-127353805D01*
X150309151Y-127325396D01*
X150354280Y-127315573D01*
X150400989Y-127325887D01*
X150436868Y-127351112D01*
X150455723Y-127371925D01*
X150466728Y-127392439D01*
X150471974Y-127420203D01*
X150473551Y-127462762D01*
X150473624Y-127483766D01*
X150608410Y-127483766D01*
X150607906Y-127427580D01*
X150590612Y-127340501D01*
X150556971Y-127272530D01*
X150506982Y-127223664D01*
X150440644Y-127193899D01*
X150426399Y-127190448D01*
X150340790Y-127182345D01*
X150265238Y-127196055D01*
X150265238Y-127196055D01*
G37*
X150265238Y-127196055D02*
X150201637Y-127230692D01*
X150151877Y-127285372D01*
X150128432Y-127329842D01*
X150118366Y-127369121D01*
X150111844Y-127425116D01*
X150109049Y-127489621D01*
X150110164Y-127554429D01*
X150115374Y-127611334D01*
X150121459Y-127641727D01*
X150141986Y-127683306D01*
X150177537Y-127727468D01*
X150220381Y-127766087D01*
X150262789Y-127791034D01*
X150263823Y-127791430D01*
X150316447Y-127802331D01*
X150378812Y-127802601D01*
X150438076Y-127792676D01*
X150460960Y-127784722D01*
X150519898Y-127751300D01*
X150562110Y-127707511D01*
X150589844Y-127649538D01*
X150605349Y-127573565D01*
X150608857Y-127533771D01*
X150608410Y-127483766D01*
X150473624Y-127483766D01*
X150469083Y-127556732D01*
X150456014Y-127612334D01*
X150435244Y-127647861D01*
X150420448Y-127658020D01*
X150382536Y-127665104D01*
X150337473Y-127663007D01*
X150298513Y-127652812D01*
X150288296Y-127647204D01*
X150261341Y-127614538D01*
X150243549Y-127564545D01*
X150235976Y-127503705D01*
X150239675Y-127438497D01*
X150247943Y-127399253D01*
X150271680Y-127353805D01*
X150309151Y-127325396D01*
X150354280Y-127315573D01*
X150400989Y-127325887D01*
X150436868Y-127351112D01*
X150455723Y-127371925D01*
X150466728Y-127392439D01*
X150471974Y-127420203D01*
X150473551Y-127462762D01*
X150473624Y-127483766D01*
X150608410Y-127483766D01*
X150607906Y-127427580D01*
X150590612Y-127340501D01*
X150556971Y-127272530D01*
X150506982Y-127223664D01*
X150440644Y-127193899D01*
X150426399Y-127190448D01*
X150340790Y-127182345D01*
X150265238Y-127196055D01*
G36*
X150861983Y-127186452D02*
X150814366Y-127195482D01*
X150764966Y-127214370D01*
X150759688Y-127216777D01*
X150722226Y-127236476D01*
X150696283Y-127254781D01*
X150687897Y-127266508D01*
X150695883Y-127285632D01*
X150715280Y-127313850D01*
X150723890Y-127324384D01*
X150759372Y-127365847D01*
X150805115Y-127338858D01*
X150848650Y-127320878D01*
X150898950Y-127311267D01*
X150947188Y-127310660D01*
X150984533Y-127319691D01*
X150993495Y-127325327D01*
X151010563Y-127351171D01*
X151012637Y-127380941D01*
X150999866Y-127404197D01*
X150992312Y-127408708D01*
X150969675Y-127414309D01*
X150929885Y-127420892D01*
X150880834Y-127427183D01*
X150871785Y-127428170D01*
X150793004Y-127441798D01*
X150735864Y-127464946D01*
X150697970Y-127499752D01*
X150676921Y-127548354D01*
X150670365Y-127607718D01*
X150679423Y-127675198D01*
X150708836Y-127728188D01*
X150758722Y-127766783D01*
X150829200Y-127791081D01*
X150907435Y-127800667D01*
X150971234Y-127800552D01*
X151022984Y-127791845D01*
X151058327Y-127779825D01*
X151102983Y-127758880D01*
X151144253Y-127734574D01*
X151158921Y-127723876D01*
X151196643Y-127693084D01*
X151151148Y-127647049D01*
X151105653Y-127601013D01*
X151053928Y-127635243D01*
X151002048Y-127660952D01*
X150946649Y-127674399D01*
X150893395Y-127675818D01*
X150847951Y-127665443D01*
X150815984Y-127643507D01*
X150805662Y-127624998D01*
X150807211Y-127595314D01*
X150832860Y-127572615D01*
X150882540Y-127556940D01*
X150936969Y-127549695D01*
X151020736Y-127535873D01*
X151082967Y-127509796D01*
X151124493Y-127470699D01*
X151146147Y-127417820D01*
X151149147Y-127355126D01*
X151134329Y-127289642D01*
X151100546Y-127240144D01*
X151047495Y-127206408D01*
X150974874Y-127188207D01*
X150921072Y-127184639D01*
X150861983Y-127186452D01*
X150861983Y-127186452D01*
G37*
X150861983Y-127186452D02*
X150814366Y-127195482D01*
X150764966Y-127214370D01*
X150759688Y-127216777D01*
X150722226Y-127236476D01*
X150696283Y-127254781D01*
X150687897Y-127266508D01*
X150695883Y-127285632D01*
X150715280Y-127313850D01*
X150723890Y-127324384D01*
X150759372Y-127365847D01*
X150805115Y-127338858D01*
X150848650Y-127320878D01*
X150898950Y-127311267D01*
X150947188Y-127310660D01*
X150984533Y-127319691D01*
X150993495Y-127325327D01*
X151010563Y-127351171D01*
X151012637Y-127380941D01*
X150999866Y-127404197D01*
X150992312Y-127408708D01*
X150969675Y-127414309D01*
X150929885Y-127420892D01*
X150880834Y-127427183D01*
X150871785Y-127428170D01*
X150793004Y-127441798D01*
X150735864Y-127464946D01*
X150697970Y-127499752D01*
X150676921Y-127548354D01*
X150670365Y-127607718D01*
X150679423Y-127675198D01*
X150708836Y-127728188D01*
X150758722Y-127766783D01*
X150829200Y-127791081D01*
X150907435Y-127800667D01*
X150971234Y-127800552D01*
X151022984Y-127791845D01*
X151058327Y-127779825D01*
X151102983Y-127758880D01*
X151144253Y-127734574D01*
X151158921Y-127723876D01*
X151196643Y-127693084D01*
X151151148Y-127647049D01*
X151105653Y-127601013D01*
X151053928Y-127635243D01*
X151002048Y-127660952D01*
X150946649Y-127674399D01*
X150893395Y-127675818D01*
X150847951Y-127665443D01*
X150815984Y-127643507D01*
X150805662Y-127624998D01*
X150807211Y-127595314D01*
X150832860Y-127572615D01*
X150882540Y-127556940D01*
X150936969Y-127549695D01*
X151020736Y-127535873D01*
X151082967Y-127509796D01*
X151124493Y-127470699D01*
X151146147Y-127417820D01*
X151149147Y-127355126D01*
X151134329Y-127289642D01*
X151100546Y-127240144D01*
X151047495Y-127206408D01*
X150974874Y-127188207D01*
X150921072Y-127184639D01*
X150861983Y-127186452D01*
G36*
X152232699Y-127202614D02*
X152220168Y-127208514D01*
X152176799Y-127240283D01*
X152135790Y-127286646D01*
X152105168Y-127337696D01*
X152096459Y-127361166D01*
X152088512Y-127403091D01*
X152083774Y-127453757D01*
X152083199Y-127474679D01*
X152083129Y-127540693D01*
X152463083Y-127540693D01*
X152454983Y-127575273D01*
X152435104Y-127616170D01*
X152400347Y-127651514D01*
X152358998Y-127674282D01*
X152332649Y-127679010D01*
X152296916Y-127673273D01*
X152254282Y-127658882D01*
X152239799Y-127652262D01*
X152186240Y-127625513D01*
X152140533Y-127660376D01*
X152114158Y-127683955D01*
X152100124Y-127703417D01*
X152099414Y-127709129D01*
X152111951Y-127722973D01*
X152139428Y-127744012D01*
X152164366Y-127760425D01*
X152231664Y-127789930D01*
X152307110Y-127803284D01*
X152381888Y-127799812D01*
X152441495Y-127781663D01*
X152502941Y-127742784D01*
X152546608Y-127691595D01*
X152573926Y-127625367D01*
X152586322Y-127541371D01*
X152587421Y-127502936D01*
X152583022Y-127414861D01*
X152582482Y-127412299D01*
X152456582Y-127412299D01*
X152453115Y-127420558D01*
X152438863Y-127425113D01*
X152409470Y-127427065D01*
X152360575Y-127427517D01*
X152341748Y-127427525D01*
X152284467Y-127426843D01*
X152248141Y-127424364D01*
X152228604Y-127419443D01*
X152221690Y-127411434D01*
X152221445Y-127408862D01*
X152229336Y-127388423D01*
X152249085Y-127359789D01*
X152257575Y-127349763D01*
X152289094Y-127321408D01*
X152321949Y-127310259D01*
X152339651Y-127309327D01*
X152387539Y-127320981D01*
X152427699Y-127352285D01*
X152453173Y-127397752D01*
X152453625Y-127399233D01*
X152456582Y-127412299D01*
X152582482Y-127412299D01*
X152568392Y-127345510D01*
X152542038Y-127290025D01*
X152509807Y-127250639D01*
X152450217Y-127207931D01*
X152380168Y-127185109D01*
X152305661Y-127183046D01*
X152232699Y-127202614D01*
X152232699Y-127202614D01*
G37*
X152232699Y-127202614D02*
X152220168Y-127208514D01*
X152176799Y-127240283D01*
X152135790Y-127286646D01*
X152105168Y-127337696D01*
X152096459Y-127361166D01*
X152088512Y-127403091D01*
X152083774Y-127453757D01*
X152083199Y-127474679D01*
X152083129Y-127540693D01*
X152463083Y-127540693D01*
X152454983Y-127575273D01*
X152435104Y-127616170D01*
X152400347Y-127651514D01*
X152358998Y-127674282D01*
X152332649Y-127679010D01*
X152296916Y-127673273D01*
X152254282Y-127658882D01*
X152239799Y-127652262D01*
X152186240Y-127625513D01*
X152140533Y-127660376D01*
X152114158Y-127683955D01*
X152100124Y-127703417D01*
X152099414Y-127709129D01*
X152111951Y-127722973D01*
X152139428Y-127744012D01*
X152164366Y-127760425D01*
X152231664Y-127789930D01*
X152307110Y-127803284D01*
X152381888Y-127799812D01*
X152441495Y-127781663D01*
X152502941Y-127742784D01*
X152546608Y-127691595D01*
X152573926Y-127625367D01*
X152586322Y-127541371D01*
X152587421Y-127502936D01*
X152583022Y-127414861D01*
X152582482Y-127412299D01*
X152456582Y-127412299D01*
X152453115Y-127420558D01*
X152438863Y-127425113D01*
X152409470Y-127427065D01*
X152360575Y-127427517D01*
X152341748Y-127427525D01*
X152284467Y-127426843D01*
X152248141Y-127424364D01*
X152228604Y-127419443D01*
X152221690Y-127411434D01*
X152221445Y-127408862D01*
X152229336Y-127388423D01*
X152249085Y-127359789D01*
X152257575Y-127349763D01*
X152289094Y-127321408D01*
X152321949Y-127310259D01*
X152339651Y-127309327D01*
X152387539Y-127320981D01*
X152427699Y-127352285D01*
X152453173Y-127397752D01*
X152453625Y-127399233D01*
X152456582Y-127412299D01*
X152582482Y-127412299D01*
X152568392Y-127345510D01*
X152542038Y-127290025D01*
X152509807Y-127250639D01*
X152450217Y-127207931D01*
X152380168Y-127185109D01*
X152305661Y-127183046D01*
X152232699Y-127202614D01*
G36*
X153414261Y-127195148D02*
X153348479Y-127224231D01*
X153298540Y-127272793D01*
X153264374Y-127340908D01*
X153245907Y-127428651D01*
X153244583Y-127442351D01*
X153243546Y-127538939D01*
X153256993Y-127623602D01*
X153284108Y-127692221D01*
X153298627Y-127714294D01*
X153349201Y-127761011D01*
X153413609Y-127791268D01*
X153485666Y-127803824D01*
X153559185Y-127797439D01*
X153615072Y-127777772D01*
X153663132Y-127744629D01*
X153702412Y-127701175D01*
X153703092Y-127700158D01*
X153719044Y-127673338D01*
X153729410Y-127646368D01*
X153735688Y-127612332D01*
X153739373Y-127564310D01*
X153740997Y-127524931D01*
X153741672Y-127489219D01*
X153615955Y-127489219D01*
X153614726Y-127524770D01*
X153610266Y-127572094D01*
X153602397Y-127602465D01*
X153588207Y-127624072D01*
X153574917Y-127636694D01*
X153527802Y-127663122D01*
X153478505Y-127666653D01*
X153432593Y-127647639D01*
X153409638Y-127626331D01*
X153393096Y-127604859D01*
X153383421Y-127584313D01*
X153379174Y-127557574D01*
X153378920Y-127517523D01*
X153380228Y-127480638D01*
X153383043Y-127427947D01*
X153387505Y-127393772D01*
X153395548Y-127371480D01*
X153409103Y-127354442D01*
X153419845Y-127344703D01*
X153464777Y-127319123D01*
X153513249Y-127317847D01*
X153553894Y-127332999D01*
X153588567Y-127364642D01*
X153609224Y-127416620D01*
X153615955Y-127489219D01*
X153741672Y-127489219D01*
X153742479Y-127446621D01*
X153739948Y-127388056D01*
X153732362Y-127344007D01*
X153718681Y-127309248D01*
X153697865Y-127278551D01*
X153690147Y-127269436D01*
X153641889Y-127224021D01*
X153590128Y-127197493D01*
X153526828Y-127186379D01*
X153495961Y-127185471D01*
X153414261Y-127195148D01*
X153414261Y-127195148D01*
G37*
X153414261Y-127195148D02*
X153348479Y-127224231D01*
X153298540Y-127272793D01*
X153264374Y-127340908D01*
X153245907Y-127428651D01*
X153244583Y-127442351D01*
X153243546Y-127538939D01*
X153256993Y-127623602D01*
X153284108Y-127692221D01*
X153298627Y-127714294D01*
X153349201Y-127761011D01*
X153413609Y-127791268D01*
X153485666Y-127803824D01*
X153559185Y-127797439D01*
X153615072Y-127777772D01*
X153663132Y-127744629D01*
X153702412Y-127701175D01*
X153703092Y-127700158D01*
X153719044Y-127673338D01*
X153729410Y-127646368D01*
X153735688Y-127612332D01*
X153739373Y-127564310D01*
X153740997Y-127524931D01*
X153741672Y-127489219D01*
X153615955Y-127489219D01*
X153614726Y-127524770D01*
X153610266Y-127572094D01*
X153602397Y-127602465D01*
X153588207Y-127624072D01*
X153574917Y-127636694D01*
X153527802Y-127663122D01*
X153478505Y-127666653D01*
X153432593Y-127647639D01*
X153409638Y-127626331D01*
X153393096Y-127604859D01*
X153383421Y-127584313D01*
X153379174Y-127557574D01*
X153378920Y-127517523D01*
X153380228Y-127480638D01*
X153383043Y-127427947D01*
X153387505Y-127393772D01*
X153395548Y-127371480D01*
X153409103Y-127354442D01*
X153419845Y-127344703D01*
X153464777Y-127319123D01*
X153513249Y-127317847D01*
X153553894Y-127332999D01*
X153588567Y-127364642D01*
X153609224Y-127416620D01*
X153615955Y-127489219D01*
X153741672Y-127489219D01*
X153742479Y-127446621D01*
X153739948Y-127388056D01*
X153732362Y-127344007D01*
X153718681Y-127309248D01*
X153697865Y-127278551D01*
X153690147Y-127269436D01*
X153641889Y-127224021D01*
X153590128Y-127197493D01*
X153526828Y-127186379D01*
X153495961Y-127185471D01*
X153414261Y-127195148D01*
G36*
X148843419Y-128134970D02*
X148783315Y-128150597D01*
X148732979Y-128182848D01*
X148708607Y-128206940D01*
X148668655Y-128263895D01*
X148645758Y-128329965D01*
X148637892Y-128411182D01*
X148637852Y-128417748D01*
X148637782Y-128483763D01*
X149017736Y-128483763D01*
X149009637Y-128518342D01*
X148995013Y-128549659D01*
X148969419Y-128582291D01*
X148964065Y-128587500D01*
X148918057Y-128615694D01*
X148865590Y-128620475D01*
X148805197Y-128601926D01*
X148794960Y-128596931D01*
X148763561Y-128581745D01*
X148742530Y-128573094D01*
X148738861Y-128572293D01*
X148726052Y-128580063D01*
X148701622Y-128599072D01*
X148689221Y-128609460D01*
X148663524Y-128633321D01*
X148655085Y-128649077D01*
X148660942Y-128663571D01*
X148664072Y-128667534D01*
X148685275Y-128684879D01*
X148720262Y-128705959D01*
X148744663Y-128718265D01*
X148813928Y-128739946D01*
X148890612Y-128746971D01*
X148963235Y-128738647D01*
X148983574Y-128732686D01*
X149046524Y-128698952D01*
X149093185Y-128647045D01*
X149123827Y-128576459D01*
X149138718Y-128486692D01*
X149140353Y-128439753D01*
X149135579Y-128371413D01*
X149015010Y-128371413D01*
X149003348Y-128376465D01*
X148972002Y-128380429D01*
X148926429Y-128382768D01*
X148895554Y-128383169D01*
X148840019Y-128382783D01*
X148804967Y-128380975D01*
X148785738Y-128376773D01*
X148777670Y-128369203D01*
X148776099Y-128358218D01*
X148786879Y-128324381D01*
X148814020Y-128290940D01*
X148849723Y-128265272D01*
X148885440Y-128254772D01*
X148933952Y-128264086D01*
X148975947Y-128291013D01*
X149005064Y-128329827D01*
X149015010Y-128371413D01*
X149135579Y-128371413D01*
X149133401Y-128340236D01*
X149111945Y-128260949D01*
X149075530Y-128201263D01*
X149023703Y-128160549D01*
X148956010Y-128138179D01*
X148919338Y-128133871D01*
X148843419Y-128134970D01*
X148843419Y-128134970D01*
G37*
X148843419Y-128134970D02*
X148783315Y-128150597D01*
X148732979Y-128182848D01*
X148708607Y-128206940D01*
X148668655Y-128263895D01*
X148645758Y-128329965D01*
X148637892Y-128411182D01*
X148637852Y-128417748D01*
X148637782Y-128483763D01*
X149017736Y-128483763D01*
X149009637Y-128518342D01*
X148995013Y-128549659D01*
X148969419Y-128582291D01*
X148964065Y-128587500D01*
X148918057Y-128615694D01*
X148865590Y-128620475D01*
X148805197Y-128601926D01*
X148794960Y-128596931D01*
X148763561Y-128581745D01*
X148742530Y-128573094D01*
X148738861Y-128572293D01*
X148726052Y-128580063D01*
X148701622Y-128599072D01*
X148689221Y-128609460D01*
X148663524Y-128633321D01*
X148655085Y-128649077D01*
X148660942Y-128663571D01*
X148664072Y-128667534D01*
X148685275Y-128684879D01*
X148720262Y-128705959D01*
X148744663Y-128718265D01*
X148813928Y-128739946D01*
X148890612Y-128746971D01*
X148963235Y-128738647D01*
X148983574Y-128732686D01*
X149046524Y-128698952D01*
X149093185Y-128647045D01*
X149123827Y-128576459D01*
X149138718Y-128486692D01*
X149140353Y-128439753D01*
X149135579Y-128371413D01*
X149015010Y-128371413D01*
X149003348Y-128376465D01*
X148972002Y-128380429D01*
X148926429Y-128382768D01*
X148895554Y-128383169D01*
X148840019Y-128382783D01*
X148804967Y-128380975D01*
X148785738Y-128376773D01*
X148777670Y-128369203D01*
X148776099Y-128358218D01*
X148786879Y-128324381D01*
X148814020Y-128290940D01*
X148849723Y-128265272D01*
X148885440Y-128254772D01*
X148933952Y-128264086D01*
X148975947Y-128291013D01*
X149005064Y-128329827D01*
X149015010Y-128371413D01*
X149135579Y-128371413D01*
X149133401Y-128340236D01*
X149111945Y-128260949D01*
X149075530Y-128201263D01*
X149023703Y-128160549D01*
X148956010Y-128138179D01*
X148919338Y-128133871D01*
X148843419Y-128134970D01*
G36*
X149240745Y-128131486D02*
X149192405Y-128141015D01*
X149164886Y-128155125D01*
X149135936Y-128178568D01*
X149177124Y-128230571D01*
X149202518Y-128262064D01*
X149219762Y-128277428D01*
X149236898Y-128279776D01*
X149261973Y-128272217D01*
X149273743Y-128267941D01*
X149321730Y-128261631D01*
X149365676Y-128275156D01*
X149397940Y-128305710D01*
X149403181Y-128315452D01*
X149408888Y-128341258D01*
X149413294Y-128388817D01*
X149416189Y-128454758D01*
X149417369Y-128535710D01*
X149417386Y-128547226D01*
X149417386Y-128747822D01*
X149555703Y-128747822D01*
X149555703Y-128131683D01*
X149486544Y-128131683D01*
X149446667Y-128132725D01*
X149425893Y-128137358D01*
X149418211Y-128147849D01*
X149417386Y-128157745D01*
X149417386Y-128183806D01*
X149384255Y-128157745D01*
X149346265Y-128139965D01*
X149295230Y-128131174D01*
X149240745Y-128131486D01*
X149240745Y-128131486D01*
G37*
X149240745Y-128131486D02*
X149192405Y-128141015D01*
X149164886Y-128155125D01*
X149135936Y-128178568D01*
X149177124Y-128230571D01*
X149202518Y-128262064D01*
X149219762Y-128277428D01*
X149236898Y-128279776D01*
X149261973Y-128272217D01*
X149273743Y-128267941D01*
X149321730Y-128261631D01*
X149365676Y-128275156D01*
X149397940Y-128305710D01*
X149403181Y-128315452D01*
X149408888Y-128341258D01*
X149413294Y-128388817D01*
X149416189Y-128454758D01*
X149417369Y-128535710D01*
X149417386Y-128547226D01*
X149417386Y-128747822D01*
X149555703Y-128747822D01*
X149555703Y-128131683D01*
X149486544Y-128131683D01*
X149446667Y-128132725D01*
X149425893Y-128137358D01*
X149418211Y-128147849D01*
X149417386Y-128157745D01*
X149417386Y-128183806D01*
X149384255Y-128157745D01*
X149346265Y-128139965D01*
X149295230Y-128131174D01*
X149240745Y-128131486D01*
G36*
X149837589Y-128135417D02*
X149784589Y-128148290D01*
X149769269Y-128155110D01*
X149739572Y-128172974D01*
X149716780Y-128193093D01*
X149699917Y-128218962D01*
X149688002Y-128254073D01*
X149680058Y-128301920D01*
X149675106Y-128365996D01*
X149672169Y-128449794D01*
X149671053Y-128505768D01*
X149666948Y-128747822D01*
X149737068Y-128747822D01*
X149779607Y-128746038D01*
X149801524Y-128739942D01*
X149807188Y-128729706D01*
X149810179Y-128718637D01*
X149823549Y-128720754D01*
X149841767Y-128729629D01*
X149887376Y-128743233D01*
X149945993Y-128746899D01*
X150007646Y-128740903D01*
X150062362Y-128725521D01*
X150067270Y-128723386D01*
X150117277Y-128688255D01*
X150150244Y-128639419D01*
X150165413Y-128582333D01*
X150164254Y-128561824D01*
X150040492Y-128561824D01*
X150029587Y-128589425D01*
X149997255Y-128609204D01*
X149945090Y-128619819D01*
X149917213Y-128621228D01*
X149870753Y-128617620D01*
X149839871Y-128603597D01*
X149832336Y-128596931D01*
X149811924Y-128560666D01*
X149807188Y-128527773D01*
X149807188Y-128483763D01*
X149868487Y-128483763D01*
X149939744Y-128487395D01*
X149989724Y-128498818D01*
X150021304Y-128518824D01*
X150028374Y-128527743D01*
X150040492Y-128561824D01*
X150164254Y-128561824D01*
X150162029Y-128522456D01*
X150139337Y-128465244D01*
X150108376Y-128426580D01*
X150089624Y-128409864D01*
X150071267Y-128398878D01*
X150047381Y-128392180D01*
X150012043Y-128388326D01*
X149959331Y-128385873D01*
X149938423Y-128385168D01*
X149807188Y-128380879D01*
X149807380Y-128341158D01*
X149812463Y-128299405D01*
X149830838Y-128274158D01*
X149867961Y-128258030D01*
X149868957Y-128257742D01*
X149921590Y-128251400D01*
X149973094Y-128259684D01*
X150011370Y-128279827D01*
X150026728Y-128289773D01*
X150043270Y-128288397D01*
X150068725Y-128273987D01*
X150083672Y-128263817D01*
X150112909Y-128242088D01*
X150131020Y-128225800D01*
X150133926Y-128221137D01*
X150121960Y-128197005D01*
X150086604Y-128168185D01*
X150071247Y-128158461D01*
X150027099Y-128141714D01*
X149967602Y-128132227D01*
X149901513Y-128130095D01*
X149837589Y-128135417D01*
X149837589Y-128135417D01*
G37*
X149837589Y-128135417D02*
X149784589Y-128148290D01*
X149769269Y-128155110D01*
X149739572Y-128172974D01*
X149716780Y-128193093D01*
X149699917Y-128218962D01*
X149688002Y-128254073D01*
X149680058Y-128301920D01*
X149675106Y-128365996D01*
X149672169Y-128449794D01*
X149671053Y-128505768D01*
X149666948Y-128747822D01*
X149737068Y-128747822D01*
X149779607Y-128746038D01*
X149801524Y-128739942D01*
X149807188Y-128729706D01*
X149810179Y-128718637D01*
X149823549Y-128720754D01*
X149841767Y-128729629D01*
X149887376Y-128743233D01*
X149945993Y-128746899D01*
X150007646Y-128740903D01*
X150062362Y-128725521D01*
X150067270Y-128723386D01*
X150117277Y-128688255D01*
X150150244Y-128639419D01*
X150165413Y-128582333D01*
X150164254Y-128561824D01*
X150040492Y-128561824D01*
X150029587Y-128589425D01*
X149997255Y-128609204D01*
X149945090Y-128619819D01*
X149917213Y-128621228D01*
X149870753Y-128617620D01*
X149839871Y-128603597D01*
X149832336Y-128596931D01*
X149811924Y-128560666D01*
X149807188Y-128527773D01*
X149807188Y-128483763D01*
X149868487Y-128483763D01*
X149939744Y-128487395D01*
X149989724Y-128498818D01*
X150021304Y-128518824D01*
X150028374Y-128527743D01*
X150040492Y-128561824D01*
X150164254Y-128561824D01*
X150162029Y-128522456D01*
X150139337Y-128465244D01*
X150108376Y-128426580D01*
X150089624Y-128409864D01*
X150071267Y-128398878D01*
X150047381Y-128392180D01*
X150012043Y-128388326D01*
X149959331Y-128385873D01*
X149938423Y-128385168D01*
X149807188Y-128380879D01*
X149807380Y-128341158D01*
X149812463Y-128299405D01*
X149830838Y-128274158D01*
X149867961Y-128258030D01*
X149868957Y-128257742D01*
X149921590Y-128251400D01*
X149973094Y-128259684D01*
X150011370Y-128279827D01*
X150026728Y-128289773D01*
X150043270Y-128288397D01*
X150068725Y-128273987D01*
X150083672Y-128263817D01*
X150112909Y-128242088D01*
X150131020Y-128225800D01*
X150133926Y-128221137D01*
X150121960Y-128197005D01*
X150086604Y-128168185D01*
X150071247Y-128158461D01*
X150027099Y-128141714D01*
X149967602Y-128132227D01*
X149901513Y-128130095D01*
X149837589Y-128135417D01*
G36*
X150594476Y-128134237D02*
X150544745Y-128137971D01*
X150414709Y-128527773D01*
X150394322Y-128458614D01*
X150382054Y-128415874D01*
X150365915Y-128358115D01*
X150348488Y-128294625D01*
X150339274Y-128260570D01*
X150304612Y-128131683D01*
X150161609Y-128131683D01*
X150204354Y-128266857D01*
X150225404Y-128333342D01*
X150250833Y-128413539D01*
X150277390Y-128497193D01*
X150301098Y-128571782D01*
X150355098Y-128741535D01*
X150413402Y-128745328D01*
X150471705Y-128749122D01*
X150503321Y-128644734D01*
X150522818Y-128579889D01*
X150544096Y-128508400D01*
X150562692Y-128445263D01*
X150563426Y-128442750D01*
X150577316Y-128399969D01*
X150589571Y-128370779D01*
X150598154Y-128359741D01*
X150599918Y-128361018D01*
X150606109Y-128378130D01*
X150617872Y-128414787D01*
X150633775Y-128466378D01*
X150652386Y-128528294D01*
X150662457Y-128562352D01*
X150716993Y-128747822D01*
X150832736Y-128747822D01*
X150925263Y-128455471D01*
X150951256Y-128373462D01*
X150974934Y-128298987D01*
X150995180Y-128235544D01*
X151010874Y-128186632D01*
X151020898Y-128155749D01*
X151023945Y-128146726D01*
X151021533Y-128137487D01*
X151002592Y-128133441D01*
X150963177Y-128133846D01*
X150957007Y-128134152D01*
X150883914Y-128137971D01*
X150836043Y-128314010D01*
X150818447Y-128378211D01*
X150802723Y-128434649D01*
X150790254Y-128478422D01*
X150782426Y-128504630D01*
X150780980Y-128508903D01*
X150774986Y-128503990D01*
X150762899Y-128478532D01*
X150746107Y-128435997D01*
X150725997Y-128379850D01*
X150708997Y-128329130D01*
X150644206Y-128130504D01*
X150594476Y-128134237D01*
X150594476Y-128134237D01*
G37*
X150594476Y-128134237D02*
X150544745Y-128137971D01*
X150414709Y-128527773D01*
X150394322Y-128458614D01*
X150382054Y-128415874D01*
X150365915Y-128358115D01*
X150348488Y-128294625D01*
X150339274Y-128260570D01*
X150304612Y-128131683D01*
X150161609Y-128131683D01*
X150204354Y-128266857D01*
X150225404Y-128333342D01*
X150250833Y-128413539D01*
X150277390Y-128497193D01*
X150301098Y-128571782D01*
X150355098Y-128741535D01*
X150413402Y-128745328D01*
X150471705Y-128749122D01*
X150503321Y-128644734D01*
X150522818Y-128579889D01*
X150544096Y-128508400D01*
X150562692Y-128445263D01*
X150563426Y-128442750D01*
X150577316Y-128399969D01*
X150589571Y-128370779D01*
X150598154Y-128359741D01*
X150599918Y-128361018D01*
X150606109Y-128378130D01*
X150617872Y-128414787D01*
X150633775Y-128466378D01*
X150652386Y-128528294D01*
X150662457Y-128562352D01*
X150716993Y-128747822D01*
X150832736Y-128747822D01*
X150925263Y-128455471D01*
X150951256Y-128373462D01*
X150974934Y-128298987D01*
X150995180Y-128235544D01*
X151010874Y-128186632D01*
X151020898Y-128155749D01*
X151023945Y-128146726D01*
X151021533Y-128137487D01*
X151002592Y-128133441D01*
X150963177Y-128133846D01*
X150957007Y-128134152D01*
X150883914Y-128137971D01*
X150836043Y-128314010D01*
X150818447Y-128378211D01*
X150802723Y-128434649D01*
X150790254Y-128478422D01*
X150782426Y-128504630D01*
X150780980Y-128508903D01*
X150774986Y-128503990D01*
X150762899Y-128478532D01*
X150746107Y-128435997D01*
X150725997Y-128379850D01*
X150708997Y-128329130D01*
X150644206Y-128130504D01*
X150594476Y-128134237D01*
G36*
X151077188Y-128747822D02*
X151146346Y-128747822D01*
X151186488Y-128746645D01*
X151207394Y-128741772D01*
X151214922Y-128731186D01*
X151215505Y-128724029D01*
X151216774Y-128709676D01*
X151224779Y-128706923D01*
X151245815Y-128715771D01*
X151262173Y-128724029D01*
X151324977Y-128743597D01*
X151393248Y-128744729D01*
X151448752Y-128730135D01*
X151500438Y-128694877D01*
X151539838Y-128642835D01*
X151561413Y-128581450D01*
X151561962Y-128578018D01*
X151565167Y-128540571D01*
X151566761Y-128486813D01*
X151566633Y-128446155D01*
X151429279Y-128446155D01*
X151426097Y-128500194D01*
X151418859Y-128544735D01*
X151409060Y-128569888D01*
X151371989Y-128604260D01*
X151327974Y-128616582D01*
X151282584Y-128606618D01*
X151243797Y-128576895D01*
X151229108Y-128556905D01*
X151220519Y-128533050D01*
X151216496Y-128498230D01*
X151215505Y-128445930D01*
X151217278Y-128394139D01*
X151221963Y-128348634D01*
X151228603Y-128318181D01*
X151229710Y-128315452D01*
X151256491Y-128283000D01*
X151295579Y-128265183D01*
X151339315Y-128262306D01*
X151380038Y-128274674D01*
X151410087Y-128302593D01*
X151413204Y-128308148D01*
X151422961Y-128342022D01*
X151428277Y-128390728D01*
X151429279Y-128446155D01*
X151566633Y-128446155D01*
X151566568Y-128425540D01*
X151565664Y-128392563D01*
X151559514Y-128310981D01*
X151546733Y-128249730D01*
X151525471Y-128204449D01*
X151493878Y-128170779D01*
X151463207Y-128151014D01*
X151420354Y-128137120D01*
X151367056Y-128132354D01*
X151312480Y-128136236D01*
X151265792Y-128148282D01*
X151241124Y-128162693D01*
X151215505Y-128185878D01*
X151215505Y-127892773D01*
X151077188Y-127892773D01*
X151077188Y-128747822D01*
X151077188Y-128747822D01*
G37*
X151077188Y-128747822D02*
X151146346Y-128747822D01*
X151186488Y-128746645D01*
X151207394Y-128741772D01*
X151214922Y-128731186D01*
X151215505Y-128724029D01*
X151216774Y-128709676D01*
X151224779Y-128706923D01*
X151245815Y-128715771D01*
X151262173Y-128724029D01*
X151324977Y-128743597D01*
X151393248Y-128744729D01*
X151448752Y-128730135D01*
X151500438Y-128694877D01*
X151539838Y-128642835D01*
X151561413Y-128581450D01*
X151561962Y-128578018D01*
X151565167Y-128540571D01*
X151566761Y-128486813D01*
X151566633Y-128446155D01*
X151429279Y-128446155D01*
X151426097Y-128500194D01*
X151418859Y-128544735D01*
X151409060Y-128569888D01*
X151371989Y-128604260D01*
X151327974Y-128616582D01*
X151282584Y-128606618D01*
X151243797Y-128576895D01*
X151229108Y-128556905D01*
X151220519Y-128533050D01*
X151216496Y-128498230D01*
X151215505Y-128445930D01*
X151217278Y-128394139D01*
X151221963Y-128348634D01*
X151228603Y-128318181D01*
X151229710Y-128315452D01*
X151256491Y-128283000D01*
X151295579Y-128265183D01*
X151339315Y-128262306D01*
X151380038Y-128274674D01*
X151410087Y-128302593D01*
X151413204Y-128308148D01*
X151422961Y-128342022D01*
X151428277Y-128390728D01*
X151429279Y-128446155D01*
X151566633Y-128446155D01*
X151566568Y-128425540D01*
X151565664Y-128392563D01*
X151559514Y-128310981D01*
X151546733Y-128249730D01*
X151525471Y-128204449D01*
X151493878Y-128170779D01*
X151463207Y-128151014D01*
X151420354Y-128137120D01*
X151367056Y-128132354D01*
X151312480Y-128136236D01*
X151265792Y-128148282D01*
X151241124Y-128162693D01*
X151215505Y-128185878D01*
X151215505Y-127892773D01*
X151077188Y-127892773D01*
X151077188Y-128747822D01*
G36*
X151869356Y-128133020D02*
X151850539Y-128138660D01*
X151844473Y-128151053D01*
X151844218Y-128156647D01*
X151843129Y-128172230D01*
X151835632Y-128174676D01*
X151815381Y-128163993D01*
X151803351Y-128156694D01*
X151765400Y-128141063D01*
X151720072Y-128133334D01*
X151672544Y-128132740D01*
X151627995Y-128138513D01*
X151591602Y-128149884D01*
X151568543Y-128166088D01*
X151563996Y-128186355D01*
X151566291Y-128191843D01*
X151583020Y-128214626D01*
X151608963Y-128242647D01*
X151613655Y-128247177D01*
X151638383Y-128268005D01*
X151659718Y-128274735D01*
X151689555Y-128270038D01*
X151701508Y-128266917D01*
X151738705Y-128259421D01*
X151764859Y-128262792D01*
X151786946Y-128274681D01*
X151807178Y-128290635D01*
X151822079Y-128310700D01*
X151832434Y-128338702D01*
X151839029Y-128378467D01*
X151842649Y-128433823D01*
X151844078Y-128508594D01*
X151844218Y-128553740D01*
X151844218Y-128747822D01*
X151969960Y-128747822D01*
X151969960Y-128131683D01*
X151907089Y-128131683D01*
X151869356Y-128133020D01*
X151869356Y-128133020D01*
G37*
X151869356Y-128133020D02*
X151850539Y-128138660D01*
X151844473Y-128151053D01*
X151844218Y-128156647D01*
X151843129Y-128172230D01*
X151835632Y-128174676D01*
X151815381Y-128163993D01*
X151803351Y-128156694D01*
X151765400Y-128141063D01*
X151720072Y-128133334D01*
X151672544Y-128132740D01*
X151627995Y-128138513D01*
X151591602Y-128149884D01*
X151568543Y-128166088D01*
X151563996Y-128186355D01*
X151566291Y-128191843D01*
X151583020Y-128214626D01*
X151608963Y-128242647D01*
X151613655Y-128247177D01*
X151638383Y-128268005D01*
X151659718Y-128274735D01*
X151689555Y-128270038D01*
X151701508Y-128266917D01*
X151738705Y-128259421D01*
X151764859Y-128262792D01*
X151786946Y-128274681D01*
X151807178Y-128290635D01*
X151822079Y-128310700D01*
X151832434Y-128338702D01*
X151839029Y-128378467D01*
X151842649Y-128433823D01*
X151844078Y-128508594D01*
X151844218Y-128553740D01*
X151844218Y-128747822D01*
X151969960Y-128747822D01*
X151969960Y-128131683D01*
X151907089Y-128131683D01*
X151869356Y-128133020D01*
G36*
X152260210Y-128136555D02*
X152201055Y-128152339D01*
X152156023Y-128180948D01*
X152124246Y-128218419D01*
X152114366Y-128234411D01*
X152107073Y-128251163D01*
X152101974Y-128272592D01*
X152098679Y-128302616D01*
X152096797Y-128345154D01*
X152095937Y-128404122D01*
X152095707Y-128483440D01*
X152095703Y-128504484D01*
X152095703Y-128747822D01*
X152156059Y-128747822D01*
X152194557Y-128745126D01*
X152223023Y-128738295D01*
X152230155Y-128734083D01*
X152249652Y-128726813D01*
X152269566Y-128734083D01*
X152302353Y-128743160D01*
X152349978Y-128746813D01*
X152402764Y-128745228D01*
X152451036Y-128738589D01*
X152479218Y-128730072D01*
X152533753Y-128695063D01*
X152567835Y-128646479D01*
X152583157Y-128581882D01*
X152583299Y-128580223D01*
X152581955Y-128551566D01*
X152460356Y-128551566D01*
X152449726Y-128584161D01*
X152432410Y-128602505D01*
X152397652Y-128616379D01*
X152351773Y-128621917D01*
X152304988Y-128619191D01*
X152267514Y-128608274D01*
X152257015Y-128601269D01*
X152238668Y-128568904D01*
X152234020Y-128532111D01*
X152234020Y-128483763D01*
X152303582Y-128483763D01*
X152369667Y-128488850D01*
X152419764Y-128503263D01*
X152450929Y-128525729D01*
X152460356Y-128551566D01*
X152581955Y-128551566D01*
X152579987Y-128509647D01*
X152556710Y-128453845D01*
X152512948Y-128411647D01*
X152506899Y-128407808D01*
X152480907Y-128395309D01*
X152448735Y-128387740D01*
X152403760Y-128384061D01*
X152350331Y-128383216D01*
X152234020Y-128383169D01*
X152234020Y-128334411D01*
X152238953Y-128296581D01*
X152251543Y-128271236D01*
X152253017Y-128269887D01*
X152281034Y-128258800D01*
X152323326Y-128254503D01*
X152370064Y-128256615D01*
X152411418Y-128264756D01*
X152435957Y-128276965D01*
X152449253Y-128286746D01*
X152463294Y-128288613D01*
X152482671Y-128280600D01*
X152511976Y-128260739D01*
X152555803Y-128227063D01*
X152559825Y-128223909D01*
X152557764Y-128212236D01*
X152540568Y-128192822D01*
X152514433Y-128171248D01*
X152485552Y-128153096D01*
X152476478Y-128148809D01*
X152443380Y-128140256D01*
X152394880Y-128134155D01*
X152340695Y-128131708D01*
X152338161Y-128131703D01*
X152260210Y-128136555D01*
X152260210Y-128136555D01*
G37*
X152260210Y-128136555D02*
X152201055Y-128152339D01*
X152156023Y-128180948D01*
X152124246Y-128218419D01*
X152114366Y-128234411D01*
X152107073Y-128251163D01*
X152101974Y-128272592D01*
X152098679Y-128302616D01*
X152096797Y-128345154D01*
X152095937Y-128404122D01*
X152095707Y-128483440D01*
X152095703Y-128504484D01*
X152095703Y-128747822D01*
X152156059Y-128747822D01*
X152194557Y-128745126D01*
X152223023Y-128738295D01*
X152230155Y-128734083D01*
X152249652Y-128726813D01*
X152269566Y-128734083D01*
X152302353Y-128743160D01*
X152349978Y-128746813D01*
X152402764Y-128745228D01*
X152451036Y-128738589D01*
X152479218Y-128730072D01*
X152533753Y-128695063D01*
X152567835Y-128646479D01*
X152583157Y-128581882D01*
X152583299Y-128580223D01*
X152581955Y-128551566D01*
X152460356Y-128551566D01*
X152449726Y-128584161D01*
X152432410Y-128602505D01*
X152397652Y-128616379D01*
X152351773Y-128621917D01*
X152304988Y-128619191D01*
X152267514Y-128608274D01*
X152257015Y-128601269D01*
X152238668Y-128568904D01*
X152234020Y-128532111D01*
X152234020Y-128483763D01*
X152303582Y-128483763D01*
X152369667Y-128488850D01*
X152419764Y-128503263D01*
X152450929Y-128525729D01*
X152460356Y-128551566D01*
X152581955Y-128551566D01*
X152579987Y-128509647D01*
X152556710Y-128453845D01*
X152512948Y-128411647D01*
X152506899Y-128407808D01*
X152480907Y-128395309D01*
X152448735Y-128387740D01*
X152403760Y-128384061D01*
X152350331Y-128383216D01*
X152234020Y-128383169D01*
X152234020Y-128334411D01*
X152238953Y-128296581D01*
X152251543Y-128271236D01*
X152253017Y-128269887D01*
X152281034Y-128258800D01*
X152323326Y-128254503D01*
X152370064Y-128256615D01*
X152411418Y-128264756D01*
X152435957Y-128276965D01*
X152449253Y-128286746D01*
X152463294Y-128288613D01*
X152482671Y-128280600D01*
X152511976Y-128260739D01*
X152555803Y-128227063D01*
X152559825Y-128223909D01*
X152557764Y-128212236D01*
X152540568Y-128192822D01*
X152514433Y-128171248D01*
X152485552Y-128153096D01*
X152476478Y-128148809D01*
X152443380Y-128140256D01*
X152394880Y-128134155D01*
X152340695Y-128131708D01*
X152338161Y-128131703D01*
X152260210Y-128136555D01*
G36*
X152784759Y-127199184D02*
X152758247Y-127212282D01*
X152725553Y-127235106D01*
X152701725Y-127259996D01*
X152685406Y-127291249D01*
X152675240Y-127333166D01*
X152669872Y-127390044D01*
X152667944Y-127466184D01*
X152667831Y-127498917D01*
X152668161Y-127570656D01*
X152669527Y-127621927D01*
X152672500Y-127657404D01*
X152677649Y-127681763D01*
X152685543Y-127699680D01*
X152693757Y-127711902D01*
X152746187Y-127763905D01*
X152807930Y-127795184D01*
X152874536Y-127804592D01*
X152941558Y-127790980D01*
X152962792Y-127781354D01*
X153013624Y-127754859D01*
X153013624Y-128170052D01*
X152976525Y-128150868D01*
X152927643Y-128136025D01*
X152867561Y-128132222D01*
X152807564Y-128139243D01*
X152762256Y-128155013D01*
X152724675Y-128185047D01*
X152692564Y-128228024D01*
X152690150Y-128232436D01*
X152679967Y-128253221D01*
X152672530Y-128274170D01*
X152667411Y-128299548D01*
X152664181Y-128333618D01*
X152662413Y-128380641D01*
X152661677Y-128444882D01*
X152661544Y-128517176D01*
X152661544Y-128747822D01*
X152799861Y-128747822D01*
X152799861Y-128322533D01*
X152838549Y-128289979D01*
X152878738Y-128263940D01*
X152916797Y-128259205D01*
X152955066Y-128271389D01*
X152975462Y-128283320D01*
X152990642Y-128300313D01*
X153001438Y-128325995D01*
X153008683Y-128363991D01*
X153013208Y-128417926D01*
X153015844Y-128491425D01*
X153016772Y-128540347D01*
X153019911Y-128741535D01*
X153085926Y-128745336D01*
X153151940Y-128749136D01*
X153151940Y-127500650D01*
X153013624Y-127500650D01*
X153010097Y-127570254D01*
X152998215Y-127618569D01*
X152976020Y-127648631D01*
X152941559Y-127663471D01*
X152906742Y-127666436D01*
X152867329Y-127663028D01*
X152841171Y-127649617D01*
X152824814Y-127631896D01*
X152811937Y-127612835D01*
X152804272Y-127591601D01*
X152800861Y-127561849D01*
X152800749Y-127517236D01*
X152801897Y-127479880D01*
X152804532Y-127423604D01*
X152808456Y-127386658D01*
X152815063Y-127363223D01*
X152825749Y-127347480D01*
X152835833Y-127338380D01*
X152877970Y-127318537D01*
X152927840Y-127315332D01*
X152956476Y-127322168D01*
X152984828Y-127346464D01*
X153003609Y-127393728D01*
X153012712Y-127463624D01*
X153013624Y-127500650D01*
X153151940Y-127500650D01*
X153151940Y-127188614D01*
X153082782Y-127188614D01*
X153041260Y-127190256D01*
X153019838Y-127196087D01*
X153013626Y-127207461D01*
X153013624Y-127207798D01*
X153010742Y-127218938D01*
X152998030Y-127217673D01*
X152972757Y-127205433D01*
X152913869Y-127186707D01*
X152847615Y-127184739D01*
X152784759Y-127199184D01*
X152784759Y-127199184D01*
G37*
X152784759Y-127199184D02*
X152758247Y-127212282D01*
X152725553Y-127235106D01*
X152701725Y-127259996D01*
X152685406Y-127291249D01*
X152675240Y-127333166D01*
X152669872Y-127390044D01*
X152667944Y-127466184D01*
X152667831Y-127498917D01*
X152668161Y-127570656D01*
X152669527Y-127621927D01*
X152672500Y-127657404D01*
X152677649Y-127681763D01*
X152685543Y-127699680D01*
X152693757Y-127711902D01*
X152746187Y-127763905D01*
X152807930Y-127795184D01*
X152874536Y-127804592D01*
X152941558Y-127790980D01*
X152962792Y-127781354D01*
X153013624Y-127754859D01*
X153013624Y-128170052D01*
X152976525Y-128150868D01*
X152927643Y-128136025D01*
X152867561Y-128132222D01*
X152807564Y-128139243D01*
X152762256Y-128155013D01*
X152724675Y-128185047D01*
X152692564Y-128228024D01*
X152690150Y-128232436D01*
X152679967Y-128253221D01*
X152672530Y-128274170D01*
X152667411Y-128299548D01*
X152664181Y-128333618D01*
X152662413Y-128380641D01*
X152661677Y-128444882D01*
X152661544Y-128517176D01*
X152661544Y-128747822D01*
X152799861Y-128747822D01*
X152799861Y-128322533D01*
X152838549Y-128289979D01*
X152878738Y-128263940D01*
X152916797Y-128259205D01*
X152955066Y-128271389D01*
X152975462Y-128283320D01*
X152990642Y-128300313D01*
X153001438Y-128325995D01*
X153008683Y-128363991D01*
X153013208Y-128417926D01*
X153015844Y-128491425D01*
X153016772Y-128540347D01*
X153019911Y-128741535D01*
X153085926Y-128745336D01*
X153151940Y-128749136D01*
X153151940Y-127500650D01*
X153013624Y-127500650D01*
X153010097Y-127570254D01*
X152998215Y-127618569D01*
X152976020Y-127648631D01*
X152941559Y-127663471D01*
X152906742Y-127666436D01*
X152867329Y-127663028D01*
X152841171Y-127649617D01*
X152824814Y-127631896D01*
X152811937Y-127612835D01*
X152804272Y-127591601D01*
X152800861Y-127561849D01*
X152800749Y-127517236D01*
X152801897Y-127479880D01*
X152804532Y-127423604D01*
X152808456Y-127386658D01*
X152815063Y-127363223D01*
X152825749Y-127347480D01*
X152835833Y-127338380D01*
X152877970Y-127318537D01*
X152927840Y-127315332D01*
X152956476Y-127322168D01*
X152984828Y-127346464D01*
X153003609Y-127393728D01*
X153012712Y-127463624D01*
X153013624Y-127500650D01*
X153151940Y-127500650D01*
X153151940Y-127188614D01*
X153082782Y-127188614D01*
X153041260Y-127190256D01*
X153019838Y-127196087D01*
X153013626Y-127207461D01*
X153013624Y-127207798D01*
X153010742Y-127218938D01*
X152998030Y-127217673D01*
X152972757Y-127205433D01*
X152913869Y-127186707D01*
X152847615Y-127184739D01*
X152784759Y-127199184D01*
D13*
G04 #@! TO.C,Q1*
X153668000Y-134310000D02*
X153668000Y-135240000D01*
X153668000Y-137470000D02*
X153668000Y-136540000D01*
X153668000Y-137470000D02*
X150508000Y-137470000D01*
X153668000Y-134310000D02*
X152208000Y-134310000D01*
G04 #@! TO.C,R6*
X147445252Y-134291000D02*
X146922748Y-134291000D01*
X147445252Y-135711000D02*
X146922748Y-135711000D01*
D15*
G04 #@! TO.C,G\002A\002A\002A*
X153050000Y-68834000D02*
G75*
G02X152400000Y-69484000I-650000J0D01*
G01*
X152400000Y-69484000D02*
G75*
G02X151750000Y-68834000I0J650000D01*
G01*
X152400000Y-69484000D02*
X152400000Y-70034000D01*
X153050000Y-70684000D02*
G75*
G03X153050000Y-70684000I-650000J0D01*
G01*
X153050000Y-66984000D02*
G75*
G03X153050000Y-66984000I-650000J0D01*
G01*
X152400000Y-67634000D02*
X152400000Y-68534000D01*
D16*
X152500000Y-68834000D02*
G75*
G03X152500000Y-68834000I-100000J0D01*
G01*
X152600000Y-68834000D02*
G75*
G03X152600000Y-68834000I-200000J0D01*
G01*
D15*
X152950000Y-68484000D02*
G75*
G02X152750000Y-69384000I-550000J-350000D01*
G01*
X152050000Y-69384000D02*
G75*
G02X151850000Y-68484000I350000J550000D01*
G01*
X152400000Y-71034000D02*
X152400000Y-70334000D01*
X152400000Y-67334000D02*
X152400000Y-66634000D01*
X152050000Y-66984000D02*
X152750000Y-66984000D01*
G04 #@! TO.C,C9*
D17*
X151143857Y-108460000D02*
X151179571Y-108424285D01*
X151215285Y-108317142D01*
X151215285Y-108245714D01*
X151179571Y-108138571D01*
X151108142Y-108067142D01*
X151036714Y-108031428D01*
X150893857Y-107995714D01*
X150786714Y-107995714D01*
X150643857Y-108031428D01*
X150572428Y-108067142D01*
X150501000Y-108138571D01*
X150465285Y-108245714D01*
X150465285Y-108317142D01*
X150501000Y-108424285D01*
X150536714Y-108460000D01*
X151215285Y-108817142D02*
X151215285Y-108960000D01*
X151179571Y-109031428D01*
X151143857Y-109067142D01*
X151036714Y-109138571D01*
X150893857Y-109174285D01*
X150608142Y-109174285D01*
X150536714Y-109138571D01*
X150501000Y-109102857D01*
X150465285Y-109031428D01*
X150465285Y-108888571D01*
X150501000Y-108817142D01*
X150536714Y-108781428D01*
X150608142Y-108745714D01*
X150786714Y-108745714D01*
X150858142Y-108781428D01*
X150893857Y-108817142D01*
X150929571Y-108888571D01*
X150929571Y-109031428D01*
X150893857Y-109102857D01*
X150858142Y-109138571D01*
X150786714Y-109174285D01*
G04 #@! TO.C,C1*
X142761857Y-71757000D02*
X142797571Y-71721285D01*
X142833285Y-71614142D01*
X142833285Y-71542714D01*
X142797571Y-71435571D01*
X142726142Y-71364142D01*
X142654714Y-71328428D01*
X142511857Y-71292714D01*
X142404714Y-71292714D01*
X142261857Y-71328428D01*
X142190428Y-71364142D01*
X142119000Y-71435571D01*
X142083285Y-71542714D01*
X142083285Y-71614142D01*
X142119000Y-71721285D01*
X142154714Y-71757000D01*
X142833285Y-72471285D02*
X142833285Y-72042714D01*
X142833285Y-72257000D02*
X142083285Y-72257000D01*
X142190428Y-72185571D01*
X142261857Y-72114142D01*
X142297571Y-72042714D01*
G04 #@! TO.C,C7*
X144397000Y-76467857D02*
X144432714Y-76503571D01*
X144539857Y-76539285D01*
X144611285Y-76539285D01*
X144718428Y-76503571D01*
X144789857Y-76432142D01*
X144825571Y-76360714D01*
X144861285Y-76217857D01*
X144861285Y-76110714D01*
X144825571Y-75967857D01*
X144789857Y-75896428D01*
X144718428Y-75825000D01*
X144611285Y-75789285D01*
X144539857Y-75789285D01*
X144432714Y-75825000D01*
X144397000Y-75860714D01*
X144147000Y-75789285D02*
X143647000Y-75789285D01*
X143968428Y-76539285D01*
G04 #@! TO.C,C8*
X149096000Y-81547857D02*
X149131714Y-81583571D01*
X149238857Y-81619285D01*
X149310285Y-81619285D01*
X149417428Y-81583571D01*
X149488857Y-81512142D01*
X149524571Y-81440714D01*
X149560285Y-81297857D01*
X149560285Y-81190714D01*
X149524571Y-81047857D01*
X149488857Y-80976428D01*
X149417428Y-80905000D01*
X149310285Y-80869285D01*
X149238857Y-80869285D01*
X149131714Y-80905000D01*
X149096000Y-80940714D01*
X148667428Y-81190714D02*
X148738857Y-81155000D01*
X148774571Y-81119285D01*
X148810285Y-81047857D01*
X148810285Y-81012142D01*
X148774571Y-80940714D01*
X148738857Y-80905000D01*
X148667428Y-80869285D01*
X148524571Y-80869285D01*
X148453142Y-80905000D01*
X148417428Y-80940714D01*
X148381714Y-81012142D01*
X148381714Y-81047857D01*
X148417428Y-81119285D01*
X148453142Y-81155000D01*
X148524571Y-81190714D01*
X148667428Y-81190714D01*
X148738857Y-81226428D01*
X148774571Y-81262142D01*
X148810285Y-81333571D01*
X148810285Y-81476428D01*
X148774571Y-81547857D01*
X148738857Y-81583571D01*
X148667428Y-81619285D01*
X148524571Y-81619285D01*
X148453142Y-81583571D01*
X148417428Y-81547857D01*
X148381714Y-81476428D01*
X148381714Y-81333571D01*
X148417428Y-81262142D01*
X148453142Y-81226428D01*
X148524571Y-81190714D01*
G04 #@! TO.C,C2*
X145746357Y-84511500D02*
X145782071Y-84475785D01*
X145817785Y-84368642D01*
X145817785Y-84297214D01*
X145782071Y-84190071D01*
X145710642Y-84118642D01*
X145639214Y-84082928D01*
X145496357Y-84047214D01*
X145389214Y-84047214D01*
X145246357Y-84082928D01*
X145174928Y-84118642D01*
X145103500Y-84190071D01*
X145067785Y-84297214D01*
X145067785Y-84368642D01*
X145103500Y-84475785D01*
X145139214Y-84511500D01*
X145139214Y-84797214D02*
X145103500Y-84832928D01*
X145067785Y-84904357D01*
X145067785Y-85082928D01*
X145103500Y-85154357D01*
X145139214Y-85190071D01*
X145210642Y-85225785D01*
X145282071Y-85225785D01*
X145389214Y-85190071D01*
X145817785Y-84761500D01*
X145817785Y-85225785D01*
G04 #@! TO.C,C3*
X150128857Y-88013000D02*
X150164571Y-87977285D01*
X150200285Y-87870142D01*
X150200285Y-87798714D01*
X150164571Y-87691571D01*
X150093142Y-87620142D01*
X150021714Y-87584428D01*
X149878857Y-87548714D01*
X149771714Y-87548714D01*
X149628857Y-87584428D01*
X149557428Y-87620142D01*
X149486000Y-87691571D01*
X149450285Y-87798714D01*
X149450285Y-87870142D01*
X149486000Y-87977285D01*
X149521714Y-88013000D01*
X149450285Y-88263000D02*
X149450285Y-88727285D01*
X149736000Y-88477285D01*
X149736000Y-88584428D01*
X149771714Y-88655857D01*
X149807428Y-88691571D01*
X149878857Y-88727285D01*
X150057428Y-88727285D01*
X150128857Y-88691571D01*
X150164571Y-88655857D01*
X150200285Y-88584428D01*
X150200285Y-88370142D01*
X150164571Y-88298714D01*
X150128857Y-88263000D01*
G04 #@! TO.C,C5*
X146571857Y-138432000D02*
X146607571Y-138396285D01*
X146643285Y-138289142D01*
X146643285Y-138217714D01*
X146607571Y-138110571D01*
X146536142Y-138039142D01*
X146464714Y-138003428D01*
X146321857Y-137967714D01*
X146214714Y-137967714D01*
X146071857Y-138003428D01*
X146000428Y-138039142D01*
X145929000Y-138110571D01*
X145893285Y-138217714D01*
X145893285Y-138289142D01*
X145929000Y-138396285D01*
X145964714Y-138432000D01*
X145893285Y-139110571D02*
X145893285Y-138753428D01*
X146250428Y-138717714D01*
X146214714Y-138753428D01*
X146179000Y-138824857D01*
X146179000Y-139003428D01*
X146214714Y-139074857D01*
X146250428Y-139110571D01*
X146321857Y-139146285D01*
X146500428Y-139146285D01*
X146571857Y-139110571D01*
X146607571Y-139074857D01*
X146643285Y-139003428D01*
X146643285Y-138824857D01*
X146607571Y-138753428D01*
X146571857Y-138717714D01*
G04 #@! TO.C,C4*
X151255000Y-141364857D02*
X151290714Y-141400571D01*
X151397857Y-141436285D01*
X151469285Y-141436285D01*
X151576428Y-141400571D01*
X151647857Y-141329142D01*
X151683571Y-141257714D01*
X151719285Y-141114857D01*
X151719285Y-141007714D01*
X151683571Y-140864857D01*
X151647857Y-140793428D01*
X151576428Y-140722000D01*
X151469285Y-140686285D01*
X151397857Y-140686285D01*
X151290714Y-140722000D01*
X151255000Y-140757714D01*
X150612142Y-140936285D02*
X150612142Y-141436285D01*
X150790714Y-140650571D02*
X150969285Y-141186285D01*
X150505000Y-141186285D01*
G04 #@! TO.C,R2*
X149096000Y-90826785D02*
X149346000Y-90469642D01*
X149524571Y-90826785D02*
X149524571Y-90076785D01*
X149238857Y-90076785D01*
X149167428Y-90112500D01*
X149131714Y-90148214D01*
X149096000Y-90219642D01*
X149096000Y-90326785D01*
X149131714Y-90398214D01*
X149167428Y-90433928D01*
X149238857Y-90469642D01*
X149524571Y-90469642D01*
X148810285Y-90148214D02*
X148774571Y-90112500D01*
X148703142Y-90076785D01*
X148524571Y-90076785D01*
X148453142Y-90112500D01*
X148417428Y-90148214D01*
X148381714Y-90219642D01*
X148381714Y-90291071D01*
X148417428Y-90398214D01*
X148846000Y-90826785D01*
X148381714Y-90826785D01*
G04 #@! TO.C,R1*
X143468285Y-88775000D02*
X143111142Y-88525000D01*
X143468285Y-88346428D02*
X142718285Y-88346428D01*
X142718285Y-88632142D01*
X142754000Y-88703571D01*
X142789714Y-88739285D01*
X142861142Y-88775000D01*
X142968285Y-88775000D01*
X143039714Y-88739285D01*
X143075428Y-88703571D01*
X143111142Y-88632142D01*
X143111142Y-88346428D01*
X143468285Y-89489285D02*
X143468285Y-89060714D01*
X143468285Y-89275000D02*
X142718285Y-89275000D01*
X142825428Y-89203571D01*
X142896857Y-89132142D01*
X142932571Y-89060714D01*
G04 #@! TO.C,R4*
X154771285Y-85727000D02*
X154414142Y-85477000D01*
X154771285Y-85298428D02*
X154021285Y-85298428D01*
X154021285Y-85584142D01*
X154057000Y-85655571D01*
X154092714Y-85691285D01*
X154164142Y-85727000D01*
X154271285Y-85727000D01*
X154342714Y-85691285D01*
X154378428Y-85655571D01*
X154414142Y-85584142D01*
X154414142Y-85298428D01*
X154271285Y-86369857D02*
X154771285Y-86369857D01*
X153985571Y-86191285D02*
X154521285Y-86012714D01*
X154521285Y-86477000D01*
G04 #@! TO.C,R5*
X160993285Y-85727000D02*
X160636142Y-85477000D01*
X160993285Y-85298428D02*
X160243285Y-85298428D01*
X160243285Y-85584142D01*
X160279000Y-85655571D01*
X160314714Y-85691285D01*
X160386142Y-85727000D01*
X160493285Y-85727000D01*
X160564714Y-85691285D01*
X160600428Y-85655571D01*
X160636142Y-85584142D01*
X160636142Y-85298428D01*
X160243285Y-86405571D02*
X160243285Y-86048428D01*
X160600428Y-86012714D01*
X160564714Y-86048428D01*
X160529000Y-86119857D01*
X160529000Y-86298428D01*
X160564714Y-86369857D01*
X160600428Y-86405571D01*
X160671857Y-86441285D01*
X160850428Y-86441285D01*
X160921857Y-86405571D01*
X160957571Y-86369857D01*
X160993285Y-86298428D01*
X160993285Y-86119857D01*
X160957571Y-86048428D01*
X160921857Y-86012714D01*
G04 #@! TO.C,R7*
X161121285Y-135502000D02*
X160764142Y-135252000D01*
X161121285Y-135073428D02*
X160371285Y-135073428D01*
X160371285Y-135359142D01*
X160407000Y-135430571D01*
X160442714Y-135466285D01*
X160514142Y-135502000D01*
X160621285Y-135502000D01*
X160692714Y-135466285D01*
X160728428Y-135430571D01*
X160764142Y-135359142D01*
X160764142Y-135073428D01*
X160371285Y-135752000D02*
X160371285Y-136252000D01*
X161121285Y-135930571D01*
G04 #@! TO.C,R3*
X157311285Y-135502000D02*
X156954142Y-135252000D01*
X157311285Y-135073428D02*
X156561285Y-135073428D01*
X156561285Y-135359142D01*
X156597000Y-135430571D01*
X156632714Y-135466285D01*
X156704142Y-135502000D01*
X156811285Y-135502000D01*
X156882714Y-135466285D01*
X156918428Y-135430571D01*
X156954142Y-135359142D01*
X156954142Y-135073428D01*
X156561285Y-135752000D02*
X156561285Y-136216285D01*
X156847000Y-135966285D01*
X156847000Y-136073428D01*
X156882714Y-136144857D01*
X156918428Y-136180571D01*
X156989857Y-136216285D01*
X157168428Y-136216285D01*
X157239857Y-136180571D01*
X157275571Y-136144857D01*
X157311285Y-136073428D01*
X157311285Y-135859142D01*
X157275571Y-135787714D01*
X157239857Y-135752000D01*
G04 #@! TO.C,U2*
X144970428Y-82774285D02*
X144970428Y-83381428D01*
X144934714Y-83452857D01*
X144899000Y-83488571D01*
X144827571Y-83524285D01*
X144684714Y-83524285D01*
X144613285Y-83488571D01*
X144577571Y-83452857D01*
X144541857Y-83381428D01*
X144541857Y-82774285D01*
X144220428Y-82845714D02*
X144184714Y-82810000D01*
X144113285Y-82774285D01*
X143934714Y-82774285D01*
X143863285Y-82810000D01*
X143827571Y-82845714D01*
X143791857Y-82917142D01*
X143791857Y-82988571D01*
X143827571Y-83095714D01*
X144256142Y-83524285D01*
X143791857Y-83524285D01*
G04 #@! TO.C,C6*
X150254857Y-71122000D02*
X150290571Y-71086285D01*
X150326285Y-70979142D01*
X150326285Y-70907714D01*
X150290571Y-70800571D01*
X150219142Y-70729142D01*
X150147714Y-70693428D01*
X150004857Y-70657714D01*
X149897714Y-70657714D01*
X149754857Y-70693428D01*
X149683428Y-70729142D01*
X149612000Y-70800571D01*
X149576285Y-70907714D01*
X149576285Y-70979142D01*
X149612000Y-71086285D01*
X149647714Y-71122000D01*
X149576285Y-71764857D02*
X149576285Y-71622000D01*
X149612000Y-71550571D01*
X149647714Y-71514857D01*
X149754857Y-71443428D01*
X149897714Y-71407714D01*
X150183428Y-71407714D01*
X150254857Y-71443428D01*
X150290571Y-71479142D01*
X150326285Y-71550571D01*
X150326285Y-71693428D01*
X150290571Y-71764857D01*
X150254857Y-71800571D01*
X150183428Y-71836285D01*
X150004857Y-71836285D01*
X149933428Y-71800571D01*
X149897714Y-71764857D01*
X149862000Y-71693428D01*
X149862000Y-71550571D01*
X149897714Y-71479142D01*
X149933428Y-71443428D01*
X150004857Y-71407714D01*
G04 #@! TO.C,Q1*
X152979428Y-133887714D02*
X153050857Y-133852000D01*
X153122285Y-133780571D01*
X153229428Y-133673428D01*
X153300857Y-133637714D01*
X153372285Y-133637714D01*
X153336571Y-133816285D02*
X153408000Y-133780571D01*
X153479428Y-133709142D01*
X153515142Y-133566285D01*
X153515142Y-133316285D01*
X153479428Y-133173428D01*
X153408000Y-133102000D01*
X153336571Y-133066285D01*
X153193714Y-133066285D01*
X153122285Y-133102000D01*
X153050857Y-133173428D01*
X153015142Y-133316285D01*
X153015142Y-133566285D01*
X153050857Y-133709142D01*
X153122285Y-133780571D01*
X153193714Y-133816285D01*
X153336571Y-133816285D01*
X152300857Y-133816285D02*
X152729428Y-133816285D01*
X152515142Y-133816285D02*
X152515142Y-133066285D01*
X152586571Y-133173428D01*
X152658000Y-133244857D01*
X152729428Y-133280571D01*
G04 #@! TO.C,R6*
X146175000Y-136991285D02*
X146425000Y-136634142D01*
X146603571Y-136991285D02*
X146603571Y-136241285D01*
X146317857Y-136241285D01*
X146246428Y-136277000D01*
X146210714Y-136312714D01*
X146175000Y-136384142D01*
X146175000Y-136491285D01*
X146210714Y-136562714D01*
X146246428Y-136598428D01*
X146317857Y-136634142D01*
X146603571Y-136634142D01*
X145532142Y-136241285D02*
X145675000Y-136241285D01*
X145746428Y-136277000D01*
X145782142Y-136312714D01*
X145853571Y-136419857D01*
X145889285Y-136562714D01*
X145889285Y-136848428D01*
X145853571Y-136919857D01*
X145817857Y-136955571D01*
X145746428Y-136991285D01*
X145603571Y-136991285D01*
X145532142Y-136955571D01*
X145496428Y-136919857D01*
X145460714Y-136848428D01*
X145460714Y-136669857D01*
X145496428Y-136598428D01*
X145532142Y-136562714D01*
X145603571Y-136527000D01*
X145746428Y-136527000D01*
X145817857Y-136562714D01*
X145853571Y-136598428D01*
X145889285Y-136669857D01*
G04 #@! TD*
M02*
