G04 #@! TF.GenerationSoftware,KiCad,Pcbnew,(5.0.0)*
G04 #@! TF.CreationDate,2018-09-25T17:42:13-07:00*
G04 #@! TF.ProjectId,firefly,66697265666C792E6B696361645F7063,A*
G04 #@! TF.SameCoordinates,Original*
G04 #@! TF.FileFunction,Copper,L1,Top,Signal*
G04 #@! TF.FilePolarity,Positive*
%FSLAX46Y46*%
G04 Gerber Fmt 4.6, Leading zero omitted, Abs format (unit mm)*
G04 Created by KiCad (PCBNEW (5.0.0)) date 09/25/18 17:42:13*
%MOMM*%
%LPD*%
G01*
G04 APERTURE LIST*
G04 #@! TA.AperFunction,ComponentPad*
%ADD10C,3.600000*%
G04 #@! TD*
G04 #@! TA.AperFunction,ComponentPad*
%ADD11O,1.700000X1.700000*%
G04 #@! TD*
G04 #@! TA.AperFunction,ComponentPad*
%ADD12R,1.700000X1.700000*%
G04 #@! TD*
G04 #@! TA.AperFunction,ComponentPad*
%ADD13C,2.000000*%
G04 #@! TD*
G04 #@! TA.AperFunction,SMDPad,CuDef*
%ADD14R,1.470000X1.270000*%
G04 #@! TD*
G04 #@! TA.AperFunction,SMDPad,CuDef*
%ADD15R,1.500000X2.000000*%
G04 #@! TD*
G04 #@! TA.AperFunction,SMDPad,CuDef*
%ADD16R,3.800000X2.000000*%
G04 #@! TD*
G04 #@! TA.AperFunction,SMDPad,CuDef*
%ADD17R,3.500000X1.800000*%
G04 #@! TD*
G04 #@! TA.AperFunction,Conductor*
%ADD18C,0.100000*%
G04 #@! TD*
G04 #@! TA.AperFunction,SMDPad,CuDef*
%ADD19C,1.150000*%
G04 #@! TD*
G04 #@! TA.AperFunction,ComponentPad*
%ADD20C,3.500000*%
G04 #@! TD*
G04 #@! TA.AperFunction,ComponentPad*
%ADD21C,3.000000*%
G04 #@! TD*
G04 #@! TA.AperFunction,ComponentPad*
%ADD22R,3.500000X3.500000*%
G04 #@! TD*
G04 #@! TA.AperFunction,ComponentPad*
%ADD23O,1.600000X1.600000*%
G04 #@! TD*
G04 #@! TA.AperFunction,ComponentPad*
%ADD24R,1.600000X1.600000*%
G04 #@! TD*
G04 #@! TA.AperFunction,ComponentPad*
%ADD25C,1.500000*%
G04 #@! TD*
G04 #@! TA.AperFunction,ViaPad*
%ADD26C,1.000000*%
G04 #@! TD*
G04 #@! TA.AperFunction,ViaPad*
%ADD27C,0.600000*%
G04 #@! TD*
G04 #@! TA.AperFunction,Conductor*
%ADD28C,0.762000*%
G04 #@! TD*
G04 #@! TA.AperFunction,Conductor*
%ADD29C,0.254000*%
G04 #@! TD*
G04 APERTURE END LIST*
D10*
G04 #@! TO.P,REF\002A\002A,1*
G04 #@! TO.N,GND*
X159131000Y-66693000D03*
G04 #@! TD*
D11*
G04 #@! TO.P,J8,6*
G04 #@! TO.N,GND*
X141986000Y-132080000D03*
G04 #@! TO.P,J8,5*
G04 #@! TO.N,/P1*
X141986000Y-129540000D03*
G04 #@! TO.P,J8,4*
G04 #@! TO.N,/MOSI*
X144526000Y-132080000D03*
G04 #@! TO.P,J8,3*
G04 #@! TO.N,/P19*
X144526000Y-129540000D03*
G04 #@! TO.P,J8,2*
G04 #@! TO.N,+5V*
X147066000Y-132080000D03*
D12*
G04 #@! TO.P,J8,1*
G04 #@! TO.N,/MISO*
X147066000Y-129540000D03*
G04 #@! TD*
D10*
G04 #@! TO.P,REF\002A\002A,1*
G04 #@! TO.N,GND*
X142621000Y-66675000D03*
G04 #@! TD*
G04 #@! TO.P,REF\002A\002A,1*
G04 #@! TO.N,GND*
X159131000Y-138176000D03*
G04 #@! TD*
G04 #@! TO.P,REF\002A\002A,1*
G04 #@! TO.N,GND*
X142621000Y-138176000D03*
G04 #@! TD*
D13*
G04 #@! TO.P,SW1,2*
G04 #@! TO.N,Net-(R6-Pad2)*
X155122000Y-139215000D03*
G04 #@! TO.P,SW1,1*
G04 #@! TO.N,/P1*
X150622000Y-139215000D03*
G04 #@! TO.P,SW1,2*
G04 #@! TO.N,Net-(R6-Pad2)*
X155122000Y-132715000D03*
G04 #@! TO.P,SW1,1*
G04 #@! TO.N,/P1*
X150622000Y-132715000D03*
G04 #@! TD*
D11*
G04 #@! TO.P,J6,3*
G04 #@! TO.N,/USB_5V*
X154686000Y-129540000D03*
G04 #@! TO.P,J6,2*
G04 #@! TO.N,+5V*
X157226000Y-129540000D03*
D12*
G04 #@! TO.P,J6,1*
G04 #@! TO.N,/DC_5V*
X159766000Y-129540000D03*
G04 #@! TD*
D11*
G04 #@! TO.P,J5,4*
G04 #@! TO.N,+5V*
X152146000Y-81788000D03*
G04 #@! TO.P,J5,3*
G04 #@! TO.N,+3V3*
X154686000Y-81788000D03*
G04 #@! TO.P,J5,2*
G04 #@! TO.N,GND*
X157226000Y-81788000D03*
D12*
G04 #@! TO.P,J5,1*
X159766000Y-81788000D03*
G04 #@! TD*
D11*
G04 #@! TO.P,J7,6*
G04 #@! TO.N,/RTS#*
X144526000Y-142875000D03*
G04 #@! TO.P,J7,5*
G04 #@! TO.N,/P2*
X147066000Y-142875000D03*
G04 #@! TO.P,J7,4*
G04 #@! TO.N,/P3*
X149606000Y-142875000D03*
G04 #@! TO.P,J7,3*
G04 #@! TO.N,/USB_5V*
X152146000Y-142875000D03*
G04 #@! TO.P,J7,2*
G04 #@! TO.N,GND*
X154686000Y-142875000D03*
D12*
G04 #@! TO.P,J7,1*
X157226000Y-142875000D03*
G04 #@! TD*
D14*
G04 #@! TO.P,D2,1*
G04 #@! TO.N,+5V*
X146558000Y-135225000D03*
G04 #@! TO.P,D2,2*
G04 #@! TO.N,/P1*
X146558000Y-139095000D03*
G04 #@! TD*
D15*
G04 #@! TO.P,U1,1*
G04 #@! TO.N,GND*
X146826000Y-75590000D03*
G04 #@! TO.P,U1,3*
G04 #@! TO.N,VDD*
X142226000Y-75590000D03*
G04 #@! TO.P,U1,2*
G04 #@! TO.N,/DC_5V*
X144526000Y-75590000D03*
D16*
X144526000Y-81890000D03*
G04 #@! TD*
D17*
G04 #@! TO.P,D1,2*
G04 #@! TO.N,/VIN*
X147788000Y-71628000D03*
G04 #@! TO.P,D1,1*
G04 #@! TO.N,VDD*
X142788000Y-71628000D03*
G04 #@! TD*
D18*
G04 #@! TO.N,VDD*
G04 #@! TO.C,D3*
G36*
X156430505Y-84253204D02*
X156454773Y-84256804D01*
X156478572Y-84262765D01*
X156501671Y-84271030D01*
X156523850Y-84281520D01*
X156544893Y-84294132D01*
X156564599Y-84308747D01*
X156582777Y-84325223D01*
X156599253Y-84343401D01*
X156613868Y-84363107D01*
X156626480Y-84384150D01*
X156636970Y-84406329D01*
X156645235Y-84429428D01*
X156651196Y-84453227D01*
X156654796Y-84477495D01*
X156656000Y-84501999D01*
X156656000Y-85152001D01*
X156654796Y-85176505D01*
X156651196Y-85200773D01*
X156645235Y-85224572D01*
X156636970Y-85247671D01*
X156626480Y-85269850D01*
X156613868Y-85290893D01*
X156599253Y-85310599D01*
X156582777Y-85328777D01*
X156564599Y-85345253D01*
X156544893Y-85359868D01*
X156523850Y-85372480D01*
X156501671Y-85382970D01*
X156478572Y-85391235D01*
X156454773Y-85397196D01*
X156430505Y-85400796D01*
X156406001Y-85402000D01*
X155505999Y-85402000D01*
X155481495Y-85400796D01*
X155457227Y-85397196D01*
X155433428Y-85391235D01*
X155410329Y-85382970D01*
X155388150Y-85372480D01*
X155367107Y-85359868D01*
X155347401Y-85345253D01*
X155329223Y-85328777D01*
X155312747Y-85310599D01*
X155298132Y-85290893D01*
X155285520Y-85269850D01*
X155275030Y-85247671D01*
X155266765Y-85224572D01*
X155260804Y-85200773D01*
X155257204Y-85176505D01*
X155256000Y-85152001D01*
X155256000Y-84501999D01*
X155257204Y-84477495D01*
X155260804Y-84453227D01*
X155266765Y-84429428D01*
X155275030Y-84406329D01*
X155285520Y-84384150D01*
X155298132Y-84363107D01*
X155312747Y-84343401D01*
X155329223Y-84325223D01*
X155347401Y-84308747D01*
X155367107Y-84294132D01*
X155388150Y-84281520D01*
X155410329Y-84271030D01*
X155433428Y-84262765D01*
X155457227Y-84256804D01*
X155481495Y-84253204D01*
X155505999Y-84252000D01*
X156406001Y-84252000D01*
X156430505Y-84253204D01*
X156430505Y-84253204D01*
G37*
D19*
G04 #@! TD*
G04 #@! TO.P,D3,2*
G04 #@! TO.N,VDD*
X155956000Y-84827000D03*
D18*
G04 #@! TO.N,Net-(D3-Pad1)*
G04 #@! TO.C,D3*
G36*
X156430505Y-86303204D02*
X156454773Y-86306804D01*
X156478572Y-86312765D01*
X156501671Y-86321030D01*
X156523850Y-86331520D01*
X156544893Y-86344132D01*
X156564599Y-86358747D01*
X156582777Y-86375223D01*
X156599253Y-86393401D01*
X156613868Y-86413107D01*
X156626480Y-86434150D01*
X156636970Y-86456329D01*
X156645235Y-86479428D01*
X156651196Y-86503227D01*
X156654796Y-86527495D01*
X156656000Y-86551999D01*
X156656000Y-87202001D01*
X156654796Y-87226505D01*
X156651196Y-87250773D01*
X156645235Y-87274572D01*
X156636970Y-87297671D01*
X156626480Y-87319850D01*
X156613868Y-87340893D01*
X156599253Y-87360599D01*
X156582777Y-87378777D01*
X156564599Y-87395253D01*
X156544893Y-87409868D01*
X156523850Y-87422480D01*
X156501671Y-87432970D01*
X156478572Y-87441235D01*
X156454773Y-87447196D01*
X156430505Y-87450796D01*
X156406001Y-87452000D01*
X155505999Y-87452000D01*
X155481495Y-87450796D01*
X155457227Y-87447196D01*
X155433428Y-87441235D01*
X155410329Y-87432970D01*
X155388150Y-87422480D01*
X155367107Y-87409868D01*
X155347401Y-87395253D01*
X155329223Y-87378777D01*
X155312747Y-87360599D01*
X155298132Y-87340893D01*
X155285520Y-87319850D01*
X155275030Y-87297671D01*
X155266765Y-87274572D01*
X155260804Y-87250773D01*
X155257204Y-87226505D01*
X155256000Y-87202001D01*
X155256000Y-86551999D01*
X155257204Y-86527495D01*
X155260804Y-86503227D01*
X155266765Y-86479428D01*
X155275030Y-86456329D01*
X155285520Y-86434150D01*
X155298132Y-86413107D01*
X155312747Y-86393401D01*
X155329223Y-86375223D01*
X155347401Y-86358747D01*
X155367107Y-86344132D01*
X155388150Y-86331520D01*
X155410329Y-86321030D01*
X155433428Y-86312765D01*
X155457227Y-86306804D01*
X155481495Y-86303204D01*
X155505999Y-86302000D01*
X156406001Y-86302000D01*
X156430505Y-86303204D01*
X156430505Y-86303204D01*
G37*
D19*
G04 #@! TD*
G04 #@! TO.P,D3,1*
G04 #@! TO.N,Net-(D3-Pad1)*
X155956000Y-86877000D03*
D18*
G04 #@! TO.N,Net-(D4-Pad1)*
G04 #@! TO.C,D4*
G36*
X159478505Y-86303204D02*
X159502773Y-86306804D01*
X159526572Y-86312765D01*
X159549671Y-86321030D01*
X159571850Y-86331520D01*
X159592893Y-86344132D01*
X159612599Y-86358747D01*
X159630777Y-86375223D01*
X159647253Y-86393401D01*
X159661868Y-86413107D01*
X159674480Y-86434150D01*
X159684970Y-86456329D01*
X159693235Y-86479428D01*
X159699196Y-86503227D01*
X159702796Y-86527495D01*
X159704000Y-86551999D01*
X159704000Y-87202001D01*
X159702796Y-87226505D01*
X159699196Y-87250773D01*
X159693235Y-87274572D01*
X159684970Y-87297671D01*
X159674480Y-87319850D01*
X159661868Y-87340893D01*
X159647253Y-87360599D01*
X159630777Y-87378777D01*
X159612599Y-87395253D01*
X159592893Y-87409868D01*
X159571850Y-87422480D01*
X159549671Y-87432970D01*
X159526572Y-87441235D01*
X159502773Y-87447196D01*
X159478505Y-87450796D01*
X159454001Y-87452000D01*
X158553999Y-87452000D01*
X158529495Y-87450796D01*
X158505227Y-87447196D01*
X158481428Y-87441235D01*
X158458329Y-87432970D01*
X158436150Y-87422480D01*
X158415107Y-87409868D01*
X158395401Y-87395253D01*
X158377223Y-87378777D01*
X158360747Y-87360599D01*
X158346132Y-87340893D01*
X158333520Y-87319850D01*
X158323030Y-87297671D01*
X158314765Y-87274572D01*
X158308804Y-87250773D01*
X158305204Y-87226505D01*
X158304000Y-87202001D01*
X158304000Y-86551999D01*
X158305204Y-86527495D01*
X158308804Y-86503227D01*
X158314765Y-86479428D01*
X158323030Y-86456329D01*
X158333520Y-86434150D01*
X158346132Y-86413107D01*
X158360747Y-86393401D01*
X158377223Y-86375223D01*
X158395401Y-86358747D01*
X158415107Y-86344132D01*
X158436150Y-86331520D01*
X158458329Y-86321030D01*
X158481428Y-86312765D01*
X158505227Y-86306804D01*
X158529495Y-86303204D01*
X158553999Y-86302000D01*
X159454001Y-86302000D01*
X159478505Y-86303204D01*
X159478505Y-86303204D01*
G37*
D19*
G04 #@! TD*
G04 #@! TO.P,D4,1*
G04 #@! TO.N,Net-(D4-Pad1)*
X159004000Y-86877000D03*
D18*
G04 #@! TO.N,+5V*
G04 #@! TO.C,D4*
G36*
X159478505Y-84253204D02*
X159502773Y-84256804D01*
X159526572Y-84262765D01*
X159549671Y-84271030D01*
X159571850Y-84281520D01*
X159592893Y-84294132D01*
X159612599Y-84308747D01*
X159630777Y-84325223D01*
X159647253Y-84343401D01*
X159661868Y-84363107D01*
X159674480Y-84384150D01*
X159684970Y-84406329D01*
X159693235Y-84429428D01*
X159699196Y-84453227D01*
X159702796Y-84477495D01*
X159704000Y-84501999D01*
X159704000Y-85152001D01*
X159702796Y-85176505D01*
X159699196Y-85200773D01*
X159693235Y-85224572D01*
X159684970Y-85247671D01*
X159674480Y-85269850D01*
X159661868Y-85290893D01*
X159647253Y-85310599D01*
X159630777Y-85328777D01*
X159612599Y-85345253D01*
X159592893Y-85359868D01*
X159571850Y-85372480D01*
X159549671Y-85382970D01*
X159526572Y-85391235D01*
X159502773Y-85397196D01*
X159478505Y-85400796D01*
X159454001Y-85402000D01*
X158553999Y-85402000D01*
X158529495Y-85400796D01*
X158505227Y-85397196D01*
X158481428Y-85391235D01*
X158458329Y-85382970D01*
X158436150Y-85372480D01*
X158415107Y-85359868D01*
X158395401Y-85345253D01*
X158377223Y-85328777D01*
X158360747Y-85310599D01*
X158346132Y-85290893D01*
X158333520Y-85269850D01*
X158323030Y-85247671D01*
X158314765Y-85224572D01*
X158308804Y-85200773D01*
X158305204Y-85176505D01*
X158304000Y-85152001D01*
X158304000Y-84501999D01*
X158305204Y-84477495D01*
X158308804Y-84453227D01*
X158314765Y-84429428D01*
X158323030Y-84406329D01*
X158333520Y-84384150D01*
X158346132Y-84363107D01*
X158360747Y-84343401D01*
X158377223Y-84325223D01*
X158395401Y-84308747D01*
X158415107Y-84294132D01*
X158436150Y-84281520D01*
X158458329Y-84271030D01*
X158481428Y-84262765D01*
X158505227Y-84256804D01*
X158529495Y-84253204D01*
X158553999Y-84252000D01*
X159454001Y-84252000D01*
X159478505Y-84253204D01*
X159478505Y-84253204D01*
G37*
D19*
G04 #@! TD*
G04 #@! TO.P,D4,2*
G04 #@! TO.N,+5V*
X159004000Y-84827000D03*
D18*
G04 #@! TO.N,Net-(D5-Pad2)*
G04 #@! TO.C,D5*
G36*
X151350505Y-127306204D02*
X151374773Y-127309804D01*
X151398572Y-127315765D01*
X151421671Y-127324030D01*
X151443850Y-127334520D01*
X151464893Y-127347132D01*
X151484599Y-127361747D01*
X151502777Y-127378223D01*
X151519253Y-127396401D01*
X151533868Y-127416107D01*
X151546480Y-127437150D01*
X151556970Y-127459329D01*
X151565235Y-127482428D01*
X151571196Y-127506227D01*
X151574796Y-127530495D01*
X151576000Y-127554999D01*
X151576000Y-128205001D01*
X151574796Y-128229505D01*
X151571196Y-128253773D01*
X151565235Y-128277572D01*
X151556970Y-128300671D01*
X151546480Y-128322850D01*
X151533868Y-128343893D01*
X151519253Y-128363599D01*
X151502777Y-128381777D01*
X151484599Y-128398253D01*
X151464893Y-128412868D01*
X151443850Y-128425480D01*
X151421671Y-128435970D01*
X151398572Y-128444235D01*
X151374773Y-128450196D01*
X151350505Y-128453796D01*
X151326001Y-128455000D01*
X150425999Y-128455000D01*
X150401495Y-128453796D01*
X150377227Y-128450196D01*
X150353428Y-128444235D01*
X150330329Y-128435970D01*
X150308150Y-128425480D01*
X150287107Y-128412868D01*
X150267401Y-128398253D01*
X150249223Y-128381777D01*
X150232747Y-128363599D01*
X150218132Y-128343893D01*
X150205520Y-128322850D01*
X150195030Y-128300671D01*
X150186765Y-128277572D01*
X150180804Y-128253773D01*
X150177204Y-128229505D01*
X150176000Y-128205001D01*
X150176000Y-127554999D01*
X150177204Y-127530495D01*
X150180804Y-127506227D01*
X150186765Y-127482428D01*
X150195030Y-127459329D01*
X150205520Y-127437150D01*
X150218132Y-127416107D01*
X150232747Y-127396401D01*
X150249223Y-127378223D01*
X150267401Y-127361747D01*
X150287107Y-127347132D01*
X150308150Y-127334520D01*
X150330329Y-127324030D01*
X150353428Y-127315765D01*
X150377227Y-127309804D01*
X150401495Y-127306204D01*
X150425999Y-127305000D01*
X151326001Y-127305000D01*
X151350505Y-127306204D01*
X151350505Y-127306204D01*
G37*
D19*
G04 #@! TD*
G04 #@! TO.P,D5,2*
G04 #@! TO.N,Net-(D5-Pad2)*
X150876000Y-127880000D03*
D18*
G04 #@! TO.N,Net-(D5-Pad1)*
G04 #@! TO.C,D5*
G36*
X151350505Y-129356204D02*
X151374773Y-129359804D01*
X151398572Y-129365765D01*
X151421671Y-129374030D01*
X151443850Y-129384520D01*
X151464893Y-129397132D01*
X151484599Y-129411747D01*
X151502777Y-129428223D01*
X151519253Y-129446401D01*
X151533868Y-129466107D01*
X151546480Y-129487150D01*
X151556970Y-129509329D01*
X151565235Y-129532428D01*
X151571196Y-129556227D01*
X151574796Y-129580495D01*
X151576000Y-129604999D01*
X151576000Y-130255001D01*
X151574796Y-130279505D01*
X151571196Y-130303773D01*
X151565235Y-130327572D01*
X151556970Y-130350671D01*
X151546480Y-130372850D01*
X151533868Y-130393893D01*
X151519253Y-130413599D01*
X151502777Y-130431777D01*
X151484599Y-130448253D01*
X151464893Y-130462868D01*
X151443850Y-130475480D01*
X151421671Y-130485970D01*
X151398572Y-130494235D01*
X151374773Y-130500196D01*
X151350505Y-130503796D01*
X151326001Y-130505000D01*
X150425999Y-130505000D01*
X150401495Y-130503796D01*
X150377227Y-130500196D01*
X150353428Y-130494235D01*
X150330329Y-130485970D01*
X150308150Y-130475480D01*
X150287107Y-130462868D01*
X150267401Y-130448253D01*
X150249223Y-130431777D01*
X150232747Y-130413599D01*
X150218132Y-130393893D01*
X150205520Y-130372850D01*
X150195030Y-130350671D01*
X150186765Y-130327572D01*
X150180804Y-130303773D01*
X150177204Y-130279505D01*
X150176000Y-130255001D01*
X150176000Y-129604999D01*
X150177204Y-129580495D01*
X150180804Y-129556227D01*
X150186765Y-129532428D01*
X150195030Y-129509329D01*
X150205520Y-129487150D01*
X150218132Y-129466107D01*
X150232747Y-129446401D01*
X150249223Y-129428223D01*
X150267401Y-129411747D01*
X150287107Y-129397132D01*
X150308150Y-129384520D01*
X150330329Y-129374030D01*
X150353428Y-129365765D01*
X150377227Y-129359804D01*
X150401495Y-129356204D01*
X150425999Y-129355000D01*
X151326001Y-129355000D01*
X151350505Y-129356204D01*
X151350505Y-129356204D01*
G37*
D19*
G04 #@! TD*
G04 #@! TO.P,D5,1*
G04 #@! TO.N,Net-(D5-Pad1)*
X150876000Y-129930000D03*
D18*
G04 #@! TO.N,N/C*
G04 #@! TO.C,J1*
G36*
X152851765Y-73232213D02*
X152936704Y-73244813D01*
X153019999Y-73265677D01*
X153100848Y-73294605D01*
X153178472Y-73331319D01*
X153252124Y-73375464D01*
X153321094Y-73426616D01*
X153384718Y-73484282D01*
X153442384Y-73547906D01*
X153493536Y-73616876D01*
X153537681Y-73690528D01*
X153574395Y-73768152D01*
X153603323Y-73849001D01*
X153624187Y-73932296D01*
X153636787Y-74017235D01*
X153641000Y-74103000D01*
X153641000Y-75853000D01*
X153636787Y-75938765D01*
X153624187Y-76023704D01*
X153603323Y-76106999D01*
X153574395Y-76187848D01*
X153537681Y-76265472D01*
X153493536Y-76339124D01*
X153442384Y-76408094D01*
X153384718Y-76471718D01*
X153321094Y-76529384D01*
X153252124Y-76580536D01*
X153178472Y-76624681D01*
X153100848Y-76661395D01*
X153019999Y-76690323D01*
X152936704Y-76711187D01*
X152851765Y-76723787D01*
X152766000Y-76728000D01*
X151016000Y-76728000D01*
X150930235Y-76723787D01*
X150845296Y-76711187D01*
X150762001Y-76690323D01*
X150681152Y-76661395D01*
X150603528Y-76624681D01*
X150529876Y-76580536D01*
X150460906Y-76529384D01*
X150397282Y-76471718D01*
X150339616Y-76408094D01*
X150288464Y-76339124D01*
X150244319Y-76265472D01*
X150207605Y-76187848D01*
X150178677Y-76106999D01*
X150157813Y-76023704D01*
X150145213Y-75938765D01*
X150141000Y-75853000D01*
X150141000Y-74103000D01*
X150145213Y-74017235D01*
X150157813Y-73932296D01*
X150178677Y-73849001D01*
X150207605Y-73768152D01*
X150244319Y-73690528D01*
X150288464Y-73616876D01*
X150339616Y-73547906D01*
X150397282Y-73484282D01*
X150460906Y-73426616D01*
X150529876Y-73375464D01*
X150603528Y-73331319D01*
X150681152Y-73294605D01*
X150762001Y-73265677D01*
X150845296Y-73244813D01*
X150930235Y-73232213D01*
X151016000Y-73228000D01*
X152766000Y-73228000D01*
X152851765Y-73232213D01*
X152851765Y-73232213D01*
G37*
D20*
G04 #@! TD*
G04 #@! TO.P,J1,3*
G04 #@! TO.N,N/C*
X151891000Y-74978000D03*
D18*
G04 #@! TO.N,GND*
G04 #@! TO.C,J1*
G36*
X157664513Y-70481611D02*
X157737318Y-70492411D01*
X157808714Y-70510295D01*
X157878013Y-70535090D01*
X157944548Y-70566559D01*
X158007678Y-70604398D01*
X158066795Y-70648242D01*
X158121330Y-70697670D01*
X158170758Y-70752205D01*
X158214602Y-70811322D01*
X158252441Y-70874452D01*
X158283910Y-70940987D01*
X158308705Y-71010286D01*
X158326589Y-71081682D01*
X158337389Y-71154487D01*
X158341000Y-71228000D01*
X158341000Y-72728000D01*
X158337389Y-72801513D01*
X158326589Y-72874318D01*
X158308705Y-72945714D01*
X158283910Y-73015013D01*
X158252441Y-73081548D01*
X158214602Y-73144678D01*
X158170758Y-73203795D01*
X158121330Y-73258330D01*
X158066795Y-73307758D01*
X158007678Y-73351602D01*
X157944548Y-73389441D01*
X157878013Y-73420910D01*
X157808714Y-73445705D01*
X157737318Y-73463589D01*
X157664513Y-73474389D01*
X157591000Y-73478000D01*
X155591000Y-73478000D01*
X155517487Y-73474389D01*
X155444682Y-73463589D01*
X155373286Y-73445705D01*
X155303987Y-73420910D01*
X155237452Y-73389441D01*
X155174322Y-73351602D01*
X155115205Y-73307758D01*
X155060670Y-73258330D01*
X155011242Y-73203795D01*
X154967398Y-73144678D01*
X154929559Y-73081548D01*
X154898090Y-73015013D01*
X154873295Y-72945714D01*
X154855411Y-72874318D01*
X154844611Y-72801513D01*
X154841000Y-72728000D01*
X154841000Y-71228000D01*
X154844611Y-71154487D01*
X154855411Y-71081682D01*
X154873295Y-71010286D01*
X154898090Y-70940987D01*
X154929559Y-70874452D01*
X154967398Y-70811322D01*
X155011242Y-70752205D01*
X155060670Y-70697670D01*
X155115205Y-70648242D01*
X155174322Y-70604398D01*
X155237452Y-70566559D01*
X155303987Y-70535090D01*
X155373286Y-70510295D01*
X155444682Y-70492411D01*
X155517487Y-70481611D01*
X155591000Y-70478000D01*
X157591000Y-70478000D01*
X157664513Y-70481611D01*
X157664513Y-70481611D01*
G37*
D21*
G04 #@! TD*
G04 #@! TO.P,J1,2*
G04 #@! TO.N,GND*
X156591000Y-71978000D03*
D22*
G04 #@! TO.P,J1,1*
G04 #@! TO.N,/VIN*
X156591000Y-77978000D03*
G04 #@! TD*
D12*
G04 #@! TO.P,J2,1*
G04 #@! TO.N,/P1*
X141986000Y-91440000D03*
D11*
G04 #@! TO.P,J2,2*
G04 #@! TO.N,/P2*
X141986000Y-93980000D03*
G04 #@! TO.P,J2,3*
G04 #@! TO.N,/P3*
X141986000Y-96520000D03*
G04 #@! TO.P,J2,4*
G04 #@! TO.N,/P4*
X141986000Y-99060000D03*
G04 #@! TO.P,J2,5*
G04 #@! TO.N,/P5*
X141986000Y-101600000D03*
G04 #@! TO.P,J2,6*
G04 #@! TO.N,/P6*
X141986000Y-104140000D03*
G04 #@! TO.P,J2,7*
G04 #@! TO.N,/P20*
X141986000Y-106680000D03*
G04 #@! TO.P,J2,8*
G04 #@! TO.N,GND*
X141986000Y-109220000D03*
G04 #@! TO.P,J2,9*
G04 #@! TO.N,/OSC1*
X141986000Y-111760000D03*
G04 #@! TO.P,J2,10*
G04 #@! TO.N,/OSC2*
X141986000Y-114300000D03*
G04 #@! TO.P,J2,11*
G04 #@! TO.N,/P11*
X141986000Y-116840000D03*
G04 #@! TO.P,J2,12*
G04 #@! TO.N,/P12*
X141986000Y-119380000D03*
G04 #@! TO.P,J2,13*
G04 #@! TO.N,/P13*
X141986000Y-121920000D03*
G04 #@! TO.P,J2,14*
G04 #@! TO.N,/P14*
X141986000Y-124460000D03*
G04 #@! TD*
G04 #@! TO.P,J3,14*
G04 #@! TO.N,/P28*
X159766000Y-91440000D03*
G04 #@! TO.P,J3,13*
G04 #@! TO.N,/P27*
X159766000Y-93980000D03*
G04 #@! TO.P,J3,12*
G04 #@! TO.N,/P26*
X159766000Y-96520000D03*
G04 #@! TO.P,J3,11*
G04 #@! TO.N,/P25*
X159766000Y-99060000D03*
G04 #@! TO.P,J3,10*
G04 #@! TO.N,/P24*
X159766000Y-101600000D03*
G04 #@! TO.P,J3,9*
G04 #@! TO.N,/P23*
X159766000Y-104140000D03*
G04 #@! TO.P,J3,8*
G04 #@! TO.N,GND*
X159766000Y-106680000D03*
G04 #@! TO.P,J3,7*
G04 #@! TO.N,/P21*
X159766000Y-109220000D03*
G04 #@! TO.P,J3,6*
G04 #@! TO.N,/P20*
X159766000Y-111760000D03*
G04 #@! TO.P,J3,5*
G04 #@! TO.N,/P19*
X159766000Y-114300000D03*
G04 #@! TO.P,J3,4*
G04 #@! TO.N,/MISO*
X159766000Y-116840000D03*
G04 #@! TO.P,J3,3*
G04 #@! TO.N,/MOSI*
X159766000Y-119380000D03*
G04 #@! TO.P,J3,2*
G04 #@! TO.N,/P16*
X159766000Y-121920000D03*
D12*
G04 #@! TO.P,J3,1*
G04 #@! TO.N,/P15*
X159766000Y-124460000D03*
G04 #@! TD*
D11*
G04 #@! TO.P,J4,2*
G04 #@! TO.N,GND*
X147066000Y-66040000D03*
D12*
G04 #@! TO.P,J4,1*
G04 #@! TO.N,/VIN*
X149606000Y-66040000D03*
G04 #@! TD*
D23*
G04 #@! TO.P,U2,28*
G04 #@! TO.N,/P28*
X154686000Y-91440000D03*
G04 #@! TO.P,U2,14*
G04 #@! TO.N,/P14*
X147066000Y-124460000D03*
G04 #@! TO.P,U2,27*
G04 #@! TO.N,/P27*
X154686000Y-93980000D03*
G04 #@! TO.P,U2,13*
G04 #@! TO.N,/P13*
X147066000Y-121920000D03*
G04 #@! TO.P,U2,26*
G04 #@! TO.N,/P26*
X154686000Y-96520000D03*
G04 #@! TO.P,U2,12*
G04 #@! TO.N,/P12*
X147066000Y-119380000D03*
G04 #@! TO.P,U2,25*
G04 #@! TO.N,/P25*
X154686000Y-99060000D03*
G04 #@! TO.P,U2,11*
G04 #@! TO.N,/P11*
X147066000Y-116840000D03*
G04 #@! TO.P,U2,24*
G04 #@! TO.N,/P24*
X154686000Y-101600000D03*
G04 #@! TO.P,U2,10*
G04 #@! TO.N,/OSC2*
X147066000Y-114300000D03*
G04 #@! TO.P,U2,23*
G04 #@! TO.N,/P23*
X154686000Y-104140000D03*
G04 #@! TO.P,U2,9*
G04 #@! TO.N,/OSC1*
X147066000Y-111760000D03*
G04 #@! TO.P,U2,22*
G04 #@! TO.N,GND*
X154686000Y-106680000D03*
G04 #@! TO.P,U2,8*
X147066000Y-109220000D03*
G04 #@! TO.P,U2,21*
G04 #@! TO.N,/P21*
X154686000Y-109220000D03*
G04 #@! TO.P,U2,7*
G04 #@! TO.N,/P20*
X147066000Y-106680000D03*
G04 #@! TO.P,U2,20*
X154686000Y-111760000D03*
G04 #@! TO.P,U2,6*
G04 #@! TO.N,/P6*
X147066000Y-104140000D03*
G04 #@! TO.P,U2,19*
G04 #@! TO.N,/P19*
X154686000Y-114300000D03*
G04 #@! TO.P,U2,5*
G04 #@! TO.N,/P5*
X147066000Y-101600000D03*
G04 #@! TO.P,U2,18*
G04 #@! TO.N,/MISO*
X154686000Y-116840000D03*
G04 #@! TO.P,U2,4*
G04 #@! TO.N,/P4*
X147066000Y-99060000D03*
G04 #@! TO.P,U2,17*
G04 #@! TO.N,/MOSI*
X154686000Y-119380000D03*
G04 #@! TO.P,U2,3*
G04 #@! TO.N,/P3*
X147066000Y-96520000D03*
G04 #@! TO.P,U2,16*
G04 #@! TO.N,/P16*
X154686000Y-121920000D03*
G04 #@! TO.P,U2,2*
G04 #@! TO.N,/P2*
X147066000Y-93980000D03*
G04 #@! TO.P,U2,15*
G04 #@! TO.N,/P15*
X154686000Y-124460000D03*
D24*
G04 #@! TO.P,U2,1*
G04 #@! TO.N,/P1*
X147066000Y-91440000D03*
G04 #@! TD*
D25*
G04 #@! TO.P,Y1,2*
G04 #@! TO.N,/OSC2*
X149406000Y-86360000D03*
G04 #@! TO.P,Y1,1*
G04 #@! TO.N,/OSC1*
X144526000Y-86360000D03*
G04 #@! TD*
D26*
G04 #@! TO.N,GND*
X147066000Y-77724000D03*
D27*
G04 #@! TO.N,/OSC2*
X145668996Y-90043000D03*
G04 #@! TO.N,/P1*
X147447000Y-136524978D03*
X143256000Y-133858000D03*
G04 #@! TO.N,/RTS#*
X146050000Y-140335000D03*
G04 #@! TO.N,/P3*
X149225000Y-97917000D03*
D26*
G04 #@! TO.N,+5V*
X151384000Y-119380000D03*
X141478000Y-79946500D03*
X150876002Y-90170000D03*
X141478002Y-83947000D03*
X148073000Y-134003001D03*
G04 #@! TO.N,VDD*
X142231000Y-73906600D03*
G04 #@! TO.N,+3V3*
X150368000Y-79756000D03*
D27*
G04 #@! TO.N,Net-(D3-Pad1)*
X157480000Y-86360000D03*
G04 #@! TO.N,Net-(D4-Pad1)*
X157480000Y-87376000D03*
G04 #@! TO.N,Net-(D5-Pad2)*
X149987000Y-136906000D03*
G04 #@! TO.N,Net-(D5-Pad1)*
X152153990Y-131435527D03*
D26*
G04 #@! TO.N,/DC_5V*
X141605000Y-77724000D03*
G04 #@! TD*
D28*
G04 #@! TO.N,GND*
X146826000Y-75590000D02*
X146826000Y-77484000D01*
X146826000Y-77484000D02*
X147066000Y-77724000D01*
X141986000Y-109220000D02*
X147066000Y-109220000D01*
X154686000Y-106680000D02*
X159766000Y-106680000D01*
D29*
G04 #@! TO.N,/OSC1*
X143188081Y-111760000D02*
X147066000Y-111760000D01*
X141986000Y-111760000D02*
X143188081Y-111760000D01*
G04 #@! TO.N,/OSC2*
X141986000Y-114300000D02*
X147066000Y-114300000D01*
X145723000Y-90043000D02*
X145668996Y-90043000D01*
X149406000Y-86360000D02*
X145723000Y-90043000D01*
G04 #@! TO.N,/P1*
X141986000Y-91440000D02*
X143090000Y-91440000D01*
X143090000Y-91440000D02*
X147066000Y-91440000D01*
X150368000Y-138811000D02*
X150622000Y-139065000D01*
X146558000Y-138430000D02*
X146558000Y-138587000D01*
X146558000Y-138430000D02*
X146558000Y-139095000D01*
X146678000Y-139215000D02*
X146558000Y-139095000D01*
X141986000Y-129540000D02*
X143256000Y-130810000D01*
X143256000Y-130810000D02*
X143256000Y-133858000D01*
X147147001Y-136824977D02*
X147447000Y-136524978D01*
X146558000Y-138430000D02*
X146558000Y-137413978D01*
X146558000Y-137413978D02*
X147147001Y-136824977D01*
G04 #@! TO.N,/RTS#*
X144526000Y-141859000D02*
X144526000Y-142875000D01*
X146050000Y-140335000D02*
X144526000Y-141859000D01*
G04 #@! TO.N,/P2*
X141986000Y-93980000D02*
X147066000Y-93980000D01*
X147865999Y-94779999D02*
X147066000Y-93980000D01*
X148463000Y-95377000D02*
X147865999Y-94779999D01*
X148525404Y-141415596D02*
X148525405Y-134756089D01*
X147066000Y-142875000D02*
X148525404Y-141415596D01*
X148525405Y-134756089D02*
X148958223Y-134323271D01*
X148958223Y-134323271D02*
X148958223Y-133518589D01*
X148958223Y-133518589D02*
X148463000Y-133023366D01*
X148463000Y-133023366D02*
X148463000Y-95377000D01*
G04 #@! TO.N,/P3*
X141986000Y-96520000D02*
X147066000Y-96520000D01*
X149225000Y-98341264D02*
X149225000Y-97917000D01*
X148971000Y-98595264D02*
X149225000Y-98341264D01*
X148971000Y-132889298D02*
X148971000Y-98595264D01*
X149606000Y-141672919D02*
X148979415Y-141046334D01*
X148979415Y-141046334D02*
X148979415Y-134944147D01*
X149606000Y-142875000D02*
X149606000Y-141672919D01*
X148979415Y-134944147D02*
X149412233Y-134511329D01*
X149412233Y-134511329D02*
X149412233Y-133330531D01*
X149412233Y-133330531D02*
X148971000Y-132889298D01*
G04 #@! TO.N,/P4*
X141986000Y-99060000D02*
X147066000Y-99060000D01*
G04 #@! TO.N,/P5*
X141986000Y-101600000D02*
X147066000Y-101600000D01*
G04 #@! TO.N,/P6*
X141986000Y-104140000D02*
X147066000Y-104140000D01*
D28*
G04 #@! TO.N,+5V*
X157226000Y-129540000D02*
X157226000Y-127762000D01*
X157226000Y-129540000D02*
X157226000Y-131064000D01*
X147066000Y-133282081D02*
X147786920Y-134003001D01*
X147066000Y-132080000D02*
X147066000Y-133282081D01*
X147786920Y-134003001D02*
X148073000Y-134003001D01*
D29*
G04 #@! TO.N,/P11*
X141986000Y-116840000D02*
X147066000Y-116840000D01*
G04 #@! TO.N,/P12*
X141986000Y-119380000D02*
X143002000Y-119380000D01*
X143002000Y-119380000D02*
X147066000Y-119380000D01*
G04 #@! TO.N,/P13*
X141986000Y-121920000D02*
X147066000Y-121920000D01*
G04 #@! TO.N,/P14*
X143188081Y-124460000D02*
X147066000Y-124460000D01*
X141986000Y-124460000D02*
X143188081Y-124460000D01*
G04 #@! TO.N,/P15*
X154686000Y-124460000D02*
X159766000Y-124460000D01*
G04 #@! TO.N,/P16*
X155817370Y-121920000D02*
X159766000Y-121920000D01*
X154686000Y-121920000D02*
X155817370Y-121920000D01*
G04 #@! TO.N,/P19*
X154686000Y-114300000D02*
X159766000Y-114300000D01*
D28*
G04 #@! TO.N,/P20*
X141986000Y-106680000D02*
X147066000Y-106680000D01*
X154686000Y-111760000D02*
X159766000Y-111760000D01*
D29*
G04 #@! TO.N,/P23*
X155817370Y-104140000D02*
X159766000Y-104140000D01*
X154686000Y-104140000D02*
X155817370Y-104140000D01*
G04 #@! TO.N,/P24*
X154686000Y-101600000D02*
X159766000Y-101600000D01*
G04 #@! TO.N,/P25*
X155817370Y-99060000D02*
X159766000Y-99060000D01*
X154686000Y-99060000D02*
X155817370Y-99060000D01*
G04 #@! TO.N,/P26*
X155817370Y-96520000D02*
X159766000Y-96520000D01*
X154686000Y-96520000D02*
X155817370Y-96520000D01*
G04 #@! TO.N,/P27*
X154686000Y-93980000D02*
X159766000Y-93980000D01*
G04 #@! TO.N,/P28*
X159766000Y-91440000D02*
X154686000Y-91440000D01*
D28*
G04 #@! TO.N,VDD*
X143042000Y-71414000D02*
X143042000Y-71120000D01*
X142788000Y-71668000D02*
X142788000Y-71628000D01*
X151629000Y-84827000D02*
X149098000Y-82296000D01*
X155956000Y-84827000D02*
X151629000Y-84827000D01*
X149098000Y-82296000D02*
X149098000Y-74676000D01*
X149098000Y-74676000D02*
X148082000Y-73660000D01*
X148082000Y-73660000D02*
X144780000Y-73660000D01*
X144780000Y-73660000D02*
X142788000Y-71668000D01*
X142226000Y-75590000D02*
X142231000Y-75585000D01*
X142788000Y-71628000D02*
X142788000Y-73349600D01*
X142788000Y-73349600D02*
X142730999Y-73406601D01*
X142231000Y-74613706D02*
X142231000Y-73906600D01*
X142730999Y-73406601D02*
X142231000Y-73906600D01*
X142231000Y-75585000D02*
X142231000Y-74613706D01*
G04 #@! TO.N,+3V3*
X154686000Y-81788000D02*
X152654000Y-79756000D01*
X152654000Y-79756000D02*
X151075106Y-79756000D01*
X151075106Y-79756000D02*
X150368000Y-79756000D01*
D29*
G04 #@! TO.N,Net-(D3-Pad1)*
X156473000Y-86360000D02*
X155956000Y-86877000D01*
X157480000Y-86360000D02*
X156473000Y-86360000D01*
G04 #@! TO.N,Net-(D4-Pad1)*
X158505000Y-87376000D02*
X159004000Y-86877000D01*
X157480000Y-87376000D02*
X158505000Y-87376000D01*
G04 #@! TO.N,/MOSI*
X154686000Y-119380000D02*
X159766000Y-119380000D01*
G04 #@! TO.N,/MISO*
X155817370Y-116840000D02*
X159766000Y-116840000D01*
X154686000Y-116840000D02*
X155817370Y-116840000D01*
G04 #@! TO.N,/P21*
X154686000Y-109220000D02*
X159766000Y-109220000D01*
G04 #@! TO.N,Net-(D5-Pad2)*
X152781000Y-134112000D02*
X150286999Y-136606001D01*
X150876000Y-127880000D02*
X152781000Y-129785000D01*
X150286999Y-136606001D02*
X149987000Y-136906000D01*
X152781000Y-129785000D02*
X152781000Y-134112000D01*
G04 #@! TO.N,Net-(D5-Pad1)*
X151755527Y-131435527D02*
X152153990Y-131435527D01*
X150876000Y-129930000D02*
X150876000Y-130556000D01*
X150876000Y-130556000D02*
X151755527Y-131435527D01*
D28*
G04 #@! TO.N,/DC_5V*
X147188000Y-81890000D02*
X144526000Y-81890000D01*
X159766000Y-129540000D02*
X159766000Y-127928000D01*
X159766000Y-127928000D02*
X157949000Y-126111000D01*
X157949000Y-126111000D02*
X154051000Y-126111000D01*
X154051000Y-126111000D02*
X153035000Y-125095000D01*
X153035000Y-125095000D02*
X153035000Y-87737000D01*
X153035000Y-87737000D02*
X147188000Y-81890000D01*
X144526000Y-76962000D02*
X144526000Y-75590000D01*
X141605000Y-77724000D02*
X143764000Y-77724000D01*
X143764000Y-77724000D02*
X144526000Y-76962000D01*
X144526000Y-76962000D02*
X144526000Y-81890000D01*
G04 #@! TO.N,/USB_5V*
X152146000Y-142875000D02*
X153540999Y-141480001D01*
X153540999Y-141480001D02*
X153540999Y-132106243D01*
X153540999Y-132106243D02*
X153608012Y-132039230D01*
X153836001Y-130389999D02*
X154686000Y-129540000D01*
X153608012Y-130617988D02*
X153836001Y-130389999D01*
X153608012Y-132039230D02*
X153608012Y-130617988D01*
G04 #@! TO.N,/VIN*
X149606000Y-66040000D02*
X149606000Y-68072000D01*
X147788000Y-69890000D02*
X147788000Y-71628000D01*
X149606000Y-68072000D02*
X147788000Y-69890000D01*
X151257000Y-71628000D02*
X147788000Y-71628000D01*
X153416000Y-69469000D02*
X151257000Y-71628000D01*
X158877000Y-69469000D02*
X153416000Y-69469000D01*
X157607000Y-74930000D02*
X158496000Y-74930000D01*
X158496000Y-74930000D02*
X159766000Y-73660000D01*
X156591000Y-75946000D02*
X157607000Y-74930000D01*
X159766000Y-73660000D02*
X159766000Y-70358000D01*
X156591000Y-77978000D02*
X156591000Y-75946000D01*
X159766000Y-70358000D02*
X158877000Y-69469000D01*
G04 #@! TD*
D29*
G04 #@! TO.N,+5V*
G36*
X152019001Y-88157842D02*
X152019000Y-125045098D01*
X152014085Y-125095000D01*
X152019000Y-125144901D01*
X152033702Y-125294170D01*
X152091798Y-125485686D01*
X152186140Y-125662190D01*
X152313104Y-125816896D01*
X152351872Y-125848712D01*
X153297292Y-126794133D01*
X153329104Y-126832896D01*
X153483810Y-126959860D01*
X153660313Y-127054202D01*
X153851829Y-127112298D01*
X154051000Y-127131915D01*
X154100902Y-127127000D01*
X157528160Y-127127000D01*
X158561021Y-128159861D01*
X158464815Y-128238815D01*
X158385463Y-128335506D01*
X158326498Y-128445820D01*
X158302034Y-128526466D01*
X158226269Y-128442412D01*
X157992920Y-128268359D01*
X157730099Y-128143175D01*
X157582890Y-128098524D01*
X157353000Y-128219845D01*
X157353000Y-129413000D01*
X157373000Y-129413000D01*
X157373000Y-129667000D01*
X157353000Y-129667000D01*
X157353000Y-130860155D01*
X157582890Y-130981476D01*
X157730099Y-130936825D01*
X157992920Y-130811641D01*
X158226269Y-130637588D01*
X158302034Y-130553534D01*
X158326498Y-130634180D01*
X158385463Y-130744494D01*
X158464815Y-130841185D01*
X158561506Y-130920537D01*
X158671820Y-130979502D01*
X158791518Y-131015812D01*
X158916000Y-131028072D01*
X160616000Y-131028072D01*
X160740482Y-131015812D01*
X160860180Y-130979502D01*
X160961000Y-130925612D01*
X160961000Y-136562390D01*
X160683222Y-136284612D01*
X160284405Y-136018131D01*
X159841263Y-135834576D01*
X159370827Y-135741000D01*
X158891173Y-135741000D01*
X158420737Y-135834576D01*
X157977595Y-136018131D01*
X157578778Y-136284612D01*
X157239612Y-136623778D01*
X156973131Y-137022595D01*
X156789576Y-137465737D01*
X156696000Y-137936173D01*
X156696000Y-138415827D01*
X156789576Y-138886263D01*
X156973131Y-139329405D01*
X157239612Y-139728222D01*
X157578778Y-140067388D01*
X157977595Y-140333869D01*
X158420737Y-140517424D01*
X158891173Y-140611000D01*
X159370827Y-140611000D01*
X159841263Y-140517424D01*
X160284405Y-140333869D01*
X160683222Y-140067388D01*
X160961000Y-139789610D01*
X160961000Y-142840271D01*
X160934901Y-143106449D01*
X160867684Y-143329084D01*
X160758506Y-143534417D01*
X160611522Y-143714637D01*
X160432333Y-143862876D01*
X160227761Y-143973488D01*
X160005606Y-144042257D01*
X159741655Y-144070000D01*
X158611612Y-144070000D01*
X158665502Y-143969180D01*
X158701812Y-143849482D01*
X158714072Y-143725000D01*
X158714072Y-142025000D01*
X158701812Y-141900518D01*
X158665502Y-141780820D01*
X158606537Y-141670506D01*
X158527185Y-141573815D01*
X158430494Y-141494463D01*
X158320180Y-141435498D01*
X158200482Y-141399188D01*
X158076000Y-141386928D01*
X156376000Y-141386928D01*
X156251518Y-141399188D01*
X156131820Y-141435498D01*
X156021506Y-141494463D01*
X155924815Y-141573815D01*
X155845463Y-141670506D01*
X155786498Y-141780820D01*
X155765607Y-141849687D01*
X155741134Y-141819866D01*
X155515014Y-141634294D01*
X155257034Y-141496401D01*
X154977111Y-141411487D01*
X154758950Y-141390000D01*
X154613050Y-141390000D01*
X154556999Y-141395521D01*
X154556999Y-140750680D01*
X154645088Y-140787168D01*
X154960967Y-140850000D01*
X155283033Y-140850000D01*
X155598912Y-140787168D01*
X155896463Y-140663918D01*
X156164252Y-140484987D01*
X156391987Y-140257252D01*
X156570918Y-139989463D01*
X156694168Y-139691912D01*
X156757000Y-139376033D01*
X156757000Y-139053967D01*
X156694168Y-138738088D01*
X156570918Y-138440537D01*
X156391987Y-138172748D01*
X156164252Y-137945013D01*
X155896463Y-137766082D01*
X155598912Y-137642832D01*
X155283033Y-137580000D01*
X154960967Y-137580000D01*
X154645088Y-137642832D01*
X154556999Y-137679320D01*
X154556999Y-134250680D01*
X154645088Y-134287168D01*
X154960967Y-134350000D01*
X155283033Y-134350000D01*
X155598912Y-134287168D01*
X155896463Y-134163918D01*
X156164252Y-133984987D01*
X156391987Y-133757252D01*
X156570918Y-133489463D01*
X156694168Y-133191912D01*
X156757000Y-132876033D01*
X156757000Y-132553967D01*
X156694168Y-132238088D01*
X156570918Y-131940537D01*
X156391987Y-131672748D01*
X156164252Y-131445013D01*
X155896463Y-131266082D01*
X155598912Y-131142832D01*
X155283033Y-131080000D01*
X154960967Y-131080000D01*
X154645088Y-131142832D01*
X154624012Y-131151562D01*
X154624012Y-131038828D01*
X154637840Y-131025000D01*
X154758950Y-131025000D01*
X154977111Y-131003513D01*
X155257034Y-130918599D01*
X155515014Y-130780706D01*
X155741134Y-130595134D01*
X155926706Y-130369014D01*
X155961201Y-130304477D01*
X156030822Y-130421355D01*
X156225731Y-130637588D01*
X156459080Y-130811641D01*
X156721901Y-130936825D01*
X156869110Y-130981476D01*
X157099000Y-130860155D01*
X157099000Y-129667000D01*
X157079000Y-129667000D01*
X157079000Y-129413000D01*
X157099000Y-129413000D01*
X157099000Y-128219845D01*
X156869110Y-128098524D01*
X156721901Y-128143175D01*
X156459080Y-128268359D01*
X156225731Y-128442412D01*
X156030822Y-128658645D01*
X155961201Y-128775523D01*
X155926706Y-128710986D01*
X155741134Y-128484866D01*
X155515014Y-128299294D01*
X155257034Y-128161401D01*
X154977111Y-128076487D01*
X154758950Y-128055000D01*
X154613050Y-128055000D01*
X154394889Y-128076487D01*
X154114966Y-128161401D01*
X153856986Y-128299294D01*
X153630866Y-128484866D01*
X153445294Y-128710986D01*
X153307401Y-128968966D01*
X153245769Y-129172138D01*
X152214072Y-128140442D01*
X152214072Y-127554999D01*
X152197008Y-127381745D01*
X152146472Y-127215149D01*
X152064405Y-127061613D01*
X151953962Y-126927038D01*
X151819387Y-126816595D01*
X151665851Y-126734528D01*
X151499255Y-126683992D01*
X151326001Y-126666928D01*
X150425999Y-126666928D01*
X150252745Y-126683992D01*
X150086149Y-126734528D01*
X149932613Y-126816595D01*
X149798038Y-126927038D01*
X149733000Y-127006287D01*
X149733000Y-98910894D01*
X149737347Y-98906547D01*
X149766422Y-98882686D01*
X149861645Y-98766656D01*
X149932402Y-98634279D01*
X149975974Y-98490642D01*
X149977660Y-98473520D01*
X150053586Y-98359889D01*
X150124068Y-98189729D01*
X150160000Y-98009089D01*
X150160000Y-97824911D01*
X150124068Y-97644271D01*
X150053586Y-97474111D01*
X149951262Y-97320972D01*
X149821028Y-97190738D01*
X149667889Y-97088414D01*
X149497729Y-97017932D01*
X149317089Y-96982000D01*
X149225000Y-96982000D01*
X149225000Y-95414423D01*
X149228686Y-95377000D01*
X149222302Y-95312182D01*
X149213974Y-95227622D01*
X149170402Y-95083985D01*
X149125302Y-94999608D01*
X149099645Y-94951607D01*
X149028279Y-94864648D01*
X149004422Y-94835578D01*
X148975351Y-94811720D01*
X148467366Y-94303736D01*
X148480236Y-94261309D01*
X148507943Y-93980000D01*
X148480236Y-93698691D01*
X148398182Y-93428192D01*
X148264932Y-93178899D01*
X148085608Y-92960392D01*
X147972518Y-92867581D01*
X147990482Y-92865812D01*
X148110180Y-92829502D01*
X148220494Y-92770537D01*
X148317185Y-92691185D01*
X148396537Y-92594494D01*
X148455502Y-92484180D01*
X148491812Y-92364482D01*
X148504072Y-92240000D01*
X148504072Y-90640000D01*
X148491812Y-90515518D01*
X148455502Y-90395820D01*
X148396537Y-90285506D01*
X148317185Y-90188815D01*
X148220494Y-90109463D01*
X148110180Y-90050498D01*
X147990482Y-90014188D01*
X147866000Y-90001928D01*
X146841702Y-90001928D01*
X149126994Y-87716636D01*
X149269589Y-87745000D01*
X149542411Y-87745000D01*
X149809989Y-87691775D01*
X150062043Y-87587371D01*
X150288886Y-87435799D01*
X150481799Y-87242886D01*
X150633371Y-87016043D01*
X150704787Y-86843628D01*
X152019001Y-88157842D01*
X152019001Y-88157842D01*
G37*
X152019001Y-88157842D02*
X152019000Y-125045098D01*
X152014085Y-125095000D01*
X152019000Y-125144901D01*
X152033702Y-125294170D01*
X152091798Y-125485686D01*
X152186140Y-125662190D01*
X152313104Y-125816896D01*
X152351872Y-125848712D01*
X153297292Y-126794133D01*
X153329104Y-126832896D01*
X153483810Y-126959860D01*
X153660313Y-127054202D01*
X153851829Y-127112298D01*
X154051000Y-127131915D01*
X154100902Y-127127000D01*
X157528160Y-127127000D01*
X158561021Y-128159861D01*
X158464815Y-128238815D01*
X158385463Y-128335506D01*
X158326498Y-128445820D01*
X158302034Y-128526466D01*
X158226269Y-128442412D01*
X157992920Y-128268359D01*
X157730099Y-128143175D01*
X157582890Y-128098524D01*
X157353000Y-128219845D01*
X157353000Y-129413000D01*
X157373000Y-129413000D01*
X157373000Y-129667000D01*
X157353000Y-129667000D01*
X157353000Y-130860155D01*
X157582890Y-130981476D01*
X157730099Y-130936825D01*
X157992920Y-130811641D01*
X158226269Y-130637588D01*
X158302034Y-130553534D01*
X158326498Y-130634180D01*
X158385463Y-130744494D01*
X158464815Y-130841185D01*
X158561506Y-130920537D01*
X158671820Y-130979502D01*
X158791518Y-131015812D01*
X158916000Y-131028072D01*
X160616000Y-131028072D01*
X160740482Y-131015812D01*
X160860180Y-130979502D01*
X160961000Y-130925612D01*
X160961000Y-136562390D01*
X160683222Y-136284612D01*
X160284405Y-136018131D01*
X159841263Y-135834576D01*
X159370827Y-135741000D01*
X158891173Y-135741000D01*
X158420737Y-135834576D01*
X157977595Y-136018131D01*
X157578778Y-136284612D01*
X157239612Y-136623778D01*
X156973131Y-137022595D01*
X156789576Y-137465737D01*
X156696000Y-137936173D01*
X156696000Y-138415827D01*
X156789576Y-138886263D01*
X156973131Y-139329405D01*
X157239612Y-139728222D01*
X157578778Y-140067388D01*
X157977595Y-140333869D01*
X158420737Y-140517424D01*
X158891173Y-140611000D01*
X159370827Y-140611000D01*
X159841263Y-140517424D01*
X160284405Y-140333869D01*
X160683222Y-140067388D01*
X160961000Y-139789610D01*
X160961000Y-142840271D01*
X160934901Y-143106449D01*
X160867684Y-143329084D01*
X160758506Y-143534417D01*
X160611522Y-143714637D01*
X160432333Y-143862876D01*
X160227761Y-143973488D01*
X160005606Y-144042257D01*
X159741655Y-144070000D01*
X158611612Y-144070000D01*
X158665502Y-143969180D01*
X158701812Y-143849482D01*
X158714072Y-143725000D01*
X158714072Y-142025000D01*
X158701812Y-141900518D01*
X158665502Y-141780820D01*
X158606537Y-141670506D01*
X158527185Y-141573815D01*
X158430494Y-141494463D01*
X158320180Y-141435498D01*
X158200482Y-141399188D01*
X158076000Y-141386928D01*
X156376000Y-141386928D01*
X156251518Y-141399188D01*
X156131820Y-141435498D01*
X156021506Y-141494463D01*
X155924815Y-141573815D01*
X155845463Y-141670506D01*
X155786498Y-141780820D01*
X155765607Y-141849687D01*
X155741134Y-141819866D01*
X155515014Y-141634294D01*
X155257034Y-141496401D01*
X154977111Y-141411487D01*
X154758950Y-141390000D01*
X154613050Y-141390000D01*
X154556999Y-141395521D01*
X154556999Y-140750680D01*
X154645088Y-140787168D01*
X154960967Y-140850000D01*
X155283033Y-140850000D01*
X155598912Y-140787168D01*
X155896463Y-140663918D01*
X156164252Y-140484987D01*
X156391987Y-140257252D01*
X156570918Y-139989463D01*
X156694168Y-139691912D01*
X156757000Y-139376033D01*
X156757000Y-139053967D01*
X156694168Y-138738088D01*
X156570918Y-138440537D01*
X156391987Y-138172748D01*
X156164252Y-137945013D01*
X155896463Y-137766082D01*
X155598912Y-137642832D01*
X155283033Y-137580000D01*
X154960967Y-137580000D01*
X154645088Y-137642832D01*
X154556999Y-137679320D01*
X154556999Y-134250680D01*
X154645088Y-134287168D01*
X154960967Y-134350000D01*
X155283033Y-134350000D01*
X155598912Y-134287168D01*
X155896463Y-134163918D01*
X156164252Y-133984987D01*
X156391987Y-133757252D01*
X156570918Y-133489463D01*
X156694168Y-133191912D01*
X156757000Y-132876033D01*
X156757000Y-132553967D01*
X156694168Y-132238088D01*
X156570918Y-131940537D01*
X156391987Y-131672748D01*
X156164252Y-131445013D01*
X155896463Y-131266082D01*
X155598912Y-131142832D01*
X155283033Y-131080000D01*
X154960967Y-131080000D01*
X154645088Y-131142832D01*
X154624012Y-131151562D01*
X154624012Y-131038828D01*
X154637840Y-131025000D01*
X154758950Y-131025000D01*
X154977111Y-131003513D01*
X155257034Y-130918599D01*
X155515014Y-130780706D01*
X155741134Y-130595134D01*
X155926706Y-130369014D01*
X155961201Y-130304477D01*
X156030822Y-130421355D01*
X156225731Y-130637588D01*
X156459080Y-130811641D01*
X156721901Y-130936825D01*
X156869110Y-130981476D01*
X157099000Y-130860155D01*
X157099000Y-129667000D01*
X157079000Y-129667000D01*
X157079000Y-129413000D01*
X157099000Y-129413000D01*
X157099000Y-128219845D01*
X156869110Y-128098524D01*
X156721901Y-128143175D01*
X156459080Y-128268359D01*
X156225731Y-128442412D01*
X156030822Y-128658645D01*
X155961201Y-128775523D01*
X155926706Y-128710986D01*
X155741134Y-128484866D01*
X155515014Y-128299294D01*
X155257034Y-128161401D01*
X154977111Y-128076487D01*
X154758950Y-128055000D01*
X154613050Y-128055000D01*
X154394889Y-128076487D01*
X154114966Y-128161401D01*
X153856986Y-128299294D01*
X153630866Y-128484866D01*
X153445294Y-128710986D01*
X153307401Y-128968966D01*
X153245769Y-129172138D01*
X152214072Y-128140442D01*
X152214072Y-127554999D01*
X152197008Y-127381745D01*
X152146472Y-127215149D01*
X152064405Y-127061613D01*
X151953962Y-126927038D01*
X151819387Y-126816595D01*
X151665851Y-126734528D01*
X151499255Y-126683992D01*
X151326001Y-126666928D01*
X150425999Y-126666928D01*
X150252745Y-126683992D01*
X150086149Y-126734528D01*
X149932613Y-126816595D01*
X149798038Y-126927038D01*
X149733000Y-127006287D01*
X149733000Y-98910894D01*
X149737347Y-98906547D01*
X149766422Y-98882686D01*
X149861645Y-98766656D01*
X149932402Y-98634279D01*
X149975974Y-98490642D01*
X149977660Y-98473520D01*
X150053586Y-98359889D01*
X150124068Y-98189729D01*
X150160000Y-98009089D01*
X150160000Y-97824911D01*
X150124068Y-97644271D01*
X150053586Y-97474111D01*
X149951262Y-97320972D01*
X149821028Y-97190738D01*
X149667889Y-97088414D01*
X149497729Y-97017932D01*
X149317089Y-96982000D01*
X149225000Y-96982000D01*
X149225000Y-95414423D01*
X149228686Y-95377000D01*
X149222302Y-95312182D01*
X149213974Y-95227622D01*
X149170402Y-95083985D01*
X149125302Y-94999608D01*
X149099645Y-94951607D01*
X149028279Y-94864648D01*
X149004422Y-94835578D01*
X148975351Y-94811720D01*
X148467366Y-94303736D01*
X148480236Y-94261309D01*
X148507943Y-93980000D01*
X148480236Y-93698691D01*
X148398182Y-93428192D01*
X148264932Y-93178899D01*
X148085608Y-92960392D01*
X147972518Y-92867581D01*
X147990482Y-92865812D01*
X148110180Y-92829502D01*
X148220494Y-92770537D01*
X148317185Y-92691185D01*
X148396537Y-92594494D01*
X148455502Y-92484180D01*
X148491812Y-92364482D01*
X148504072Y-92240000D01*
X148504072Y-90640000D01*
X148491812Y-90515518D01*
X148455502Y-90395820D01*
X148396537Y-90285506D01*
X148317185Y-90188815D01*
X148220494Y-90109463D01*
X148110180Y-90050498D01*
X147990482Y-90014188D01*
X147866000Y-90001928D01*
X146841702Y-90001928D01*
X149126994Y-87716636D01*
X149269589Y-87745000D01*
X149542411Y-87745000D01*
X149809989Y-87691775D01*
X150062043Y-87587371D01*
X150288886Y-87435799D01*
X150481799Y-87242886D01*
X150633371Y-87016043D01*
X150704787Y-86843628D01*
X152019001Y-88157842D01*
G36*
X147193000Y-131953000D02*
X147213000Y-131953000D01*
X147213000Y-132207000D01*
X147193000Y-132207000D01*
X147193000Y-133400155D01*
X147422890Y-133521476D01*
X147570099Y-133476825D01*
X147786312Y-133373841D01*
X147826355Y-133448758D01*
X147859761Y-133489463D01*
X147921578Y-133564788D01*
X147950654Y-133588650D01*
X148196223Y-133834219D01*
X148196223Y-134007641D01*
X148013054Y-134190810D01*
X147983984Y-134214667D01*
X147960127Y-134243737D01*
X147960126Y-134243738D01*
X147888760Y-134330697D01*
X147879831Y-134347401D01*
X147855730Y-134289215D01*
X147786237Y-134185211D01*
X147697789Y-134096763D01*
X147593785Y-134027270D01*
X147478223Y-133979403D01*
X147355542Y-133955000D01*
X146843750Y-133955000D01*
X146685000Y-134113750D01*
X146685000Y-135098000D01*
X146705000Y-135098000D01*
X146705000Y-135352000D01*
X146685000Y-135352000D01*
X146685000Y-135372000D01*
X146431000Y-135372000D01*
X146431000Y-135352000D01*
X145346750Y-135352000D01*
X145188000Y-135510750D01*
X145188000Y-135922542D01*
X145212403Y-136045223D01*
X145260270Y-136160785D01*
X145329763Y-136264789D01*
X145418211Y-136353237D01*
X145522215Y-136422730D01*
X145637777Y-136470597D01*
X145760458Y-136495000D01*
X146272250Y-136495000D01*
X146430998Y-136336252D01*
X146430998Y-136463349D01*
X146045649Y-136848699D01*
X146016579Y-136872556D01*
X145992722Y-136901626D01*
X145992721Y-136901627D01*
X145921355Y-136988586D01*
X145850599Y-137120963D01*
X145807027Y-137264600D01*
X145792314Y-137413978D01*
X145796001Y-137451411D01*
X145796001Y-137824587D01*
X145698518Y-137834188D01*
X145578820Y-137870498D01*
X145468506Y-137929463D01*
X145371815Y-138008815D01*
X145292463Y-138105506D01*
X145233498Y-138215820D01*
X145197188Y-138335518D01*
X145184928Y-138460000D01*
X145184928Y-139730000D01*
X145197188Y-139854482D01*
X145214019Y-139909965D01*
X145150932Y-140062271D01*
X145127550Y-140179819D01*
X144013654Y-141293716D01*
X143984578Y-141317578D01*
X143933430Y-141379903D01*
X143889355Y-141433608D01*
X143868981Y-141471726D01*
X143818598Y-141565986D01*
X143817401Y-141569931D01*
X143696986Y-141634294D01*
X143470866Y-141819866D01*
X143285294Y-142045986D01*
X143147401Y-142303966D01*
X143062487Y-142583889D01*
X143033815Y-142875000D01*
X143062487Y-143166111D01*
X143147401Y-143446034D01*
X143285294Y-143704014D01*
X143470866Y-143930134D01*
X143641293Y-144070000D01*
X142020729Y-144070000D01*
X141754551Y-144043901D01*
X141531916Y-143976684D01*
X141326583Y-143867506D01*
X141146363Y-143720522D01*
X140998124Y-143541333D01*
X140887512Y-143336761D01*
X140818743Y-143114606D01*
X140791000Y-142850655D01*
X140791000Y-139789610D01*
X141068778Y-140067388D01*
X141467595Y-140333869D01*
X141910737Y-140517424D01*
X142381173Y-140611000D01*
X142860827Y-140611000D01*
X143331263Y-140517424D01*
X143774405Y-140333869D01*
X144173222Y-140067388D01*
X144512388Y-139728222D01*
X144778869Y-139329405D01*
X144962424Y-138886263D01*
X145056000Y-138415827D01*
X145056000Y-137936173D01*
X144962424Y-137465737D01*
X144778869Y-137022595D01*
X144512388Y-136623778D01*
X144173222Y-136284612D01*
X143774405Y-136018131D01*
X143331263Y-135834576D01*
X142860827Y-135741000D01*
X142381173Y-135741000D01*
X141910737Y-135834576D01*
X141467595Y-136018131D01*
X141068778Y-136284612D01*
X140791000Y-136562390D01*
X140791000Y-132964707D01*
X140930866Y-133135134D01*
X141156986Y-133320706D01*
X141414966Y-133458599D01*
X141694889Y-133543513D01*
X141913050Y-133565000D01*
X142058950Y-133565000D01*
X142277111Y-133543513D01*
X142388185Y-133509819D01*
X142356932Y-133585271D01*
X142321000Y-133765911D01*
X142321000Y-133950089D01*
X142356932Y-134130729D01*
X142427414Y-134300889D01*
X142529738Y-134454028D01*
X142659972Y-134584262D01*
X142813111Y-134686586D01*
X142983271Y-134757068D01*
X143163911Y-134793000D01*
X143348089Y-134793000D01*
X143528729Y-134757068D01*
X143698889Y-134686586D01*
X143852028Y-134584262D01*
X143908832Y-134527458D01*
X145188000Y-134527458D01*
X145188000Y-134939250D01*
X145346750Y-135098000D01*
X146431000Y-135098000D01*
X146431000Y-134113750D01*
X146272250Y-133955000D01*
X145760458Y-133955000D01*
X145637777Y-133979403D01*
X145522215Y-134027270D01*
X145418211Y-134096763D01*
X145329763Y-134185211D01*
X145260270Y-134289215D01*
X145212403Y-134404777D01*
X145188000Y-134527458D01*
X143908832Y-134527458D01*
X143982262Y-134454028D01*
X144084586Y-134300889D01*
X144155068Y-134130729D01*
X144191000Y-133950089D01*
X144191000Y-133765911D01*
X144155068Y-133585271D01*
X144123815Y-133509819D01*
X144234889Y-133543513D01*
X144453050Y-133565000D01*
X144598950Y-133565000D01*
X144817111Y-133543513D01*
X145097034Y-133458599D01*
X145355014Y-133320706D01*
X145581134Y-133135134D01*
X145766706Y-132909014D01*
X145801201Y-132844477D01*
X145870822Y-132961355D01*
X146065731Y-133177588D01*
X146299080Y-133351641D01*
X146561901Y-133476825D01*
X146709110Y-133521476D01*
X146939000Y-133400155D01*
X146939000Y-132207000D01*
X146919000Y-132207000D01*
X146919000Y-131953000D01*
X146939000Y-131953000D01*
X146939000Y-131933000D01*
X147193000Y-131933000D01*
X147193000Y-131953000D01*
X147193000Y-131953000D01*
G37*
X147193000Y-131953000D02*
X147213000Y-131953000D01*
X147213000Y-132207000D01*
X147193000Y-132207000D01*
X147193000Y-133400155D01*
X147422890Y-133521476D01*
X147570099Y-133476825D01*
X147786312Y-133373841D01*
X147826355Y-133448758D01*
X147859761Y-133489463D01*
X147921578Y-133564788D01*
X147950654Y-133588650D01*
X148196223Y-133834219D01*
X148196223Y-134007641D01*
X148013054Y-134190810D01*
X147983984Y-134214667D01*
X147960127Y-134243737D01*
X147960126Y-134243738D01*
X147888760Y-134330697D01*
X147879831Y-134347401D01*
X147855730Y-134289215D01*
X147786237Y-134185211D01*
X147697789Y-134096763D01*
X147593785Y-134027270D01*
X147478223Y-133979403D01*
X147355542Y-133955000D01*
X146843750Y-133955000D01*
X146685000Y-134113750D01*
X146685000Y-135098000D01*
X146705000Y-135098000D01*
X146705000Y-135352000D01*
X146685000Y-135352000D01*
X146685000Y-135372000D01*
X146431000Y-135372000D01*
X146431000Y-135352000D01*
X145346750Y-135352000D01*
X145188000Y-135510750D01*
X145188000Y-135922542D01*
X145212403Y-136045223D01*
X145260270Y-136160785D01*
X145329763Y-136264789D01*
X145418211Y-136353237D01*
X145522215Y-136422730D01*
X145637777Y-136470597D01*
X145760458Y-136495000D01*
X146272250Y-136495000D01*
X146430998Y-136336252D01*
X146430998Y-136463349D01*
X146045649Y-136848699D01*
X146016579Y-136872556D01*
X145992722Y-136901626D01*
X145992721Y-136901627D01*
X145921355Y-136988586D01*
X145850599Y-137120963D01*
X145807027Y-137264600D01*
X145792314Y-137413978D01*
X145796001Y-137451411D01*
X145796001Y-137824587D01*
X145698518Y-137834188D01*
X145578820Y-137870498D01*
X145468506Y-137929463D01*
X145371815Y-138008815D01*
X145292463Y-138105506D01*
X145233498Y-138215820D01*
X145197188Y-138335518D01*
X145184928Y-138460000D01*
X145184928Y-139730000D01*
X145197188Y-139854482D01*
X145214019Y-139909965D01*
X145150932Y-140062271D01*
X145127550Y-140179819D01*
X144013654Y-141293716D01*
X143984578Y-141317578D01*
X143933430Y-141379903D01*
X143889355Y-141433608D01*
X143868981Y-141471726D01*
X143818598Y-141565986D01*
X143817401Y-141569931D01*
X143696986Y-141634294D01*
X143470866Y-141819866D01*
X143285294Y-142045986D01*
X143147401Y-142303966D01*
X143062487Y-142583889D01*
X143033815Y-142875000D01*
X143062487Y-143166111D01*
X143147401Y-143446034D01*
X143285294Y-143704014D01*
X143470866Y-143930134D01*
X143641293Y-144070000D01*
X142020729Y-144070000D01*
X141754551Y-144043901D01*
X141531916Y-143976684D01*
X141326583Y-143867506D01*
X141146363Y-143720522D01*
X140998124Y-143541333D01*
X140887512Y-143336761D01*
X140818743Y-143114606D01*
X140791000Y-142850655D01*
X140791000Y-139789610D01*
X141068778Y-140067388D01*
X141467595Y-140333869D01*
X141910737Y-140517424D01*
X142381173Y-140611000D01*
X142860827Y-140611000D01*
X143331263Y-140517424D01*
X143774405Y-140333869D01*
X144173222Y-140067388D01*
X144512388Y-139728222D01*
X144778869Y-139329405D01*
X144962424Y-138886263D01*
X145056000Y-138415827D01*
X145056000Y-137936173D01*
X144962424Y-137465737D01*
X144778869Y-137022595D01*
X144512388Y-136623778D01*
X144173222Y-136284612D01*
X143774405Y-136018131D01*
X143331263Y-135834576D01*
X142860827Y-135741000D01*
X142381173Y-135741000D01*
X141910737Y-135834576D01*
X141467595Y-136018131D01*
X141068778Y-136284612D01*
X140791000Y-136562390D01*
X140791000Y-132964707D01*
X140930866Y-133135134D01*
X141156986Y-133320706D01*
X141414966Y-133458599D01*
X141694889Y-133543513D01*
X141913050Y-133565000D01*
X142058950Y-133565000D01*
X142277111Y-133543513D01*
X142388185Y-133509819D01*
X142356932Y-133585271D01*
X142321000Y-133765911D01*
X142321000Y-133950089D01*
X142356932Y-134130729D01*
X142427414Y-134300889D01*
X142529738Y-134454028D01*
X142659972Y-134584262D01*
X142813111Y-134686586D01*
X142983271Y-134757068D01*
X143163911Y-134793000D01*
X143348089Y-134793000D01*
X143528729Y-134757068D01*
X143698889Y-134686586D01*
X143852028Y-134584262D01*
X143908832Y-134527458D01*
X145188000Y-134527458D01*
X145188000Y-134939250D01*
X145346750Y-135098000D01*
X146431000Y-135098000D01*
X146431000Y-134113750D01*
X146272250Y-133955000D01*
X145760458Y-133955000D01*
X145637777Y-133979403D01*
X145522215Y-134027270D01*
X145418211Y-134096763D01*
X145329763Y-134185211D01*
X145260270Y-134289215D01*
X145212403Y-134404777D01*
X145188000Y-134527458D01*
X143908832Y-134527458D01*
X143982262Y-134454028D01*
X144084586Y-134300889D01*
X144155068Y-134130729D01*
X144191000Y-133950089D01*
X144191000Y-133765911D01*
X144155068Y-133585271D01*
X144123815Y-133509819D01*
X144234889Y-133543513D01*
X144453050Y-133565000D01*
X144598950Y-133565000D01*
X144817111Y-133543513D01*
X145097034Y-133458599D01*
X145355014Y-133320706D01*
X145581134Y-133135134D01*
X145766706Y-132909014D01*
X145801201Y-132844477D01*
X145870822Y-132961355D01*
X146065731Y-133177588D01*
X146299080Y-133351641D01*
X146561901Y-133476825D01*
X146709110Y-133521476D01*
X146939000Y-133400155D01*
X146939000Y-132207000D01*
X146919000Y-132207000D01*
X146919000Y-131953000D01*
X146939000Y-131953000D01*
X146939000Y-131933000D01*
X147193000Y-131933000D01*
X147193000Y-131953000D01*
G36*
X140881480Y-78605612D02*
X141067376Y-78729824D01*
X141273933Y-78815383D01*
X141493212Y-78859000D01*
X141716788Y-78859000D01*
X141936067Y-78815383D01*
X142118057Y-78740000D01*
X143510000Y-78740000D01*
X143510001Y-80251928D01*
X142626000Y-80251928D01*
X142501518Y-80264188D01*
X142381820Y-80300498D01*
X142271506Y-80359463D01*
X142174815Y-80438815D01*
X142095463Y-80535506D01*
X142036498Y-80645820D01*
X142000188Y-80765518D01*
X141987928Y-80890000D01*
X141987928Y-82890000D01*
X142000188Y-83014482D01*
X142036498Y-83134180D01*
X142095463Y-83244494D01*
X142174815Y-83341185D01*
X142271506Y-83420537D01*
X142381820Y-83479502D01*
X142501518Y-83515812D01*
X142626000Y-83528072D01*
X146426000Y-83528072D01*
X146550482Y-83515812D01*
X146670180Y-83479502D01*
X146780494Y-83420537D01*
X146877185Y-83341185D01*
X146956537Y-83244494D01*
X147008479Y-83147319D01*
X148922372Y-85061212D01*
X148749957Y-85132629D01*
X148523114Y-85284201D01*
X148330201Y-85477114D01*
X148178629Y-85703957D01*
X148074225Y-85956011D01*
X148021000Y-86223589D01*
X148021000Y-86496411D01*
X148049364Y-86639006D01*
X145580370Y-89108000D01*
X145576907Y-89108000D01*
X145396267Y-89143932D01*
X145226107Y-89214414D01*
X145072968Y-89316738D01*
X144942734Y-89446972D01*
X144840410Y-89600111D01*
X144769928Y-89770271D01*
X144733996Y-89950911D01*
X144733996Y-90135089D01*
X144769928Y-90315729D01*
X144840410Y-90485889D01*
X144942734Y-90639028D01*
X144981706Y-90678000D01*
X143474072Y-90678000D01*
X143474072Y-90590000D01*
X143461812Y-90465518D01*
X143425502Y-90345820D01*
X143366537Y-90235506D01*
X143287185Y-90138815D01*
X143190494Y-90059463D01*
X143080180Y-90000498D01*
X142960482Y-89964188D01*
X142836000Y-89951928D01*
X141136000Y-89951928D01*
X141011518Y-89964188D01*
X140891820Y-90000498D01*
X140791000Y-90054388D01*
X140791000Y-86223589D01*
X143141000Y-86223589D01*
X143141000Y-86496411D01*
X143194225Y-86763989D01*
X143298629Y-87016043D01*
X143450201Y-87242886D01*
X143643114Y-87435799D01*
X143869957Y-87587371D01*
X144122011Y-87691775D01*
X144389589Y-87745000D01*
X144662411Y-87745000D01*
X144929989Y-87691775D01*
X145182043Y-87587371D01*
X145408886Y-87435799D01*
X145601799Y-87242886D01*
X145753371Y-87016043D01*
X145857775Y-86763989D01*
X145911000Y-86496411D01*
X145911000Y-86223589D01*
X145857775Y-85956011D01*
X145753371Y-85703957D01*
X145601799Y-85477114D01*
X145408886Y-85284201D01*
X145182043Y-85132629D01*
X144929989Y-85028225D01*
X144662411Y-84975000D01*
X144389589Y-84975000D01*
X144122011Y-85028225D01*
X143869957Y-85132629D01*
X143643114Y-85284201D01*
X143450201Y-85477114D01*
X143298629Y-85703957D01*
X143194225Y-85956011D01*
X143141000Y-86223589D01*
X140791000Y-86223589D01*
X140791000Y-78515132D01*
X140881480Y-78605612D01*
X140881480Y-78605612D01*
G37*
X140881480Y-78605612D02*
X141067376Y-78729824D01*
X141273933Y-78815383D01*
X141493212Y-78859000D01*
X141716788Y-78859000D01*
X141936067Y-78815383D01*
X142118057Y-78740000D01*
X143510000Y-78740000D01*
X143510001Y-80251928D01*
X142626000Y-80251928D01*
X142501518Y-80264188D01*
X142381820Y-80300498D01*
X142271506Y-80359463D01*
X142174815Y-80438815D01*
X142095463Y-80535506D01*
X142036498Y-80645820D01*
X142000188Y-80765518D01*
X141987928Y-80890000D01*
X141987928Y-82890000D01*
X142000188Y-83014482D01*
X142036498Y-83134180D01*
X142095463Y-83244494D01*
X142174815Y-83341185D01*
X142271506Y-83420537D01*
X142381820Y-83479502D01*
X142501518Y-83515812D01*
X142626000Y-83528072D01*
X146426000Y-83528072D01*
X146550482Y-83515812D01*
X146670180Y-83479502D01*
X146780494Y-83420537D01*
X146877185Y-83341185D01*
X146956537Y-83244494D01*
X147008479Y-83147319D01*
X148922372Y-85061212D01*
X148749957Y-85132629D01*
X148523114Y-85284201D01*
X148330201Y-85477114D01*
X148178629Y-85703957D01*
X148074225Y-85956011D01*
X148021000Y-86223589D01*
X148021000Y-86496411D01*
X148049364Y-86639006D01*
X145580370Y-89108000D01*
X145576907Y-89108000D01*
X145396267Y-89143932D01*
X145226107Y-89214414D01*
X145072968Y-89316738D01*
X144942734Y-89446972D01*
X144840410Y-89600111D01*
X144769928Y-89770271D01*
X144733996Y-89950911D01*
X144733996Y-90135089D01*
X144769928Y-90315729D01*
X144840410Y-90485889D01*
X144942734Y-90639028D01*
X144981706Y-90678000D01*
X143474072Y-90678000D01*
X143474072Y-90590000D01*
X143461812Y-90465518D01*
X143425502Y-90345820D01*
X143366537Y-90235506D01*
X143287185Y-90138815D01*
X143190494Y-90059463D01*
X143080180Y-90000498D01*
X142960482Y-89964188D01*
X142836000Y-89951928D01*
X141136000Y-89951928D01*
X141011518Y-89964188D01*
X140891820Y-90000498D01*
X140791000Y-90054388D01*
X140791000Y-86223589D01*
X143141000Y-86223589D01*
X143141000Y-86496411D01*
X143194225Y-86763989D01*
X143298629Y-87016043D01*
X143450201Y-87242886D01*
X143643114Y-87435799D01*
X143869957Y-87587371D01*
X144122011Y-87691775D01*
X144389589Y-87745000D01*
X144662411Y-87745000D01*
X144929989Y-87691775D01*
X145182043Y-87587371D01*
X145408886Y-87435799D01*
X145601799Y-87242886D01*
X145753371Y-87016043D01*
X145857775Y-86763989D01*
X145911000Y-86496411D01*
X145911000Y-86223589D01*
X145857775Y-85956011D01*
X145753371Y-85703957D01*
X145601799Y-85477114D01*
X145408886Y-85284201D01*
X145182043Y-85132629D01*
X144929989Y-85028225D01*
X144662411Y-84975000D01*
X144389589Y-84975000D01*
X144122011Y-85028225D01*
X143869957Y-85132629D01*
X143643114Y-85284201D01*
X143450201Y-85477114D01*
X143298629Y-85703957D01*
X143194225Y-85956011D01*
X143141000Y-86223589D01*
X140791000Y-86223589D01*
X140791000Y-78515132D01*
X140881480Y-78605612D01*
G36*
X150950822Y-80906645D02*
X150801843Y-81156748D01*
X150704519Y-81431109D01*
X150825186Y-81661000D01*
X152019000Y-81661000D01*
X152019000Y-81641000D01*
X152273000Y-81641000D01*
X152273000Y-81661000D01*
X152293000Y-81661000D01*
X152293000Y-81915000D01*
X152273000Y-81915000D01*
X152273000Y-83108155D01*
X152502890Y-83229476D01*
X152650099Y-83184825D01*
X152912920Y-83059641D01*
X153146269Y-82885588D01*
X153341178Y-82669355D01*
X153410799Y-82552477D01*
X153445294Y-82617014D01*
X153630866Y-82843134D01*
X153856986Y-83028706D01*
X154114966Y-83166599D01*
X154394889Y-83251513D01*
X154613050Y-83273000D01*
X154758950Y-83273000D01*
X154977111Y-83251513D01*
X155257034Y-83166599D01*
X155515014Y-83028706D01*
X155741134Y-82843134D01*
X155926706Y-82617014D01*
X155956000Y-82562209D01*
X155985294Y-82617014D01*
X156170866Y-82843134D01*
X156396986Y-83028706D01*
X156654966Y-83166599D01*
X156934889Y-83251513D01*
X157153050Y-83273000D01*
X157298950Y-83273000D01*
X157517111Y-83251513D01*
X157797034Y-83166599D01*
X158055014Y-83028706D01*
X158281134Y-82843134D01*
X158305607Y-82813313D01*
X158326498Y-82882180D01*
X158385463Y-82992494D01*
X158464815Y-83089185D01*
X158561506Y-83168537D01*
X158671820Y-83227502D01*
X158791518Y-83263812D01*
X158916000Y-83276072D01*
X160616000Y-83276072D01*
X160740482Y-83263812D01*
X160860180Y-83227502D01*
X160961001Y-83173611D01*
X160961001Y-90555294D01*
X160821134Y-90384866D01*
X160595014Y-90199294D01*
X160337034Y-90061401D01*
X160057111Y-89976487D01*
X159838950Y-89955000D01*
X159693050Y-89955000D01*
X159474889Y-89976487D01*
X159194966Y-90061401D01*
X158936986Y-90199294D01*
X158710866Y-90384866D01*
X158525294Y-90610986D01*
X158489474Y-90678000D01*
X155905832Y-90678000D01*
X155884932Y-90638899D01*
X155705608Y-90420392D01*
X155487101Y-90241068D01*
X155237808Y-90107818D01*
X154967309Y-90025764D01*
X154756492Y-90005000D01*
X154615508Y-90005000D01*
X154404691Y-90025764D01*
X154134192Y-90107818D01*
X154051000Y-90152285D01*
X154051000Y-87786902D01*
X154055915Y-87737000D01*
X154036298Y-87537829D01*
X153978202Y-87346313D01*
X153950775Y-87295000D01*
X153883860Y-87169810D01*
X153756896Y-87015104D01*
X153718133Y-86983292D01*
X152577841Y-85843000D01*
X154954850Y-85843000D01*
X154965816Y-85852000D01*
X154878038Y-85924038D01*
X154767595Y-86058613D01*
X154685528Y-86212149D01*
X154634992Y-86378745D01*
X154617928Y-86551999D01*
X154617928Y-87202001D01*
X154634992Y-87375255D01*
X154685528Y-87541851D01*
X154767595Y-87695387D01*
X154878038Y-87829962D01*
X155012613Y-87940405D01*
X155166149Y-88022472D01*
X155332745Y-88073008D01*
X155505999Y-88090072D01*
X156406001Y-88090072D01*
X156579255Y-88073008D01*
X156745851Y-88022472D01*
X156783864Y-88002154D01*
X156883972Y-88102262D01*
X157037111Y-88204586D01*
X157207271Y-88275068D01*
X157387911Y-88311000D01*
X157572089Y-88311000D01*
X157752729Y-88275068D01*
X157922889Y-88204586D01*
X158022542Y-88138000D01*
X158467577Y-88138000D01*
X158505000Y-88141686D01*
X158542423Y-88138000D01*
X158542426Y-88138000D01*
X158654378Y-88126974D01*
X158776027Y-88090072D01*
X159454001Y-88090072D01*
X159627255Y-88073008D01*
X159793851Y-88022472D01*
X159947387Y-87940405D01*
X160081962Y-87829962D01*
X160192405Y-87695387D01*
X160274472Y-87541851D01*
X160325008Y-87375255D01*
X160342072Y-87202001D01*
X160342072Y-86551999D01*
X160325008Y-86378745D01*
X160274472Y-86212149D01*
X160192405Y-86058613D01*
X160081962Y-85924038D01*
X160074657Y-85918043D01*
X160108789Y-85895237D01*
X160197237Y-85806789D01*
X160266730Y-85702785D01*
X160314597Y-85587223D01*
X160339000Y-85464542D01*
X160339000Y-85112750D01*
X160180250Y-84954000D01*
X159131000Y-84954000D01*
X159131000Y-84974000D01*
X158877000Y-84974000D01*
X158877000Y-84954000D01*
X157827750Y-84954000D01*
X157669000Y-85112750D01*
X157669000Y-85444277D01*
X157572089Y-85425000D01*
X157387911Y-85425000D01*
X157237686Y-85454882D01*
X157277008Y-85325255D01*
X157294072Y-85152001D01*
X157294072Y-84501999D01*
X157277008Y-84328745D01*
X157234757Y-84189458D01*
X157669000Y-84189458D01*
X157669000Y-84541250D01*
X157827750Y-84700000D01*
X158877000Y-84700000D01*
X158877000Y-83775750D01*
X159131000Y-83775750D01*
X159131000Y-84700000D01*
X160180250Y-84700000D01*
X160339000Y-84541250D01*
X160339000Y-84189458D01*
X160314597Y-84066777D01*
X160266730Y-83951215D01*
X160197237Y-83847211D01*
X160108789Y-83758763D01*
X160004785Y-83689270D01*
X159889223Y-83641403D01*
X159766542Y-83617000D01*
X159289750Y-83617000D01*
X159131000Y-83775750D01*
X158877000Y-83775750D01*
X158718250Y-83617000D01*
X158241458Y-83617000D01*
X158118777Y-83641403D01*
X158003215Y-83689270D01*
X157899211Y-83758763D01*
X157810763Y-83847211D01*
X157741270Y-83951215D01*
X157693403Y-84066777D01*
X157669000Y-84189458D01*
X157234757Y-84189458D01*
X157226472Y-84162149D01*
X157144405Y-84008613D01*
X157033962Y-83874038D01*
X156899387Y-83763595D01*
X156745851Y-83681528D01*
X156579255Y-83630992D01*
X156406001Y-83613928D01*
X155505999Y-83613928D01*
X155332745Y-83630992D01*
X155166149Y-83681528D01*
X155012613Y-83763595D01*
X154954850Y-83811000D01*
X152049841Y-83811000D01*
X150383732Y-82144891D01*
X150704519Y-82144891D01*
X150801843Y-82419252D01*
X150950822Y-82669355D01*
X151145731Y-82885588D01*
X151379080Y-83059641D01*
X151641901Y-83184825D01*
X151789110Y-83229476D01*
X152019000Y-83108155D01*
X152019000Y-81915000D01*
X150825186Y-81915000D01*
X150704519Y-82144891D01*
X150383732Y-82144891D01*
X150114000Y-81875160D01*
X150114000Y-80862712D01*
X150256212Y-80891000D01*
X150479788Y-80891000D01*
X150699067Y-80847383D01*
X150881057Y-80772000D01*
X151072189Y-80772000D01*
X150950822Y-80906645D01*
X150950822Y-80906645D01*
G37*
X150950822Y-80906645D02*
X150801843Y-81156748D01*
X150704519Y-81431109D01*
X150825186Y-81661000D01*
X152019000Y-81661000D01*
X152019000Y-81641000D01*
X152273000Y-81641000D01*
X152273000Y-81661000D01*
X152293000Y-81661000D01*
X152293000Y-81915000D01*
X152273000Y-81915000D01*
X152273000Y-83108155D01*
X152502890Y-83229476D01*
X152650099Y-83184825D01*
X152912920Y-83059641D01*
X153146269Y-82885588D01*
X153341178Y-82669355D01*
X153410799Y-82552477D01*
X153445294Y-82617014D01*
X153630866Y-82843134D01*
X153856986Y-83028706D01*
X154114966Y-83166599D01*
X154394889Y-83251513D01*
X154613050Y-83273000D01*
X154758950Y-83273000D01*
X154977111Y-83251513D01*
X155257034Y-83166599D01*
X155515014Y-83028706D01*
X155741134Y-82843134D01*
X155926706Y-82617014D01*
X155956000Y-82562209D01*
X155985294Y-82617014D01*
X156170866Y-82843134D01*
X156396986Y-83028706D01*
X156654966Y-83166599D01*
X156934889Y-83251513D01*
X157153050Y-83273000D01*
X157298950Y-83273000D01*
X157517111Y-83251513D01*
X157797034Y-83166599D01*
X158055014Y-83028706D01*
X158281134Y-82843134D01*
X158305607Y-82813313D01*
X158326498Y-82882180D01*
X158385463Y-82992494D01*
X158464815Y-83089185D01*
X158561506Y-83168537D01*
X158671820Y-83227502D01*
X158791518Y-83263812D01*
X158916000Y-83276072D01*
X160616000Y-83276072D01*
X160740482Y-83263812D01*
X160860180Y-83227502D01*
X160961001Y-83173611D01*
X160961001Y-90555294D01*
X160821134Y-90384866D01*
X160595014Y-90199294D01*
X160337034Y-90061401D01*
X160057111Y-89976487D01*
X159838950Y-89955000D01*
X159693050Y-89955000D01*
X159474889Y-89976487D01*
X159194966Y-90061401D01*
X158936986Y-90199294D01*
X158710866Y-90384866D01*
X158525294Y-90610986D01*
X158489474Y-90678000D01*
X155905832Y-90678000D01*
X155884932Y-90638899D01*
X155705608Y-90420392D01*
X155487101Y-90241068D01*
X155237808Y-90107818D01*
X154967309Y-90025764D01*
X154756492Y-90005000D01*
X154615508Y-90005000D01*
X154404691Y-90025764D01*
X154134192Y-90107818D01*
X154051000Y-90152285D01*
X154051000Y-87786902D01*
X154055915Y-87737000D01*
X154036298Y-87537829D01*
X153978202Y-87346313D01*
X153950775Y-87295000D01*
X153883860Y-87169810D01*
X153756896Y-87015104D01*
X153718133Y-86983292D01*
X152577841Y-85843000D01*
X154954850Y-85843000D01*
X154965816Y-85852000D01*
X154878038Y-85924038D01*
X154767595Y-86058613D01*
X154685528Y-86212149D01*
X154634992Y-86378745D01*
X154617928Y-86551999D01*
X154617928Y-87202001D01*
X154634992Y-87375255D01*
X154685528Y-87541851D01*
X154767595Y-87695387D01*
X154878038Y-87829962D01*
X155012613Y-87940405D01*
X155166149Y-88022472D01*
X155332745Y-88073008D01*
X155505999Y-88090072D01*
X156406001Y-88090072D01*
X156579255Y-88073008D01*
X156745851Y-88022472D01*
X156783864Y-88002154D01*
X156883972Y-88102262D01*
X157037111Y-88204586D01*
X157207271Y-88275068D01*
X157387911Y-88311000D01*
X157572089Y-88311000D01*
X157752729Y-88275068D01*
X157922889Y-88204586D01*
X158022542Y-88138000D01*
X158467577Y-88138000D01*
X158505000Y-88141686D01*
X158542423Y-88138000D01*
X158542426Y-88138000D01*
X158654378Y-88126974D01*
X158776027Y-88090072D01*
X159454001Y-88090072D01*
X159627255Y-88073008D01*
X159793851Y-88022472D01*
X159947387Y-87940405D01*
X160081962Y-87829962D01*
X160192405Y-87695387D01*
X160274472Y-87541851D01*
X160325008Y-87375255D01*
X160342072Y-87202001D01*
X160342072Y-86551999D01*
X160325008Y-86378745D01*
X160274472Y-86212149D01*
X160192405Y-86058613D01*
X160081962Y-85924038D01*
X160074657Y-85918043D01*
X160108789Y-85895237D01*
X160197237Y-85806789D01*
X160266730Y-85702785D01*
X160314597Y-85587223D01*
X160339000Y-85464542D01*
X160339000Y-85112750D01*
X160180250Y-84954000D01*
X159131000Y-84954000D01*
X159131000Y-84974000D01*
X158877000Y-84974000D01*
X158877000Y-84954000D01*
X157827750Y-84954000D01*
X157669000Y-85112750D01*
X157669000Y-85444277D01*
X157572089Y-85425000D01*
X157387911Y-85425000D01*
X157237686Y-85454882D01*
X157277008Y-85325255D01*
X157294072Y-85152001D01*
X157294072Y-84501999D01*
X157277008Y-84328745D01*
X157234757Y-84189458D01*
X157669000Y-84189458D01*
X157669000Y-84541250D01*
X157827750Y-84700000D01*
X158877000Y-84700000D01*
X158877000Y-83775750D01*
X159131000Y-83775750D01*
X159131000Y-84700000D01*
X160180250Y-84700000D01*
X160339000Y-84541250D01*
X160339000Y-84189458D01*
X160314597Y-84066777D01*
X160266730Y-83951215D01*
X160197237Y-83847211D01*
X160108789Y-83758763D01*
X160004785Y-83689270D01*
X159889223Y-83641403D01*
X159766542Y-83617000D01*
X159289750Y-83617000D01*
X159131000Y-83775750D01*
X158877000Y-83775750D01*
X158718250Y-83617000D01*
X158241458Y-83617000D01*
X158118777Y-83641403D01*
X158003215Y-83689270D01*
X157899211Y-83758763D01*
X157810763Y-83847211D01*
X157741270Y-83951215D01*
X157693403Y-84066777D01*
X157669000Y-84189458D01*
X157234757Y-84189458D01*
X157226472Y-84162149D01*
X157144405Y-84008613D01*
X157033962Y-83874038D01*
X156899387Y-83763595D01*
X156745851Y-83681528D01*
X156579255Y-83630992D01*
X156406001Y-83613928D01*
X155505999Y-83613928D01*
X155332745Y-83630992D01*
X155166149Y-83681528D01*
X155012613Y-83763595D01*
X154954850Y-83811000D01*
X152049841Y-83811000D01*
X150383732Y-82144891D01*
X150704519Y-82144891D01*
X150801843Y-82419252D01*
X150950822Y-82669355D01*
X151145731Y-82885588D01*
X151379080Y-83059641D01*
X151641901Y-83184825D01*
X151789110Y-83229476D01*
X152019000Y-83108155D01*
X152019000Y-81915000D01*
X150825186Y-81915000D01*
X150704519Y-82144891D01*
X150383732Y-82144891D01*
X150114000Y-81875160D01*
X150114000Y-80862712D01*
X150256212Y-80891000D01*
X150479788Y-80891000D01*
X150699067Y-80847383D01*
X150881057Y-80772000D01*
X151072189Y-80772000D01*
X150950822Y-80906645D01*
G04 #@! TD*
M02*
